<?xml version="1.0" encoding="utf-8"?>
<!-- Generator: Adobe Illustrator 25.0.0, SVG Export Plug-In . SVG Version: 6.00 Build 0)  -->
<svg version="1.1" id="Layer_1" xmlns="http://www.w3.org/2000/svg" xmlns:xlink="http://www.w3.org/1999/xlink" x="0px" y="0px"
	 viewBox="0 0 1146 306" style="enable-background:new 0 0 1146 306;" xml:space="preserve">
<style type="text/css">
	.st0{fill:#FFFFFF;}
	.st1{fill:#1A1A1A;}
	.st2{fill:#FFCD00;}
	.st3{fill:#00B9FF;}
</style>
<g>
	<path class="st0" d="M158.7,291.4c-1.7,0-3.3,0-4.8-0.1c-0.1,0-0.2,0-0.3,0l-0.1,0c-19.3-0.7-37.8-5.2-55.1-13.4
		c-16.8-7.9-31.7-18.9-44.3-32.6c-0.8-0.9-1.6-1.8-2.4-2.6c-11-12.6-19.6-27-25.6-42.6c-6.2-16.2-9.3-33.2-9.3-50.6
		c0-19.2,3.8-37.7,11.2-55.2C35,77.3,45.3,62.2,58.3,49.1c13-13,28.2-23.3,45.1-30.4c17.5-7.4,36.1-11.2,55.3-11.2
		s37.8,3.8,55.3,11.2c16.9,7.1,32.1,17.4,45.1,30.4c13,13,23.3,28.2,30.4,45.1c7.4,17.5,11.2,36.1,11.2,55.2
		c0,17.3-3.1,34.2-9.2,50.3c-5.9,15.5-14.4,29.8-25.3,42.4c-0.8,1-1.7,2-2.6,2.9C250.9,259,236,270,219.1,278
		c-17.4,8.2-36.1,12.7-55.4,13.4l-0.1,0c-0.3,0-0.6,0-0.9,0l-2.1,0C160,291.4,159.3,291.4,158.7,291.4z M163.6,287.8"/>
	<path class="st1" d="M158.7,295.1c-1.7,0-3.4,0-5-0.1c-0.1,0-0.2,0-0.3,0l-0.1,0c-19.7-0.7-38.8-5.3-56.5-13.7
		c-17.2-8.1-32.5-19.4-45.4-33.5c-0.8-0.9-1.6-1.8-2.4-2.7c-11.3-13-20.1-27.7-26.3-43.7c-6.3-16.6-9.5-34-9.5-51.9
		c0-19.7,3.8-38.7,11.4-56.7c7.3-17.3,17.8-32.9,31.2-46.3C69.1,33.2,84.7,22.7,102,15.4c17.9-7.6,37-11.4,56.7-11.4
		s38.7,3.8,56.7,11.4c17.3,7.3,32.9,17.8,46.3,31.2c13.4,13.4,23.9,28.9,31.2,46.3c7.6,17.9,11.4,37,11.4,56.7
		c0,17.8-3.2,35.1-9.4,51.6c-6,15.9-14.7,30.5-25.9,43.5c-0.9,1-1.8,2-2.7,3c-12.9,14.2-28.3,25.5-45.6,33.7
		c-17.9,8.4-37,13-56.8,13.7l-0.1,0c-0.3,0-0.7,0-1,0l-2.1,0C160,295.1,159.3,295.1,158.7,295.1z M158.7,7.6
		C80.4,7.6,16.7,71.2,16.7,149.5c0,34.3,12.4,67.4,34.9,93.2c0.8,0.9,1.5,1.7,2.4,2.6c25.9,28.3,61.2,44.6,99.4,46l0.2,0
		c0.1,0,0.2,0,0.3,0l0,0c2.2,0.1,4.5,0.1,6.8,0.1l1,0c0.1,0,0.1,0,0.2,0l0.9,0c0.3,0,0.6,0,0.9,0c0.1,0,0.1,0,0.2,0
		c38.4-1.4,73.9-17.8,99.8-46.2c0.9-1,1.8-2,2.6-2.9c22.2-25.7,34.4-58.6,34.4-92.7C300.6,71.2,236.9,7.6,158.7,7.6z"/>
	<path class="st2" d="M158.7,276.1c-1.5,0-2.9,0-4.3-0.1c-0.1,0-0.2,0-0.3,0l-0.1,0c-17.2-0.6-33.7-4.6-49.2-11.9
		c-15-7.1-28.3-16.8-39.5-29.1c-0.7-0.8-1.4-1.6-2.1-2.3c-9.8-11.3-17.5-24.1-22.8-38c-5.5-14.4-8.3-29.6-8.3-45.2
		c0-17.1,3.3-33.7,9.9-49.3C48.4,85.1,57.5,71.6,69.1,60c11.6-11.6,25.2-20.8,40.2-27.1c15.6-6.6,32.2-9.9,49.3-9.9
		s33.7,3.3,49.3,9.9c15.1,6.4,28.6,15.5,40.2,27.1c11.6,11.6,20.8,25.2,27.1,40.2c6.6,15.6,9.9,32.2,9.9,49.3
		c0,15.5-2.8,30.5-8.2,44.9c-5.2,13.8-12.8,26.6-22.5,37.8c-0.7,0.9-1.5,1.7-2.3,2.6c-11.3,12.3-24.6,22.2-39.6,29.3
		c-15.5,7.3-32.2,11.3-49.4,12l-0.1,0c-0.3,0-0.6,0-0.8,0l-1.8,0C159.8,276.1,159.2,276.1,158.7,276.1z M163.1,272.9"/>
	<polygon class="st0" points="125.9,276.1 115.2,256.6 117.4,229.8 118.6,220.2 120.5,215.6 121.3,213.5 109.8,203.9 96.2,193.8 
		93.5,192.9 90.8,189.4 85.9,181.7 82.5,174.6 80.7,169.6 78.7,162.7 76.8,153.5 76.3,144.3 76.8,134.2 78.2,126.4 80.2,119 
		82.8,110.8 86.6,102.7 89.7,96.8 97.3,85.8 108.3,72.9 120.2,60.2 129.8,51.9 142,43.9 153.4,37.3 158.3,35.7 162.3,35.7 169.2,38 
		172.6,40.1 175.3,42.5 180.6,46.3 193.6,54.7 202.4,60.5 209.8,66.8 215.8,72.5 223.1,80.6 227.3,86.3 230.7,93.1 234.4,103.2 
		236.6,114.2 237.3,123.9 236.7,134.8 235.1,148.2 232.6,157.6 227.1,168.8 223.3,174.5 218.4,181.5 212.7,188.3 206.4,194.9 
		203.3,197.3 201,199 198.5,200.7 195.1,203 194.4,204.1 192.8,207 191.8,209.4 191.2,212.7 191.8,214 193.8,218.7 202.1,236.1 
		208.5,256.6 198,281.8 178,287.8 156.8,290 154.2,290.7 152.6,291 141.4,287.8 	"/>
	<polygon class="st3" points="97.4,188.1 95.2,191.2 93.2,192.4 90.9,189.5 83.6,176.7 78.3,161.5 76.4,146.3 76.8,137 77.4,131.7 
		79.3,122.1 82.9,110.9 88.6,99.1 92.4,93 98.3,85 106.5,75.2 115,65.6 122.7,58.3 131.9,50.7 143.5,43.2 152.8,37.7 156.9,35.8 
		160.1,35.7 163,36.2 169.3,38.2 172.7,40.3 175.4,42.6 184.7,49.1 196.3,56.2 207,64.4 214.4,71.2 220.4,77.6 227.4,86.5 
		230.9,93.2 233.6,100.5 235.3,107.6 236.8,115.9 237.2,120.9 237.2,128.5 236.8,135 235.3,142.6 234.2,152.2 223.4,174.7 
		210.1,191.5 202.5,197.3 203.8,190.9 206.5,184 208.6,178 208.7,169.7 209,167.6 208.7,164.6 209.4,162.5 209.7,161.4 209.8,157.6 
		208.4,156.6 207.7,155.8 207.8,154.4 208.2,151.9 208.6,148.4 206.4,139 204.7,134.1 204.6,132.5 205.9,127.2 205.8,122.7 
		204.7,117.4 202.1,114.7 198.7,112.1 197.9,111.1 197.7,110.2 198.5,109.7 198.4,108.2 194,100.9 191,96.3 187.4,91.4 185.9,88.7 
		178.7,81.4 173.9,78.6 166.9,76.7 160.4,76.8 155.2,77.7 149.7,80.5 144.1,84.7 137.1,91 131.3,97.2 125.7,103.7 119.9,111.6 
		114,121.3 106,141.2 98.1,169.5 93.7,186.2 	"/>
	<g>
		<g>
			<g>
				<path class="st1" d="M199.1,114.8c-0.1-0.1-0.3-0.1-0.6-0.2C198.7,114.7,198.9,114.7,199.1,114.8
					C199.1,114.8,199.1,114.8,199.1,114.8z M199.1,114.8c-0.1-0.1-0.3-0.1-0.6-0.2C198.7,114.7,198.9,114.7,199.1,114.8
					C199.1,114.8,199.1,114.8,199.1,114.8z M199.1,114.8c-0.1-0.1-0.3-0.1-0.6-0.2C198.7,114.7,198.9,114.7,199.1,114.8
					C199.1,114.8,199.1,114.8,199.1,114.8z M199.1,114.8c-0.1-0.1-0.3-0.1-0.6-0.2C198.7,114.7,198.9,114.7,199.1,114.8
					C199.1,114.8,199.1,114.8,199.1,114.8z M199.1,114.8c-0.1-0.1-0.3-0.1-0.6-0.2C198.7,114.7,198.9,114.7,199.1,114.8
					C199.1,114.8,199.1,114.8,199.1,114.8z M199.1,114.8c-0.1-0.1-0.3-0.1-0.6-0.2C198.7,114.7,198.9,114.7,199.1,114.8
					C199.1,114.8,199.1,114.8,199.1,114.8z M238.9,236.8c-11.7-1.6-24.1-7.4-36.3-8.3c-4.7-2-7-6.7-8.6-11.3
					c-0.5-1.3-0.4-2.9-1.3-4.1c-0.3-0.4-0.9-0.5-1-1c-0.3-1.2,2-6.1,2.8-7.3c0.4-0.6,0.9-1.1,1.4-1.7c0.8-0.7,1.7-1.4,2.6-2
					c0,0,0,0,0,0c1.6-1.1,3.3-2.1,4.7-3.1c8.5-6.6,19.7-20.9,25-30.3c3.2-5.7,5.4-11.2,6.7-16.7c3.6-15.3,0-30.1-8.7-45.5
					c-5.6-9.9-18.7-21-28-27.3c-5.9-4.1-11.6-6.7-17.7-10.3c-2.2-1.3-4.3-3.2-6.3-4.4c-0.2-0.1-2.6-0.7-0.4-0.9
					c0.8-0.1,2-0.4,2.6-0.3c0.4,0.1,3.5,1.4,4.1,1.6c4.3,1.9,8.2,4.9,12.5,6.8c0.9,0.2,7.5,5.3,7.8,4.9c0.3-0.3-0.4-0.7-0.5-0.9
					c-5.6-5.5-15.9-11.1-22.6-15.7c-0.5-0.3-1.8-0.4-1.5-1.3c0.3-0.8,3.4,0.2,4.1,0.5c7.9,3.1,17.3,8.8,24.3,13.6
					c3.4,2.3,7,5.5,10.4,7.6c0.3,0.2,1.2,0.6,0.9-0.1c-0.1-0.2-3.7-3-4.3-3.5c-10.1-7.9-21-14.4-32.8-19.7c-0.6-0.2-3.9-1.3-4.1-1.5
					c-0.6-0.9,0.8-2.9,0.9-3.8c0-0.3,0-1.2-0.6-1.1c-1,0.1-0.7,1.2-1.1,1.7c-0.5,0.6-0.5,0.1-1.4,1.5c-8.4,13-21.7,23.6-32.5,34.5
					c-11.6,11.8-22.5,24.9-31.1,39.1c-4.8,8-6.8,15.7-9.4,24.6c-2,6.8-4,13.7-5.1,20.9c-0.3,1.9,0.3,1.1-0.8,2.9
					c-1.5,2.4,0,5-0.5,7.4c-0.1,0.6-0.8,0.8-0.8,1.3c0,0.2,1.6,2.5-0.1,1.9c-0.3-0.1-0.3-0.7-0.6-0.8c-0.4-0.1-1,0.1-1.4-0.1
					c-0.2-0.2-0.4-1.7-0.9-1.7c-0.1,0-0.7,0.6-0.6,0.9c0,0.2,0.7,0.7,1,1.1c0.4,0.6,0.8,1.6,1.1,2.3c0,0,0,0,0,0
					c0.1,0.2,0.2,0.4,0.3,0.6c0.1,0.1,0.2,0.2,0.2,0.3c0.3,0.2,0.5,0.2,0.6,0.3c0.1,0.1,0,0.3-0.1,0.5c0,0.1,0,0.3,0,0.4
					c0.4,0.9,2.8,4.4,3.6,5.5c4.6,6.4,13.5,15,20.9,18c1,0.4,3.4,0.8,3.8,1.6c0.4,0.7-1.5,3.4-1.9,4.3c-1.4,3-2.4,6.2-4.1,9
					c-1.9,3.3-1.8,2.2-5.1,3.1c-6.6,1.8-12.9,3.1-19.5,4.7c-7.4,1.8-13.7,3.8-21.4,4.9c-5.6,0.8-11.3,1.4-16.9,2
					c0.8,0.9,1.6,1.8,2.4,2.6c25,27.3,60.4,44.8,99.9,46.3c0.1,0,0.3,0,0.4,0c1.6,0.1,3.3,0.1,4.9,0.1c0.7,0,1.3,0,2,0
					c0.3,0,0.7,0,1,0c0,0,0.1,0,0.1,0c0.3,0,0.6,0,1,0c0.3,0,0.6,0,0.9,0c0,0,0.1,0,0.1,0c39.8-1.4,75.4-19,100.4-46.5
					c0.9-1,1.8-2,2.6-3C257.5,239.8,248.2,238,238.9,236.8z M224.6,149.8c-0.4,0.5-0.9-1-1-1.2c-0.6-3.5-0.7-7.4-1.4-11
					c-2.7-13.4-10.7-24.2-19.4-34.2c-7.9-9.1-17.2-16.4-25.9-24.5c-1.1-2.4,2.8,0.4,3.6,0.8c4,2.1,5.9,3.4,9.4,6.1
					c14.6,11.3,24.4,19.3,31.4,37.2C224.6,131.3,224.8,140.9,224.6,149.8z M171.6,66.9c0.1-0.1,2.8-0.1,3.2,0
					c0.6,0.1,2.6,1.5,3.3,1.8c12.1,5.9,22.7,12,32.7,21.2c15.3,14,25.5,34.9,22.2,56.2c-0.1,0.8-1.2,5.9-1.7,6.1
					c-1.6,0.4-0.4-5.2-0.4-6.1c0-1.9-0.6-10-1.1-11.6c-0.1-0.3-0.6-0.3-0.7-0.6c-0.3-0.6-0.8-3-1.2-3.9
					c-4.8-11.5-11.7-21.9-19.9-31.3c-4.6-5.2-10.9-9.2-16.3-13.5c-3.8-3-7.3-6-11.2-8.8c-2.3-1.7-4.1-3.1-6.3-4.8
					c-0.5-0.4-2.7-1.5-2.9-1.9C171.3,69.4,171.3,67.1,171.6,66.9z M114.9,122.6c0.2-4.1,8.2-15.4,11.1-18.8
					c4.5-5.4,9-11.3,14.8-15.8c3.8-3,9.1-6.9,13.5-8.7c0.7-0.3,4-1.8,4.3-1.9c1.1-0.2,3.2,0.2,4.6,0c2.4-0.3,3.9-0.4,6.4,0.1
					c4.4,1,8.7,4.4,12,7.4c2.1,1.9,3.9,4.1,5.7,6.3c0.9,0.3,0.2-1,0.9-0.8c0.6,0.2,4.3,3.4,5,4c5.7,5.2,11.4,12.8,16,19
					c7.7,10.3,10.9,21,11.6,34c0.1,2.7,0.2,7.7-0.3,10.2c-0.1,0.4-0.8,1.4-1.2,1c-0.1-0.1,0-2.8-1.2-2.6c-0.5,0.1-0.6,2.4-0.8,3
					c-0.5,1.2-1,1-1.1-0.3c-0.1-1.8-0.2-7.2-1.3-8.3c-0.4-0.4-1.1-0.2-1.4-1c-0.4-1.1-0.5-3.7-0.9-5.1c-1-4.3-2.4-7.8-3.8-12
					c-0.5-1.3-2-5.3-2.1-6.4c-0.2-2.3,4-5.8,2.8-7.6c-0.7-1.1-3.3-0.6-3.6-0.7c-0.1-0.1-1.4-1.9-1.7-2.3c-0.7-0.6-1.8-1-2.4-1.7
					c-1.3-1.4-0.6-3.4-3-3.5c-1.5-0.1-0.5,1.4-0.6,2.3c-3.1-0.3-6.1-0.4-9.1-0.5c-0.3,0-1,0.2-0.9-0.3h3.9c-0.1-0.5-0.8,0-0.3-0.8
					c-1.1,0.3-2.1,0.9-3.1-0.1l1.8-0.1c-0.1-1.6-1.8,0-2.6-0.9l1-0.1l-0.8-0.8l1-0.3c-0.8,0.1-1.9-0.2-2.7,0c-0.2,0-0.1,0.5-0.3,0.5
					c-0.3,0.1-1.6-0.3-2-0.2c-0.4,0.1-0.8,1.6-2.2,0.7c-0.3-0.4,2.3-2.1,0.6-2.1c-1.3,0-2,3-3.7,2.6l-0.1-0.8
					c-0.6,0.4-0.9,2.2-1.4,2.6c-0.4,0.3-0.6-0.2-0.5-0.6c0-0.1,0.4-0.1,0.5-0.3c0.4-0.8,1.1-1.8,0.4-2.6l-0.8,1.7l-1.1,3.4
					c-0.6-0.9,1.4-4.7,1-5.1c-0.9-0.2-1.2,1.1-1.4,0c-0.3,0.9-1.7,1-2.6,1c-0.5,0-0.2-0.7-0.7-0.5c-0.5,0.2-0.2,1.6-0.4,1.8
					c-0.5,0.6-0.5-0.7-0.6-0.8c-0.1-0.3-0.5-0.8-0.5-0.1c-0.1,1.6,0.6,1.1,0.9,1.4c1.8,1.5-0.5,1.9-1.9,1.3c1.1,0.8-0.2,1.7,0,2.4
					c0.1,0.2,0.4,0.2,0.4,0.2c0.1,0.1-0.4,0.6,0.3,0.5c0.1,0.5-0.4,0.2-0.5,0.3c-0.1,0.1,0.9,0.7,0,1.3c1,0.5,0.6-0.2,1.5-0.5
					c-0.4,2.2-3.3,0.6-5,0.5c-1.4-0.1-4.4,0.7-5.2,0.3c-0.5-0.3-1.4-1.8-2.2-2.2c0.2-0.2,1.4-0.2,1.5-0.4c0,0-0.2-0.4-0.1-0.8
					c0.2-1,0.3-1.5,0.5-2.4c0.1-0.3,0.5-0.5,0.6-0.8c0.1-0.5-0.4-1.5-0.2-2.1L160,111c0.3-0.6-0.2-1.5-0.2-1.6
					c0-0.3,0.6-0.5,0.4-0.9c-0.7,0.4-0.9,0.2-1.5-0.3c0.1,0.8,0.4,1.5,0.4,2.3c0,0.3,0.3,0.9-0.2,0.8c-0.2-1.2-0.3-2.7-1.5-3.3
					l-0.1,1.5l-1.2-1.8l-0.7-0.5l0.8,2.5l-0.2,2.4l0-1.8l-0.5,0.3c0.6-1.3-0.6-2-1.4-2.8c-0.3,1-0.3,0.2-0.9,0.1
					c-0.5-0.1-1.4-0.2-1.4,0.4c-0.4-0.5-2.8-0.6-3.3-0.5c-0.3,0.1,0,0.7-0.3,0.8c-1.4-1.3-3.4-1.9-5.3-2.1c1.9,1.7-0.1,0.5-1.3,0.5
					c-0.2,0.1,1.7,1.5,2.1,1.6c0.5,0.1,1.4-0.3,1.7-0.1c0.1,0.1,0.1,0.7,0.3,0.9c0.1,0.1,2,0.9,1.5,1.3c-0.4,0.3-1.4-1-1.9-1
					c-0.5,0-1.1,0.4-1.7,0.3c-0.1,0.3,1.1,0.3,0.5,0.8c-0.2,0.2-1.5-0.8-2.1-0.5c0.2,0.7,0.1,1.4-0.7,0.9c-0.1-0.1,0-0.6-0.7-0.4
					c-0.1,0,0,0.4-0.5,0.5c-3.4,1.1-6.7,0-10.8,2.3c-0.5,0.3-0.9,1.2-1.2,0.4c-0.2-0.7-0.1-1.7-1.2-1.1c-0.6,0.3-1.4,1.6-2.1,2.1
					c2.4,0.3,0.4,0.6,0.2,0.8c-0.1,0.2-0.3,0.6,0,0.8c0.4,0.2,0.8-0.2,1.3-0.3c0.6,0,0.5,0.1,0.1,0.4c-0.6,0.5-1.9,0.6-2.6,1
					c-3.2,1.5-5.3,4.9-8.2,6.8c-0.3,0.2-0.5,0.3-0.9,0.2C115.6,123.9,114.9,123.4,114.9,122.6z M127.5,129.3
					c-0.3-1.8-0.6-3.3-0.7-5.2c-0.1-1.9,0-3.2,0.4-4.9c0.1-0.5,0.4-1.5,0.8-1.8c0.2-0.2,0.4-0.5,0.7-0.7c1.2-1,2.6-1.7,4-2.3
					c4.5-1.9,8.9-1.8,8.9-1.8c2.5-0.1,9.8-0.3,16,4.4c1,0.7,1.7,1.5,2.2,1.9v-0.3c1.2,3.3,0.6,6.2-0.5,9.4c-1.1,3.3-2.9,6.7-6,8.4
					c-9.5,5.4-21.1,0.9-23.2-1.7c-1.5-1.8-2.1-3.8-2.1-3.8C127.7,130.4,127.7,130,127.5,129.3z M123.4,123.2c1.3-0.2,1.1,0.1,1,1.3
					c-0.9-1-1.6-1.3-2.8-0.4l1.8,1c-0.8,0-1.4,0.4-1.3,1.3c0.1,0.6,1.4,0.2,1.5,0.9c-1.8,0.2-3.1-2-4.8,0l-2.2-0.6
					c-0.1-0.4,4.4-3.9,5-4.5c0.6-0.5,1.1-1.8,2-1.7c0.1,0,1.1,0.4,1.2,0.4c0,0,0.1,0.5-0.1,0.5c-0.5,0-0.8-1-1.4-0.1
					C123.9,122,123.5,122.5,123.4,123.2z M109.3,142.2c0.2-0.2,0.7-0.2,0.8-0.2c0.1,0.1,0.4,2.9,0.5,3.3
					C110.1,145.9,108.4,143.3,109.3,142.2z M106.2,180.8c-0.4,0.2-1.1,0-1.6,0.2c-0.7,0.2-1.6,1.7-2.7,0.4c-0.6-0.7-1.6-2.5-1.9-3.4
					c-0.1-0.4-0.3-0.8-0.3-1.3c0.1-1.5,3.3-2.2,4-0.9c0.2,0.5,0.2,2.2,1.1,2.3c0.8,0.1,1.4-2.2,2.4-2
					C107.8,176.5,106.4,180.7,106.2,180.8z M140.4,230.6c-0.6,0.6-2.8,2.9-3.7,5.7c-1.6,4.8,1.3,9.6,2,10.6
					c-1.3,0.9-2.6,2.1-3.9,3.5c-5.6,6.2-6.9,13.6-7.3,17.3c-0.6-5.3-1.1-10.6-1.5-16.1c-0.2-2.5-0.4-5-0.5-7.5
					c0.6-0.5,0.6-1.2,0.9-1.6c0.5-0.8,1.4-0.6,1.7-2.3c0.3-1.7-0.3-1.3-0.6-2.3c-0.8-2-1-1.7-2.1-3.3c-2.7-4-5.8-12.1-5.2-16.9
					c0.1-0.8,0.3-1.2,0.6-1.3c1-0.4,2.8,1.8,3.2,2.3c5.2,5.9,20.1,6.1,20.1,8.9C144,228.4,142.7,228.3,140.4,230.6z M127.5,184.8
					l-1-1.8c0.5,0.6,1.2,0.4,1.7,0.6c0.1,0,0.8,0.7,0.6,0.9c-0.2,0.1-0.9-0.3-1-0.2C127.7,184.4,128,184.9,127.5,184.8z
					 M153.3,290.7c-1.6-4.4-4.2-12.6-5.1-21.8c-0.5-5.6-0.4-11-0.4-11.8c0.1-2.8,0.3-5.2,0.5-7.1c3.7,0.5,6.2-0.2,7.8-0.9
					c2.3-1,3.2-2.2,4.4-1.8c1.6,0.5,1.4,2.8,3.6,5.2c1.1,1.3,2.4,1.9,3.3,2.3L153.3,290.7z M178.6,234.7c0,0-0.1,0.1-0.2,0.2
					c0,0-0.9,0.7-1.7,1.6c-2.3,2.4-4.3,8.7-4.3,8.7s-1.2,3.6-3.5,7.3c-0.8,1.3-2.3-0.1-3.2-0.9c-1.3-1.1-3.3-3.3-3.9-4.8
					c-1.5-3.9,1-7.7-0.2-11.4c-0.8-2.4-4.7-5.8-7-6.6c-0.7-0.5-1.3-0.9-2-1.4c1.2-0.5,3.2-1.3,5.8-1.9c2.9-0.7,5.1-0.6,6.3-0.9
					c5.4-1.3,13.2-3.8,18.2-6.2c1-0.5,6.8-3.9,7.2-3.8c0.6,0.2,0.7,1.3,0.6,1.8C190.8,216.3,191,224.6,178.6,234.7z M190.1,187.3
					c-0.1,0.4,0.3,0.7,0.1,1.1c-0.4,0.8-0.3-0.3-0.6-0.3c0.3,1.4-1.4,1.2-1.5,1.3c-0.1,0.1,0.1,0.8-0.1,1.2
					c-0.4,0.9-3.8,1.5-2.2,2.3c-0.6,0.3-2.1,2.3-2.4,2.4c-0.5,0.2-0.5-0.4-0.4-0.6c0-0.1,0.5-0.1,0.5-0.2c0-0.2-0.4-1-0.2-1.2
					c0.1-0.1,0.7,0.1,0.8,0c0.3-0.2-1.1-1.8,0.1-1.8c0.1,0,0.2,0.9,0.6,0.5c0.1-0.1,0.6-2.2,0.8-2.6c0.1-0.1,1.5-0.7,0-0.6
					c0.5-0.8,0.5-1.5,0.5-2.4l-1,1.3c-0.2-1.3,0.9-1.8,0-3.1l-0.3,1.8l-0.5-1.8c-0.9,0.1-1.4,1-1.3,1.8l-0.4-0.5l-0.6,1l-0.3-1.5
					c-0.2,0.5-0.1,1.2-0.3,1.6c-0.4,0.8-1.8,2-2.8,2.3c-0.2-0.8,0.7-0.5,1-0.8c0.5-0.8,0.4-2.4,0.6-3.3c-0.4-0.6-1.3,1.6-1.5,1.5
					c0.5-2.2,1.5-4.4,0.8-6.7c-1,0.5-0.4,0.9-0.5,1.4c-0.1,1.2-0.2,2.4-0.8,3.5l-0.3-2.6l-1,0c0.4-0.8,0.6-1.1,0.3-2.1l0.8,1
					c0-1,0.3-1.8,0-2.8l0.5,0.5c1.4-1-0.8-1.7-1-1.9c-0.2-0.2,0-1.5-0.7-1.7l-0.1,0.8l-0.5-0.3l0.3,2.6c-1.8-0.3-1,0.9-0.1,1.5
					l0.4-0.5l0.3,2.3l-0.5-0.3l0,0.8c-0.3-0.5-1.4,0.9-1.8,0.5c-0.1-0.1,0-1.3-0.5-1.3c0.1,0.6-1.8,1.3-1.9,1.5
					c-0.6,0.9,0.4,1.8,0.4,2.5c0,0.8-1,1.3-0.8,2.2c-1-0.4,0.3-1.6,0.2-2.4c0-0.2-0.8-2.9-0.8-3c-0.8-1.2-0.6,1.5-0.6,2.1l-0.5-1.5
					c0.2,0.9-0.5,1.2-1,1.8l0-1.8c-0.4-0.1-0.2,0.3-0.3,0.5c-0.1,0.1-0.5-0.1-0.7-0.1c-0.3,0.1-0.6,0.6-0.9,0.6
					c-1,0.1-0.1-1-0.1-1.6c0-1.1-0.8-1.9-1.3-0.6c-0.4,0.9,0.3,0.8,0.4,1.2c0.1,0.2-0.1,0.6,0,0.8c0.3,0.9,0.6,1.8,1.2,2.5
					c-0.6,0-0.6,0.1-0.8-0.3c-0.2-0.3-0.9-1.6-1-1.8c-0.2-0.6,0.1-1.2,0.1-1.2c-0.4-0.5-0.5,0.9-1.2,1c-0.3,0.1,0.1-0.9-0.4-0.8
					c-0.5,1.3-0.2,2.7-0.1,4.1c0,0.3,0.3,0.9-0.2,0.8l-0.3-2.1l-0.5,1c-0.2-1.5,0.5-3,0-4.4c-1.1,0.4-1,1.3-1.7,0l-0.4,0.8l-0.9-0.5
					l-0.9,1.8l0.5-2.6c-4.5,1.6-1.7-0.2-1.6-2c0-0.3-0.5-1.6-0.6-1.6l-0.6,1.3c1.9-0.7,0.3,0.8,0.3,1c-0.4,1.2-0.3,2.6-1.3,3.6l1,2
					l-3.2-2.9c-1.4-0.3-1.8-1.8-3.3-0.6l-0.6-1.8c-0.1,0.4-1.1,0.7-1.1,0.8c-0.1,0.3,0.2,0.7,0.2,0.9c0,0.2-1.1,0.3-0.7,2
					c0.1,0.3,0.5,0.2,0.6,0.4c0.3,0.5,0,1.3,0.7,1.7l-0.8-0.1l-0.1,0.8c-0.5-0.6-0.5-1.5-0.9-2.1c-0.2-0.4-0.7-0.4-0.9-0.7
					c-0.4-0.6-0.7-1.4-0.9-2.1l-0.5,0.5c-0.2-1.5,1-3.4,0.4-4.6c-0.4,0.5-1,1.3-0.9,1.9c0.1,0.4,0.5,0.7,0.5,1
					c0,0.3-0.7,0.7-0.6,1.1c0,0.2,1.1,2.9,1.2,3.1c0.3,0.3,0.9,0.5,1.3,1.4c0.1,0.4,0.2,0.9,0.3,1.3c-0.4-0.7-1.5-1.1-1.8-1.7
					c-0.2-0.4,0-0.7-0.2-1c-0.4-0.8-1.7-1.2-1.6-2.4l0.5,0.1l-0.5-1.4c-0.8-0.1-1.4,0.6-1.3,1.4c0,0.2,0.5,0.1,0.5,0.3
					c0.1,0.4-0.1,0.8,0,1.2c0,0.1,1.3,1.1,1,1.7l-2.1-2.3c0,0.5-0.3,1-0.3,1.4c0,0.6,0.8,2.6-0.2,2.4c0.3-1.5-0.2-3,0.3-4.6l0.5-0.2
					c-0.8,0.1-1.6-1.8-2.1-0.6c-0.1,0.2,0.4,0,0.5,0.3c0.1,0.4,0.3,1.7,0.1,2.1c-0.6-0.8-0.4-2-1.4-2.6c-0.2,0.2,0.1,2-0.5,2.1
					c-0.3-0.5,0.3-2.7,0.3-2.8c-0.1-0.1-0.7,0.5-0.8,0.1l1-0.9l0.5,1.4l-0.5-2.2c-0.7,0.5-0.4-0.2-0.6-0.3c-0.1,0-0.8,2.1-0.8,2.3
					c0,1,1,1-0.7,2.2l-1.2,4.3l0.5-5.1l0.5,0.8c0.2-1-0.2-2.3-0.1-3.2c0-0.4,0.4-0.7,0.4-1.3c0-0.9-0.9-1.2,0.8-1.4
					c0.1,0.1-0.8,1.6,0,1.8c0.1-1.1,1.2-1.6,1-2.6c-0.4-0.1-0.1,0.4-0.4,0.5c-0.6,0.1-1.2-0.2-1.8,0.3c-1,0.8-2.4,3.6-2.9,4.8
					c-1.2-0.7-0.1-0.7,0.1-1c0.3-0.4,0.3-1,0.6-1.5c0.3-0.6,2.1-2.5,2.1-2.6c0.1-0.3-0.2-0.6-0.2-0.8c0-0.2,0.5-0.1,0.5-0.3
					c0.2-0.8-0.2-2,0-2.7c0-0.1,1.5-1.5,1.5-2c0.9,0.3,0.1,0.7-0.1,1.3c-0.3,0.7-1.4,3.2-0.5,3.6c0.4,0.2,0.9-1.4,1.3-1.5
					c0.1,0,0.3,0,0.5,0c-0.2,1.4,1.3-0.3,0.9-1.3c0.5-0.1,0.2,0.4,0.3,0.5c0.1,0.1,0.6-0.3,0.8-0.2c0.1,0.1-0.2,1.2,0.9,1
					c0.1,0,0.1-0.4,0.3-0.5c0.8-0.4,2-0.9,2.9-0.8l-0.3-0.5c0.7,0.1,1.2-0.1,1.5-0.6l-0.5-0.1v-1l0.5,0.3c-0.5-0.7,0.3-1.9,1-2.1
					c-0.1,0.3-0.3,0.6-0.4,0.9c0,0.2-0.3,1.3,0.1,1.2c-0.1-0.6,0.6-0.6,0.8-0.9c0.3-0.5-0.8-0.4-0.5-0.6c0.6-0.5,0.5,0.1,1-1.1
					c0.1-0.3,0.4,0.2,0.5,0.1c0.3-0.4-1-1-0.8-1.5c1,0.3,1.2,1.2,2.1,0.3c0,0.1-0.6,2.2,0.3,1.3c0,0,0-0.6,0.2-0.9
					c0.5-0.5,1.8-0.4,1.6-1.9l0.5,0.3c-0.4-2.4,0-1.4,1-1.7c0.6-0.1,1.1-0.8,1.7-0.9c4.5-0.8,11.6-1.4,15.8-0.4
					c2.5,0.6,4.3,1.7,6.4,2.8c-1.2,0.5-1.9-0.6-3.1-0.6c0.2,0.3,0.5,1.6,0.6,1.8c0.2,0.2,0.8,0,0.9,0.1c0.4,0.3,1,1.7,1.9,1.5
					c-0.3-0.7-1.2-0.9-1.6-1.6c-0.2-0.3-0.5-0.8,0.2-0.7l2.1,2.1l0.1-0.5c0.9,0.6,1.1,1,0.9-0.3l1.9,1.9c-1.9-0.2-0.4,0.6-0.1,0.9
					c0.6,1,0.7,1.9,1.8,3.1c0.5,0.5,1.1,0.3,0.9,1l-0.8,0.1c0.9,1,1.8,1.3,3.1,1.7l-1-1.5c-0.4-0.2-0.1,0.8-0.5,0.4
					c-1.2-1.4,1.1-0.8,1.9-0.4c0.4,0-0.5-0.6,0.3-0.5c1.3,0.2,1.1,1.8,2.4,1l-1-1.5c0.3,0.1,1-0.3,1-0.3c0,0,0.2,1,0.3,1.3l0.8-1
					c-1.2,0.5-0.5,0-1-0.7c-0.6-1.1-1.4-1.4-0.8-2.9l0.9,0.5c0.7,0.2-1.2-1.9-1.3-2.1c-0.1-0.2,0.5-0.8,0.1-1.3l1.9,0.8
					c0.5-0.4-0.8-1.1-0.6-1.3l1.3,0.5l-1.3-1.2c-0.1-0.2,0.8-0.3,0.8-0.5c0-0.1-1.6-1.7-2.1-1.4c-0.1-0.5,0.5-0.1,0.7-0.3
					c0.1-0.1,0.4-0.9,0.3-1c0,0-0.5,0.1-0.7-0.1c-0.2-0.1-0.1-0.4-0.6-0.6c-1.4-0.4-0.6,0.6-1,1.1c-0.3,0.3-1.4,0.5-0.5,1
					c0.2,0.1,0.7-0.2,0.9,0.1c0.1,0.1-0.1,0.5,0,0.8c0.1,0.3,1,0.6,0.5,1c-0.6-1-2.2-0.6-2.7-1.7c-0.2-0.4,0.3-0.5,0.5-0.4
					c0,0-0.1,1,0.5,0.4c-0.1-0.5-0.7-0.7-0.9-1c-0.1-0.1,0.1-0.4-0.1-0.6c-0.3-0.3-1.2-0.6-1.2-0.7c-0.2-0.4,0.1-1.4-0.1-1.7
					c-0.1-0.1-2.4-0.7-2.8-1.1c-0.8,1.5,0.9,1.4,0.8,2.6c-0.9-1-2.3-0.7-3.2-1.8l-0.6,0.5c0.4-1.1-0.1-1.6-0.9-2.3l-0.3,0.5
					c-1-0.5-1-1-1.2-2.1c-1,0.4,0.1,1.9-0.8,2.3l-0.5-2.6l-1,0.5c-0.3-0.9,0.3-1.3-0.8-1.5l0.3,0.8c-2-1-1.4,0.2-1.8,1
					c0,0-0.3-0.1-0.5-0.1c-1.3,0.5-0.4,0-1.7-0.7c-0.7-0.1-0.1,0.5-0.1,0.5c-0.6,0.3-0.5-0.4-0.7-0.5c-0.5-0.3-0.9-0.2-1.1-0.9
					c-0.1-0.4,1,0.5,0.8-0.3c-0.4-0.9-1.8-0.2-1.8-1.2l-0.3,0.8c-1-0.7-0.4,0.8,0.1,1l0.6-0.8c0.7,1.8,1.3,2.9-1.3,2.8v-1.5
					c-1.4-0.1-1.7,0.8-2.8,1.3l0.5-1.3c-0.6,0-1.3,0.1-1.9-0.1c-1.4-0.3-0.5-0.9-2.3-0.1c-0.2,0.1-0.5-0.1-0.5-0.1
					c-0.1,0.2,0.1,1-0.4,1.3l-0.1-0.8l-0.5,0.5l-0.1-1c-1.3,1.2-2.7,2.6-3.2,4.4c-0.5,0.1-0.3-0.6-0.2-0.8c0.3-0.9,1.4-2,1.1-3
					c-0.4,1.2-1.8,0.7-1.9,0.8c-0.1,0-0.1,1.1-0.7,1.3c-0.2,0.1,0-0.8-0.6-0.2l-0.1-0.8l-0.6,0.6c1.4,0.6-1.2,0.1-1,1.4
					c-0.5,0.1-0.1-0.6-0.3-0.8c0,0-0.6,0.3-0.9,0.3c-0.4,0-1.1-0.3-1.3-0.3c-0.5,0.1-0.3,1.3-0.8,1.5c-0.4,0.1-0.7-0.6-0.9-0.5
					c-0.1,0.1,0.2,0.6-0.3,0.5c0.2-0.6-1-0.9-1.3-0.7c-0.5,0.3-0.4,1.7-0.5,1.9c0,0-0.4-0.2-0.5-0.1c-0.2,0.2-0.4,0.8-0.9,0.9
					c-0.1,0-0.1-0.4-0.2-0.4c-0.1-0.1-0.7,0.5-0.5-0.2c0.1-0.4,1,0.2,1,0.1c0.4-0.5-0.6-1.7-0.9-0.5l-0.1-0.5l-1,0.3
					c-0.2,0.9,0.5,0.2,0.5,0.3c0.2,0.5-1.6,1.5-1.5,2.3c0.3,0.1,1.4,0,1.5,0.1c0.1,0.1,0.1,0.4,0.3,0.5c0.6,0.3,1.6,0.3,1.5,1.2
					c-1.4-0.4-2.4-1.2-3.6-1.8l0,1.3c-2.2-1.3-1.3,0.1-1.9,0.7c-0.3,0.3-1.1,0.3-1.5,0.3c1,1.5,1,0.3,1.2,0.3c0.2,0,0.8-0.1,0.9,0.1
					c0.2,1.3-1.5,0.3-2.1,1.5c-0.2,0.5,1,0.4,0.5,0.9c-0.1,0.1-0.9,0-1,0.4l1,0.5l-0.5,0.4c0.4,0,3.2-0.9,3.3-1.1
					c0.1-0.2,0-0.6,0.1-0.9c0.1-0.1,1.2-1.1,1.5-1l-0.5,1.9c-0.6-0.6-1.2,1.2-1.9,1.5c-0.5-1.3-2.4,0.3-2.6,1.5
					c-0.1,0.8,0.2,0.4-0.3,1.5c0,0.1,0.8-0.1,0.5,1.3c-0.1,0.4-0.9,2.4-1.3,1.3c0-0.1,0.9-0.2,0.5-1.2c-0.5,0.4-1.4,0-1.8,0.1
					c-0.8,0.3,0.4,0.5,0.5,0.8c0,0.1-0.2,1.5-0.5,1.4c0.4-1.4-0.8-1.6-0.5-2.8c-0.4-0.2-0.5,2-1,1.3c-0.1-0.1,0.1-1.2-0.3-1.5
					c0.2-0.2,0.8,0.8,1-0.5c-0.3-0.1-0.6,0.3-0.9,0.3c-0.1,0-0.2-1.1-0.5-0.3c-0.3,0.9-0.1,1.7,0.1,2.6c-0.3,0.2-1,0-1,0
					c-0.6,1.1,0.9,0.6,1,0.8c0.4,0.4,0.4,3.3,0.5,3.9c0,0.1,1.2,0.5,0.1,0.9c-0.6,0.3-0.6-3.2-0.6-3.6c-0.5-0.1-0.2,0.4-0.3,0.5
					c-0.6,0.5-0.2-1.2-0.3-1.3c-0.6-0.6-1,1.2-0.7,1.9c0.1,0.4,1,0.3,0.7,1.2c-1-0.6-1.3-1.7-1.3-2.8l-0.4,0.8
					c-0.5-0.4-0.8-0.7-1.4-0.9c0.3-0.6,1.5-0.6,1.5-0.7c0.1-0.1-0.1-0.6,0-0.8c0.1-0.3,0.8-0.2,0.5-1l-0.4,0.5
					c-0.4-1.2-0.9-0.4-1.3-0.5c-0.1,0-0.5-1.1-0.6-0.1c-0.1,1.2,1.6,2.4-1.3,3.4c0.7,1,0.6,2.4,1.3,3.5c-0.7,0.2-0.6-0.5-0.8-0.7
					c-0.1,0-1.2,0-1.5-0.1l0.5,1.5c-0.6-0.2-0.3-1.1-1-0.5c0.1-1.8-2.7-2.2-2.3-4.1c-0.5,0.1,0,0.8-0.8,0.3l0.5,2.6
					c-1.1-0.5-0.6-1.8-0.8-2.7c-0.1-0.2-0.7-0.3-0.9-1c-0.2-0.7,0.5-2-0.4-2c-0.1,0-0.7,0.2-0.7,0.2c-0.7,0.7,1.7,4.5,1.2,5.6
					l-0.3-0.8h-0.3c0,0.4,0,0.7,0.1,1.1c0.1,0.3,1.9,4.1,2.1,4.2c0.5,0.5,2.2,1.2,2.8,1.7c0.3,0.2,0.6,0.4,0.7,0.7
					c-0.7-0.2-1.8-0.7-2.4-1c-0.6-0.4-1.6-1.3-2.4-1.8c-0.9-0.5-1.3,0.1-0.5-1.4l-2.3-5.1c0.2-1.5-1.2-2.4-1.2-3.8l-0.5,0.3l0-1.3
					c-0.3,0.3-0.9,0-1,0.1c-0.4,0.3,0.2,1,0,1.4l0.5-0.3l-0.2,2.8l4.3,6.4c-0.1,0.1-1.5-0.6-1.7-0.8c-0.6-0.5-0.2-1.1-1.7-0.9
					c-0.4-0.2,0.1-0.7,0-0.9c-0.2-0.2-1.4-0.4-1.3-1.1l-0.4,1c-0.7-0.3,0.5-1.5-0.9-0.8c0-0.9,0.4-1.5-0.8-1.3
					c-0.2,0.4,0.5,1,0.5,1.2c0,0.3-1,0.2-0.7,0.7c0.6,0.7,0.5,1.7,0.9,2.5c0.3,0.8,1.1,1.4,1.5,2.1c0.2,0.4,0.2,0.6-0.3,0.5
					c-1.4-1.3-2.1-2.9-3-4.5c-0.2-0.3-0.7-0.6-0.9-1c-0.2-0.5,0.1-0.9,0-1.2c-0.2-0.4-0.9-0.4-0.9-0.7c-0.1-0.5,0.1-1.3-0.1-1.9
					c-0.8-3.6-2.5-8-3-11.6c0-0.3-0.1-1.9,0-1.9c0.1-0.1,1,0.2,1-0.1c-0.4-0.6-1.2-4.6-1-4.8c0.1-0.1,0.7,0,0.9,0.3
					c0.2,0.4-0.1,1.1,0.4,1c0.3-1.8,0-2.6-0.7-4.1c-0.1-0.3,0-0.8-0.1-0.8c-0.2-0.3-1.7,0.8-1.8-0.4c-0.1-0.9,0.7-0.8,0.8-1.1
					c0-0.1,0.3-2.9,0.3-3c-0.1-0.6-0.7-0.8-0.8-1.1c0-0.3,0.4-0.5,0.4-0.8c0-0.2,0.2-2.3,0.8-1.6c0.1,0.1-0.2,0.7-0.1,0.9
					c0.1,0.4,0.7,0.8,0.7,1.4c0.6,0,0.7-1.5,0.8-1.5c0.3-0.2,1.4,0.8,2.1,0.3c0.6,2-1.1,0.3-1.3,0.5c0.1,0.4-0.3,0.8-0.3,1.1
					c0,0.3,0.4,0.1,0.5,0.1c0.3,0.2-0.9,0.5-1,0.9c-0.1,0.3,0.3,0.8,0.3,1.1c0,0.7-0.1,1.6,0,2.3c0,0.5,0.1,0.7,0.4,0.3
					c0-0.6,0.1-2.2,0.3-2.7c0.2-0.5,1.1-0.5,0.7-2c1,0.6,0.3,2.3,0.5,3.3l-0.8-0.1c0.4,0.7-0.1,1.4,0,2c0.1,0.4,0.4,0.6,0.5,0.9
					c0.1,0.5-0.6,1.4,0.1,1.6l0.3-1.8l0.5,0.3c-0.3-1,0.1-1.8,0.3-2.8l0.8,2.1c-0.3-0.8,0.4-1.3,0.5-1.9c0.1-0.5-0.1-1.2,0.1-1.8
					c0.1-0.3,0.6-0.3,0.7-0.6c0.2-0.4,0.7-3,0.8-3.2l0.5,0.3c-0.1-1.4,0.5-2.5,0.5-3.9l0.5,0.5c0.5-1,1.1-1,1-2.3l0.4,0.5l0.6-0.3
					c0.2-0.8-1.2-0.9-1-1.4c0.2-0.4,1-0.2,0.8-0.9l-1,0.5l0.8-1.5l-1.8,1.5c0-1.3,1.3-1.8,1.8-3c-0.8-0.6-0.7,0.3-0.8,0.4
					c-0.6,0.4-0.5-0.4-0.7-0.6c-0.3-0.2-1.3-0.2-1.3-0.5c0-0.8,1.5-0.5,1.3-1.3c-0.3-1.2-1.1,0.5-1.4,0.4c-0.3-0.1-0.5-1.3-0.8-1.3
					c-0.2,0-1,1.5-1.7,0.4c-0.2-0.7,0.9-1.6,1-2.1c0.1-0.5-0.3-0.9-0.1-1.4c0.1-0.1,1.5-1.2,1.6-1.2c0.9-0.3,3.2-1,4.1-1.1
					c1.6-0.2,1.8,0.2,3.1,0.5c1.4,0.3,2.5,0.4,3.1,0.4c0.6,0,1.1-0.1,1.4-0.1c0.4,2.6,2.8,4.4,5.1,5.4c5.2,2.3,14.7,2.9,20,0.8
					c0.5-0.2,3.3-1.9,3.5-1.8c0.4,0.4-0.3,0.6-0.5,0.7c-4.2,2.9-9,2.5-13.8,3c-0.5,0-0.8,0.4-1.3,0.5c-1.1,0.1-2.3-0.1-3.5,0
					l0.5,0.4l-0.5,0.6c3.9,0.1,7.7-0.9,11.7-0.3l3.6-0.9c1.1,0.8-1.5,2-0.1,2.6c0.1-0.1,0.8-2.1,1-2.4c0.5-0.9,3.3-3.1,3.4-3.5
					c0.1-0.4-0.1-0.8,0.1-1.2c0.5-1.6,2.9-4.7,3.8-6.5c1.6-3.5,1.7-8.4,6.8-8.3c1.5,0,2.2,0.5,3,1.8c0.8,3.2,2.1,7.1,4.5,11
					c0.6,1,1.2,1.9,1.8,2.7c-0.9-1.3-1.3-2.7-1.5-3.8l2.1,2.9c-1.4-1.9-2.3-3.6-2.9-4.8c-0.6-1.2-2-4.3-2.4-7.9c0,0-0.3-2.9,0.7-4.6
					c0.1-0.2,0.2-0.3,0.2-0.3c0.1-0.2,0.3-0.4,0.5-0.6c0.6-0.7,1.6-1.4,2.3-1.6c0,0,0,0,0,0c0.4-0.2,0.8-0.4,1.3-0.5
					c1.4-0.4,2.8-0.6,4.2-0.7c2.1-0.2,4.2-0.4,6.4-0.6c1-0.1,2.1-0.2,3.1-0.3c-0.1-0.1-0.2-0.1-0.3-0.3c0.9,0,2.2,0.1,3.6,0.2
					c0.9,0.1,1.8,0.2,2.7,0.4c3.2,0.5,6.4,1.5,7.7,3.3c1.4,1.9,1.5,4.9,1.4,7.2c0,2-0.2,6-2.8,9.9c0,0-0.9,1.9-2.4,2.8
					c-5,3.2-18.5,3.1-23-1.2l-0.3-0.5c-0.2,0.3-0.4,0.6-0.6,0.9c0.3,0.4,0.6,0.8,1,1.2c0.5,0.5,1,0.9,1.5,1.2
					c0.2,0.1,0.5,0.3,0.7,0.4c2.4,1.2,5.5,1.2,9.5,1.2c5,0,9.9,0,13.2-3.4c1-1,1.6-2.1,1.9-2.8c0,1.5,0.7,2.9,1,4.3
					c0.5,2.4,0.8,6.3,2,8.6c0.2,0.4,1.1,0.9,1.1,1.2c0,0.2-0.7,1.4-0.7,2.1c0,0.8,0.4,1.4,0.4,2.1c0.1,1.9-1,3,2.1,2.8
					c-0.7-0.5-0.2-1.1-0.3-1.8c-0.7-6.3-2-11.7-3.6-17.8c-0.1-0.6-0.1-2.6-0.6-2.9c-0.2-0.1-0.7,0-0.7,0c-0.1-0.1,0.8-2.5,0.9-2.8
					c0.1-0.2,0-0.6,0.4-0.5c-0.5,1.2,0.3,1.3,0.5,1.7c3.8,8.8,7.2,24.7,4,33.8c-0.1,0.4-0.1,2-1,0.8c-0.8-1.1,0.2-2.8,0.3-4.1
					c0.1-1,0.3-4.3,0.1-5c-0.1-0.4-1.9-0.8-2.3-0.7c-0.4,0.4,0.7,5.3,1.1,5.6c0.3,0.2,1.2-0.3,0.4,0.9c-0.3,0.4-1.1,0.7-1.2,1.4
					c-0.1,0.5,0.2,1,0.2,1.5c-0.1,1.7-1.1,4.4-0.6,6.1c0.1,0.5,1.7,1.7,1.4,2.1c-0.3,0.3-1.4-1.3-1.8-1.3c0.1,1.4-0.6,3.2-0.5,4.5
					c0,0.4,1,0.5,0.5,0.9c-0.1,0-0.6,0-0.8,0.1c-0.8,0.6,0.2,2,0,2.8c-0.1,0.5-1.6,0.1,0.2,1.6c-0.3,0.5-1.1,0.2-1.3,0.5
					c-0.1,0.1-0.6,2.8-0.7,3.4c-0.4,2-1,3.8-1.8,6c-0.2,0.5,0,1-0.1,1.4c-0.1,0.2-2,2.6-2.3,2.9c-1.4,1.5-1-0.5-0.5-1.4
					c-1.4,0-1.9,1.4-3.2,1.5l-0.1-1c-0.9,0-1.2,1.6-1.8,0.1c1.2-0.6,3.1-1.5,3-3c-0.5,0.6-1.6,1.3-2.4,1.2c0.1-0.9,2.1-1.9,2.3-2.2
					c0.1-0.2-0.2-0.6-0.2-0.9c0-0.4,0.4-0.6,0.5-1c0-0.2-0.3-0.6-0.2-0.6c0.2-0.2,1,0,1,0c0.1-0.2-0.2-0.5-0.2-0.6
					c0-0.1,1-0.7,0.7-1.4l-0.6,0.5c-0.2-0.9-0.4-0.3-1.2-0.3c0.8-1.1-0.2-1.3-0.2-1.5c0-0.2-0.3-1.9-0.3-2c0-0.1,0.9-0.3,0.5-0.9
					c0-0.1-0.9,0.5-0.5-0.5l-3.5,1.3l-0.1-1.3l0.4,0.8c0.9-0.8,3.2-1.2,3.9-2.1c0.6-0.8,0.3-3.3,0.4-4.4l-1,2.5
					c-0.2,0.7-0.2,1.4,0,2.2c-1.1,0.2-0.3-2-0.5-2.3c-0.9-0.1-0.2,0.3-0.4,0.8c-0.1,0.3-0.3,0.4-0.4,0.6c-0.3,0.7,0.9-0.2,0.5,0.5
					c-1.8,3.4-1.2-1.4-2.3-1.9c-0.1,0.6-0.1,1.5-0.8,1.8c0.6-3.9-0.8-0.7-1,1l0.8-0.8c0,1.3-0.8,2,0.5,2.8c-0.3,0.1-1.5-0.1-1.5,0
					c-0.1,0.1-0.3,1.8-0.3,1.9c0,0.1,1.3,1,1,1.7l-1.5-1C191.2,186.9,190.2,187,190.1,187.3z M123.4,183.9c0,0.2-1,0.7-1,0.7
					c-0.2-0.2-0.2-2.8,0.5-2.1C123,182.5,123.4,183.8,123.4,183.9z M114.2,146.2l1.3-1.1c0.1,0.4-0.4,2.5-1,2.1L114.2,146.2z
					 M199.1,114.8c-0.1-0.1-0.3-0.1-0.6-0.2C198.7,114.7,198.9,114.7,199.1,114.8C199.1,114.8,199.1,114.8,199.1,114.8z
					 M199.1,114.8c-0.1-0.1-0.3-0.1-0.6-0.2C198.7,114.7,198.9,114.7,199.1,114.8C199.1,114.8,199.1,114.8,199.1,114.8z
					 M199.1,114.8c-0.1-0.1-0.3-0.1-0.6-0.2C198.7,114.7,198.9,114.7,199.1,114.8C199.1,114.8,199.1,114.8,199.1,114.8z
					 M199.1,114.8c-0.1-0.1-0.3-0.1-0.6-0.2C198.7,114.7,198.9,114.7,199.1,114.8C199.1,114.8,199.1,114.8,199.1,114.8z
					 M199.1,114.8c-0.1-0.1-0.3-0.1-0.6-0.2C198.7,114.7,198.9,114.7,199.1,114.8C199.1,114.8,199.1,114.8,199.1,114.8z
					 M199.1,114.8c-0.1-0.1-0.3-0.1-0.6-0.2C198.7,114.7,198.9,114.7,199.1,114.8C199.1,114.8,199.1,114.8,199.1,114.8z
					 M199.1,114.8c-0.1-0.1-0.3-0.1-0.6-0.2C198.7,114.7,198.9,114.7,199.1,114.8C199.1,114.8,199.1,114.8,199.1,114.8z"/>
				<path class="st1" d="M172.8,41.1c0.3,0.3-1,1.7-1.1,2.1c-1.6,3.2-1.7,2.8-4,5.3c-1.3,1.3-0.8,1.6-1.1,3c-0.1,0.5-6.1,7-7,8.1
					c-0.9,1-4.5,5.1-5.3,5.4c-0.3,0.1-0.9-0.2-1-0.1c-0.1,0.1,0,0.5-0.1,0.8c-0.1,0.1-1.4,1.1-1.4,1.2c-2.2,1.3-3.1,1.5-5.3,3.2
					c-1.1,0.9-4.4,2.1-3.3-0.2c0.7-0.4,5.3-4.4,5.3-4.8c0-0.3-0.6-0.4-0.9-0.4c-0.7,0.1-2,2-2.8,2.3c-1.1-0.9-0.3-1.6-0.2-2.3
					c0.1-0.8,0-2,0.5-2.8c0.3-0.4,1-0.4,1.1-0.6c0.2-0.2,0-0.8,0.3-1.1c0.3-0.3,1.2-0.3,1.4-0.6c0.2-0.3,0.1-0.9,0.3-1.3
					c0.7-1.5,2.7-2.3,3.9-3.1c0.7-0.5,3.1-2.6,3.7-2.8c0.9-0.2,2.2,0.3,3.4-0.4l5.1-5.2l1.2,0.2c1.1,0.8-1.7,1.5-1.8,1.6
					c-0.1,0.1-0.6,1.8-0.9,2c-0.1,0.1-0.6-0.4-0.7-0.2c0,0,0,0.5-0.1,0.7c-0.2,0.3-0.9,0.9-0.9,0.9c0,0.7,1.4-0.2,1.5-0.3
					c3.2-2.2,6.2-5.4,8.5-8.5C171,42.7,172.5,40.8,172.8,41.1z"/>
				<path class="st1" d="M150.4,73.9c-12.6,13.1-24.6,24.2-34.9,39.4c-3,4.4-6.2,10.9-9.9,14.6c-0.3,0.3-0.4,0.6-0.9,0.5
					c0.5-0.9,1-2.2,1.6-3.1c7.6-12.8,17.4-24.6,27.6-35.5c8.5-9,17.2-17.7,25.5-26.8c1.8-2,3.9-4,5.7-5.9c1.4-1.6,1.3-2.1,2.2-3.7
					c1.1-2.1,3.9-4.5,5.5-6.7c0.8-1,0.8-2.3,2.2-2.8c0.6,0.8-4.4,8-5.2,9.1c-3.9,5.4-8.7,9.9-13.2,14.6
					C154.5,69.7,152.4,71.8,150.4,73.9z"/>
				<path class="st1" d="M137.1,52.1c-0.5,0.6-1.3,1.4-1.8,1.9c-3.1,2.7-6.3,5.5-9.5,8.3c-0.5,0.5-0.8,1.4-1.7,1.4
					c-0.1,0-1.4-0.5-1.4-0.5c-0.6-0.8,1-1.3,1.4-1.5c3.5-2.8,6.2-5.4,10-8C135,53,135.3,51.7,137.1,52.1z"/>
				<path class="st1" d="M136.8,64.8l2.3-2.7c1-0.4,1.6-1.3,2.3-2c0.7-0.7,2.3-3.3,3.2-3.2c1.3,0.1-0.1,1.8-0.5,2.3
					c-1.2,1.4-4.7,4.2-6.3,5.3C137.5,64.6,137.4,64.9,136.8,64.8z"/>
				<path class="st1" d="M134,67.6c-0.5,0.4-0.8-0.6-0.3-1.2c0.7,0,2.1-1.7,2.5-1.6c1.8,0.4-1.7,2.1-1.9,2.2
					C134,67.1,134,67.6,134,67.6z"/>
				<path class="st1" d="M139.1,49.6c0.2,1,0,1.4-0.9,1.8C135.8,52.5,137.9,49.6,139.1,49.6z"/>
				<path class="st1" d="M113.6,70.9c0.3,0.3-1.2,2.5-1.8,2.1C111.8,72.7,113.3,70.6,113.6,70.9z"/>
				<path class="st1" d="M130.9,62.4c0,2-2.7,1.4-1.1,0.3C130.1,62.5,130.5,62.4,130.9,62.4z"/>
				<path class="st1" d="M117.8,67.3c0.3,0.3-1.2,1.9-1.8,1.5C115.6,68.5,117.4,67,117.8,67.3z"/>
				<path class="st1" d="M115.7,69.1c0.4,0.4-1.4,2.2-1.8,1.8C113.9,70.5,115.4,68.8,115.7,69.1z"/>
				<path class="st1" d="M167,139.1c1.8,1,3.1-0.6,3.5-0.6c0.2,0,1.9,0.8,1.9,0.9c0.1,0.2-0.2,0.7-0.1,0.8c0.3,0.3,1-0.9,1.5-1
					c0.2-0.1,1.8,0,1.9,0.1c0.1,0.1,1.4,2.1,1.6,2.4c0.8,1.2,0.5,0.7,1.1,1.3c0.1,0.1,0.7,2,1.1,2.5c0.1,0.1,1.1-0.4,0.7,1.3
					c1-0.3,0.2-2.8,0.5-3.1c0.5,0.3,0.8,0.3,1.3,0l-0.5,1.3c1.2,0,1.4,0.4,2.1,1.1c0.2,0.2,0.5,0.1,0.5,0.2c0.1,0.1-0.7,0.7-0.5,0.8
					c1.7-0.8,1.2,0.9,1.5,1.2c0.9,0.8,2.1,0.5,2.8,1.3c-0.5,0.4-1.3-0.5-1.5,0.4c1.1,0.2,2.2,1,3,1.8c1.6-1.4,2.3,1.5,4,0.8l0,1
					c1.2-1.1,1.9,0.5,3.2,0.5c0.2,0,1.6-1.6,0.9,0.5l1.8-0.3c0.2,0.5-0.5,0.8-0.5,0.9c0,0.5,1.5,0.6,1.5,0.7
					c0.1,0.1-0.3,1.3-0.1,1.6c0.2,0.3,1,0.2,1.1,0.7c0.1,0.3-0.1,1.5-0.2,1.6c-0.6,0.5-0.9-1.9-1.5-1.3c-0.5,0.4,0.5,0.5,0.5,0.7
					c0.1,0.3,0,0.7,0.1,1.1c0.3,0.7,1.2,1.2,0.6,2.3c-0.1,0-1.2-0.8-1.3-0.9c-0.6-0.8,0.3-0.9-1.5-0.9c0.6,1.4-0.1,0.9-0.3,1
					c-0.5,0.6,0.8,0.3,0.5,1c-1.2,0.2-1.9-0.7-3.1-0.3c-0.2,0.4,1.8,1.1,1,1.4c-0.8,0.3-1.1,0-1.8-0.1c0.5,0.7-0.2,0.5-0.6,1
					l-0.1-0.8l-1,0.3l-0.3-1.3l-0.6,0.5c-0.9-1.1-1.6-1.5-1.7-3.1l-0.5,0.3c0-1-0.9-1.3-1.6-1.8c-0.3-0.2-0.1-0.7-0.7-0.2
					c0.4-1.3-1-1.5-2.1-1.5c0.1-0.3,1.4-0.8,1.5-1.1c0.3-0.6-1.4-2.5-1.5-3.4c-1.3-1.6-1.6-2.7-3.2-4.1c-0.2-0.2-0.3-0.6-0.5-0.8
					c-0.6-0.3-0.8,1.5-1,1.7c0,0-0.7,0.8-0.7,0.8c-0.1,0.1-2.5-1.1-2.5-1c-0.5,0.5,0.8,0.5,0.5,0.8c-0.7,0.7-1.9,0.7-2.6,0
					c-0.7-0.7-0.2-1.2-0.2-1.4c0-0.2-0.3-0.1-0.4-0.3c-0.4-0.9,0.8-0.5,1-1.2l-2.3-0.3c0.3,0.5,0,1.1,0,1.4c0.1,0.5,0.5,0.7,0.5,0.8
					c0,0.1-0.3,0.5-0.6,0.1c-0.3-0.3-0.2-0.8-0.6-0.8l-0.1,1l-0.9-0.3c-0.1-0.5,0.5-0.1,0.8-0.3c0,0-0.2-0.5,0-0.7
					c-0.9,0.3-1.1,0.6-2.1,0.3c-0.1,0.1,0.5,1.7,0.5,2c0,0.1-0.8,0-0.2,0.6c-1-0.4-1.3,0.4-1.3,0.4c-0.1,0.1-0.9-0.3-1.2,0.1l0-1.2
					l-0.5,0.1l0.1-1.5c-0.5,0.4-0.7,1.1-0.6,1.8c-0.3,0.2-0.3-1.1-0.8-0.5c-0.1,0.1,0.2,0.8-0.1,0.8c-0.3,0,0.1-0.8-0.4-0.4
					c-0.5,0.8-0.5,1.2-1.5,1.4l0.8-1.3l-0.8,0.3c0.4-0.6,0.1-1-0.5-1.3c-0.4,0.9,0.1,1,0.3,1.8l-0.5,0.3l0.8,0.5
					c-1.4,0-2.2-0.7-3.6-0.3c-0.2-0.8,1.2-0.6,1.3-1.3l-0.8-0.1l0.3-0.6c-0.7,0.7-0.6-1-0.8,0.3c-0.9-0.2,0.1-1.7,0.8-1.8
					c0.1-0.3-1.1-0.5-1.2-0.5c-0.2,0-0.3,0.6-0.5,0.7c-0.1,0.1-0.2-1-0.6-0.5c-0.1,0.1,0.6,1.2,0.5,1.5c-0.8-0.1-1.2,0.1-1.8,0.5
					c-0.1-0.9,1.7-1.3,0.5-1.8c-0.1,1.3-1.9,0.6-2.7,0.5c-0.1,0-0.1,0.4-0.1,0.4c-0.2,0.1-0.5-0.2-0.8-0.2c-0.3,0.1-1.1,1-1.7,1
					l0.3-1l-1.5-0.3c0.5-0.9-0.4-1.6,0-2.6c-0.8,0.6-0.4-1-1.5-0.3c-0.1-1.1,0.9-0.4,1-0.5c0.6-0.4-0.5-2.4,0.7-2.8
					c0.3,0.9-0.1,2,0.5,2.8c0.4-1.4,0.9-0.8,1.8-1.3c0.5-0.3,0.9-1.4,1.6-1.8c1.6-1,3.6-2,5.2-3.2c0.3-0.2,0.4-0.9,0.9-1.1
					c0.7-0.3,1.7,0,2.6-0.2c0.6-0.2,0.5-0.6,0.5-0.7c0.4-0.3,0.7,0.5,1,0.6C166.3,138.7,166.3,138.7,167,139.1z"/>
				<path class="st1" d="M149.2,145.6c-1.4-0.3-1.5-0.9-2.5,0.3c-0.1,0.1,0.2,0.5-0.1,0.6c-0.3,0.2-0.6-0.1-1,0
					c-0.8,0.2-1,0.8-1.5,1c-0.5,0.3-2,0.5-2.1,0.6c-0.1,0.1,0.4,0.7,0.3,0.8c-0.3,0.1-1.6,0.5-1.8,0.7c-0.2,0.2-0.8,1.1-1,1.1
					c-0.5,0.1-1-0.3-1.4-0.2c-0.4,0.1-0.9,0.8-1.5,0.7c0.3,0.7,1.5-0.2,2.1,0c0.1,0.5-0.5,0.1-0.7,0.3c-0.1,0.1,0,0.6-0.1,0.7
					c-0.2,0.2-1.5,0-1.9,0l0.1-0.5c-1.6-0.2-0.9,1.5-1,1.5c-0.5,0.5-3.4-2.6-3.6-0.5l1,0.3c-0.6-0.1-1.3,0.1-1.9,0
					c-0.2,0,0-1-0.2-1.3c-0.9,0.2-3.7-0.2-4.2,0.5c-0.5,0.7-0.6,3.1-2,2.2c-0.2-0.1-0.7-1.2-1.5-0.5c-0.7,0.5,0.1,3.1-2.3,2v0.8
					c1.6,0.4,1.5-0.5,1.8-0.8c0.3-0.2,0.9,0.6,1,0.5c0,0,0.2-1.2,0.8-0.6c-0.9,1.8-2.6,1.5-3.9,2.6l0.8,0.1c0.3,0.4-1.2,1.2,0,1.5
					l0.3-0.5c-0.2,0.7-0.3,1.7,0.6,1.7c0.2,0,0.9-1.2,1.2-0.3c0,0.1-1.2,0.9-1.4,1.2c-0.2,0.4-0.3,1.7-0.4,1.8c-0.2,0.1-0.9-0.1-1,0
					c-0.3,0.2-0.2,2.3,1,2.1c0.3-0.6,0.1-1.5,0.2-1.9c0.1-0.3,0.6,0,0.8-0.3c0.3-0.3,0.2-1.2,0.2-1.7c0.9,0.7,1.2,0.5,1.3,1.6
					c0.2,1.6,1.7-1.7,1.8-2c0-0.1-0.9,0-0.5-0.6c0,0,0.7,0.3,0.9-0.3l-0.1,2.1c0.8-1.3,0.8-0.3,1.6-0.5c0.2,0,0.2-0.5,0.3-0.5
					c0.3,0,0.8,0.3,1.3,0.3c0.2,0,2.4-0.5,1.8,0.2c-0.2,0.2-0.6,0.2-0.6,0.3c-0.1,0.1,0.8,0.8,0.3,1.3c1.1-0.5,1.9-0.6,3.1-0.5
					c-0.2,0.5-0.7,0.1-1.3,0.6c-0.2,0.2-0.7,1.1-0.1,1.2c0.4,0.1,0.7-0.5,1.1-0.7c1.1-0.3,1.5-0.1,2.3,0.3c1.5,0.6,0.8-1.5,1.6-2.1
					c0.1,0,0.7,0.1,0.8-0.3l0.6,0.5l-0.3-2.6l0.4,1.5c0.1-0.5,1-1.2,1-1.5c0.1-0.4,0.1-1.5,0.1-1.6c0.4-0.6,0.5,0.7,0.8,0.5l1-3.1
					l1,0.3c-1.5-1.1-0.5-1-0.3-1.5c0.3-0.6,0.9-3,1.3-3.4c0.7-0.6,0.3,1.2,1,0.8c0.4-1.7-0.1-1.1-0.2-1.3c-0.6-0.8,0.6-0.3,0.7-0.3
					c0.2-0.1,0.7-1.6,1.4-2.1c0.2-0.2,0.7-0.1,0.7-0.2c0,0-0.2-0.4-0.1-0.8c0.3-1.3,1.3-0.4,1.4-0.5c0.2-0.2-0.3-0.9-0.2-1
					C148.5,146.1,149.2,146,149.2,145.6z M126.5,153.4c-0.2-0.2,0.6-1.3,1.2-1c0.1,0,0.6,0.8,0.8,1
					C128.2,153.3,126.7,153.5,126.5,153.4z"/>
				<path class="st1" d="M116.2,152.1c-0.2,0.1-1,0.6-1,0.5c-0.4-0.4,1.1-1,1-1.4c0.1-0.7-0.5-0.1-0.5-0.1c0-0.1,0.5-1.2,0.6-1.2
					c0.2-0.1,1.2,0,0.7-0.6c0,0-1,0.1-0.5-0.5c0.1-0.1,1.3-0.7,1.5-1.3c-0.1,0.6-0.3,1.9-0.5,2.4c-0.4,0.7-1.3,0.1-1,1.2
					c0.4,0.1,0.1-0.5,0.4-0.5c0.1,0,1,0.2,0.9,0.5C116.9,151.2,116.5,151.3,116.2,152.1c1-0.4,1.5-0.4,2.3-1.3c0,1.2-1.5,1.6-1,3
					l-0.5-0.1c-0.1,1.1,1.2,1.4,1,2.6c-0.6,0.3-0.5-0.6-0.6-0.5c-0.4,0.1-0.8,0.4-0.6,0.9c0.3,0.9,1.7-0.5,1.8-0.4
					c-0.2,1.2,0.6,0.7,1.5,0.8l-0.8,0.8l0.5,0.4l-0.8,1.4c-0.4,0.1-0.3-0.7-0.3-0.9c0.1-0.3,0.6,0,0.5-0.4l-0.8,0l0,1.8l0.5,0.1
					l-0.9,1.4l-0.4-0.8l-0.3,2.8l-0.8-2.2c1.2-1.4,0-2.2,0.5-3.8l0.5-0.1c-1.5-1.1-0.8-0.1-0.8,0.5c0,0.2-0.3,1-0.4,1.3
					c-0.2,0.5-0.5,0.4-0.5,0.6c-0.1,0.4,0.2,1.1-0.3,1.1l-0.3-1.8l0.5,0.3l0-1l-0.8-0.1c0.2-0.5,1.4-0.6,1-1.1c0-0.1-0.4,0-0.4-0.1
					c-0.2-0.3,0.6-1.2,0.7-1.6l-1-0.9c-0.5,1.3,0.3,1.3,0.3,1.4c-0.1,0.2-0.6,0.7-0.5,1.2l-0.3-1l-0.5,0.3l0-1l0.5,0.5
					c0.1-0.8-0.1-1.7,0-2.4c0.1-0.3,1-0.3,1.2-0.7C116.3,152.5,116.2,152.2,116.2,152.1z"/>
				<path class="st1" d="M179.2,138.8c0.1,0.1,0.1,0.4,0.5,0.6c0.6,0.4,1.4,0.8,2.1,0.8l-0.3,0.5c0.3,0,0.6-0.2,0.9-0.2
					c0.7,0,7.8,1.1,8.1,1.4c0.2,0.1,0.2,0.6,0.4,0.6c0.4,0.1,1.9-0.6,2.7-0.3l0,1c-3.6-0.4-7.3-0.5-10.8-1.4
					c-0.6-0.1-1.9-0.9-2.2-0.9c-0.2,0-0.2,0.8-0.6,0.8c-0.3-0.7-0.7-1.4-1.1-2.1c-0.1-0.3-0.9-0.4-0.4-1
					C178.8,138.7,179,138.6,179.2,138.8z"/>
				<path class="st1" d="M144.8,175c-0.5,1.3-1.4,2.2-1.8,3.5c-0.3,1,0.1,2.3-1.3,2.9l0.3-2.3c-1-0.1-0.6,1.6-0.5,2.1
					c-0.9-0.5-0.5-1.5-0.5-2.3l-0.5,0.8l0.3-2.8l-0.5,0.8l-0.5-0.5l0.5,0.9l-0.8,2.7c-0.4-0.7,0.2-1.5,0.2-2c0-0.6-0.8-0.5,0-1.6
					C140.1,176.3,144.3,174.4,144.8,175z"/>
				<path class="st1" d="M125.1,170c0.1,0.1,0.4,0.1,0.4,0.3c0,0.3-0.2,0.6-0.2,0.9c0.1,0.9,0.5,1.8,0.2,2.7l0.8-1.3
					c0.4,3.4-0.9,2-1.5,0l-0.3,1c-1.8-0.8-1-0.8-0.8-1.7c0.1-0.5,0.1-2.1,0.4-2.3c0,0,0.9-0.4,1-0.3
					C125,169.4,124.9,169.7,125.1,170z"/>
				<path class="st1" d="M159.2,165.7c0.3,0.4-2.2,1.2-2.3,1.3c-0.1,0.1-0.1,1.3-0.9,1.6c-0.7,0.2-0.8-0.1-1.1-0.1
					c-0.2,0-0.1,0.4-0.1,0.5c-0.1,0.1-0.5-0.3-0.5-0.4c0-0.2,1.5-2.9,1.7-3c0.1,0,1.4-0.2,1.5-0.2c0.1,0,0.3,1.3,0.5-0.3
					L159.2,165.7z"/>
				<path class="st1" d="M163.3,169.6c0,0,0.1,0.6,0.3,0.9c0.1,0.2,0.5,0.1,0.5,0.3c0,1.9-1.7,3.3-0.5,1c-0.6-0.5-0.7,0.6-0.8,1.2
					l-0.3-0.5c-1.1,1.1-0.9-0.4-1.8-0.9C161.3,171.3,162.8,169.2,163.3,169.6z"/>
				<path class="st1" d="M167.2,173.9c0.2,0.3,1.1,0.3,1,1.2c0,0.2-0.4,0.2-0.5,0.3c-0.2,0.4-0.6,1.9-0.9,1.9
					c-0.2,0-0.3-0.7-0.4-0.8c-0.6-0.5-0.4,0.6-0.8,0.5c0-0.3-0.1-3.2,0.8-2.6l0.3,0.5c-0.5-1.1,0.3-0.8,0.3-1.8
					C167.4,173.1,167.1,173.7,167.2,173.9z"/>
				<path class="st1" d="M114,177.5c0.7,0.8,0.6,1,1.1,1.9c0.3,0.7,1.1,0.5,0.1,1.6c1.3-0.5,1.1,0.2,1.5,1.3l-2.6-1.9
					c-0.1-0.3,1-0.7,0.3-1.4c-0.6-0.5-0.4,0.6-0.8,0.5l-0.3-2.6C113.7,176.9,113.8,177.3,114,177.5z"/>
				<path class="st1" d="M187.5,185.3c0-0.4,0-0.7,0.1-1.1c0.2-0.6,1.3-1.3,0.3-1.5c-0.8-0.1-0.5-1,0-0.8c0.6,0.2,1,1.8,1.7,2.2
					l-1.3-0.1c-0.1,0.4,0.6,0.3,0.7,0.6c0,0.2-0.4,1-0.2,1.4c0.6-0.4,0.5-1.5,1.3-1.8c0.3,0.7-0.5,1.3-0.5,1.7
					c0,0.2,0.6,0.1,0.5,0.3c-0.4,1.4-1.4,2.7-1.6,0.4l-0.5,0.3c-0.1-0.4,0.1-1.3,0-1.5C187.9,185.2,187.6,185.4,187.5,185.3
					c0,0.8,0.6,2.5,0.5,2.6c-0.1,0.1-0.4-0.3-0.6-0.3c-0.1,0-0.2,1-0.7,0.5c-0.1-0.1,0.5-0.8,0.5-0.9c0-0.1-0.4-0.5-0.5-0.4
					c-0.1,0.1,0.2,0.6-0.3,0.5c-0.5-1.3-0.5-2,0.4-3.1C187.1,184.9,187,184.9,187.5,185.3z"/>
				<path class="st1" d="M171,172.9c0.3,0.9-0.2,2.6,0.5,3.2c0.2,0.2,0.8-0.3,0.8,0.8c0,0.4-0.9,0.9-1.2,1.1
					c0.2-1.1-0.6-2.1-0.7-3.2c0-0.5,0.2-0.8,0.1-1.6C170.5,172.8,170.6,173,171,172.9z"/>
				<path class="st1" d="M125.2,178.9c0.1,0.1,0.8,1.7,0.8,1.9c0,0.4-0.6,0.4-0.5,0.9c-0.4,0.2-2.2-2.8-0.9-3
					C124.7,178.7,125.1,178.8,125.2,178.9z"/>
				<path class="st1" d="M157.4,173.7c-0.1,1-0.9,1.2-1.3,1.7c-0.2,0.3-0.5,1.4-0.7,1.4c-1.1-0.1,0.2-2.9,0.4-3.1
					C155.9,173.7,157.1,174,157.4,173.7z"/>
				<path class="st1" d="M124.5,177.6c0.2-1.1-0.4-0.6-0.7-0.8c-0.5-0.3,0.1-2.1-0.3-2.8C124.4,174.6,126.1,176.9,124.5,177.6z"/>
				<path class="st1" d="M127.5,175.8c-1.1,1.3-0.3,2-0.3,3.3l-0.8,0l0-0.8c-1.2,0.9-0.3-2.3,0-2.5
					C126.8,175.7,127.2,175.8,127.5,175.8z"/>
				<path class="st1" d="M163.1,166.3c0.1,0,0.1-0.9,0.7-1c0.6-0.1,1.9,0.3,1.4,1c-0.1,0.1-1.9,0.5-1.8,1.6l-0.8-1.8
					c-0.5,0.3-0.5,0.7-1.1,1c-0.4,0.2-0.8,0-1.2,0.2l1-2.1C161.9,164.8,162.9,166.4,163.1,166.3z"/>
				<path class="st1" d="M150.2,174l-1.1,1.7l-1.2,1l1.8-0.9c0.2,2.3-1.1,1.3-2,2c-0.5,0.4-0.3,0.9-0.8,1.1c0.2-0.4,0-1.4,0.1-1.6
					c0.1-0.3,1.4-1.1,1.6-1.7c0.1-0.3-0.2-0.9-0.1-1C148.4,174.4,149.9,174,150.2,174z"/>
				<path class="st1" d="M123.2,163.4c-0.4,0.5,0,1.3-0.2,1.7c-0.1,0.4-0.7,0.4-0.8,0.7c-0.1,0.7,0.9,2-0.6,1.7
					c0.1-1.4,0.2-2.4,0.9-3.6C122.7,163.6,122.5,163.3,123.2,163.4z"/>
				<path class="st1" d="M198,185c-0.1,0-0.7,0-0.8,0c-0.5-0.5,0.8-3.2,1.5-3.6C198.6,182,198.2,184.9,198,185z"/>
				<path class="st1" d="M160,176.6c-0.5,1.2,0.2,1,0.3,1.2c0.1,0.4-0.2,1.5-0.8,1.6l-0.1-0.5c-0.2,0.1-0.8,0.9-0.9,0.8
					c-0.5-0.6,0.8-1,0.9-1.5C159.4,177.8,158.3,176.8,160,176.6z"/>
				<path class="st1" d="M152,153.3c0,0,1-0.4,0.5,0.3c0,0-0.3,0-0.5,0.2c-0.5,0.6-1.9,2.8-1.3,0.8l-0.8-0.1
					c0.6-0.8,1.5-0.7,1.9-1.7C152.1,152.8,151.9,153.2,152,153.3z"/>
				<path class="st1" d="M122.4,169.6c0.4,0.2,1-2.1,1.3-0.9c0.1,0.5-1,1.6-0.8,2.4l-0.3-1.3c-0.5-0.1,0,0.6-0.5,0.5
					c-0.3-0.8-0.4-1.6,0.5-2.1L122.4,169.6z"/>
				<path class="st1" d="M172.6,174.2l0.3-0.5c0,0.4,0,1.4-0.5,1.5c-0.7-1.6-1.7-2.2-0.1-3.9C172.5,172.3,171.4,173.6,172.6,174.2z"
					/>
				<path class="st1" d="M114.9,159.3c-0.3,0.8,0.2,1.4,0.2,2.2c0,1.7-1.1,1.6-1-0.4C114.2,160.7,114.3,159,114.9,159.3z"/>
				<path class="st1" d="M170.5,166.3c-0.1,0.1-0.6-0.3-0.8-0.1c-0.2,0.1-1,1.6-0.8,2c-2.3,0,0.5-2.5,0.9-2.6
					C170.3,165.4,170.7,166.1,170.5,166.3z"/>
				<path class="st1" d="M119.6,166.3c-2.2-0.3-0.3-1-0.3-1.1c0.1-0.5-0.6-2.1,0.2-2.7L119.6,166.3z"/>
				<path class="st1" d="M124.2,152.9l0.1-0.8l-0.8,1.3c-0.5-1,0.6-2.1,1.4-2.6C125.2,151.6,125.4,152.8,124.2,152.9z"/>
				<path class="st1" d="M151.2,175.3c-0.3,1.5,1.4,1.3-0.5,2.6l0.3-1c-0.6-0.3-0.7,1.3-1,0.1L151.2,175.3z"/>
				<path class="st1" d="M186.7,188.9c0,0,0.5,0.6,0.5,0.7c0.1,0.9-0.4,1.3-1.3,1.1C185.9,190.3,186,188.5,186.7,188.9z"/>
				<path class="st1" d="M167.4,178.4l1.3-2.8C169.1,176.7,168.7,178,167.4,178.4z"/>
				<path class="st1" d="M182.4,184.8c0.1,0.1,0.6-0.2,0.5,0.3c-1.4,0.8-1.1-1.6-0.8-2.6C183.2,182.8,182.2,184.6,182.4,184.8z"/>
				<path class="st1" d="M186.7,183c-0.7,0.1-0.4-0.2-0.5-0.6c-0.2-0.6-0.3-1.3-0.2-2C187.6,180.7,186.4,182,186.7,183z"/>
				<path class="st1" d="M180.3,172.2c0.8,0.5-0.4,1.3-0.3,2l-0.9-2.1C179.4,172.2,180,172.1,180.3,172.2z"/>
				<path class="st1" d="M174.6,173.5c-0.5,0.8,0.3,1.5,0.3,2.3l-0.8-0.8l-0.3,1C173.8,175.8,173.8,172.8,174.6,173.5z"/>
				<path class="st1" d="M185.7,183c0,0,0.5,0.8,0.5,0.9c0,0.5-0.2,0.9-0.3,1.4C185.3,185.1,184.8,182.4,185.7,183z"/>
				<path class="st1" d="M178.8,174.8c-0.8-0.5-0.8-1.7-0.8-2.6C179,172.9,179.1,173.7,178.8,174.8z"/>
				<path class="st1" d="M113.7,169.5c0.1,0.2,0.4,0.1,0.5,0.6c0.3,0.8-0.4,2.1-0.6,0.9c-0.1-0.7-0.1-1.3-0.5-2.1
					C113.2,167.9,113.7,169.4,113.7,169.5z"/>
				<path class="st1" d="M158.9,174.5c-0.7,0.6-1-1.6-0.5-2.1C159.3,172.5,159.2,174.2,158.9,174.5z"/>
				<path class="st1" d="M122.2,148.2c0.1,0.1,0.5-0.1,0.4,0.3c-1.8,0-1.1-1.4-0.8-2.6C122.4,146.1,122.1,148,122.2,148.2z"/>
				<path class="st1" d="M163.6,155.7c0.2,1.2-1.4,1.4-2.3,1.3c0.1-0.8,1.3-0.4,1.5-0.5C163,156.3,162.4,155.4,163.6,155.7z"/>
				<path class="st1" d="M113.4,168.1c-1.3,0-0.4-1.8-0.8-2.6C113.4,166,113.5,167.2,113.4,168.1z"/>
				<path class="st1" d="M111.3,175.5c-0.8-0.5-1.1-2-0.4-2.6C111.4,173.7,111.4,174.7,111.3,175.5z"/>
				<path class="st1" d="M153,172.4c0.4,0.3-0.8,0.8-0.8,1.1l-1,0.7c0.1-0.3,0-1.2,0.1-1.3C151.4,172.9,153,172.4,153,172.4z"/>
				<path class="st1" d="M126.8,172.9l-0.8-2.8C127.2,170.9,127,171.8,126.8,172.9z"/>
				<path class="st1" d="M199.9,110.1c-0.5-0.1-1.9,0.2-2.3,0c0,0-0.3-0.7-0.3-0.7c0.2-0.1,0.9,0.2,0.8-0.3
					c-1.2,0.2-1.2-1.2-1.6-1.9c-1.1-2.1-2.4-4.6-3.5-6.9c-0.7-1.4-1.3-2.8-2.1-4.2l0.9,0.5C194.6,101.1,197.3,105.5,199.9,110.1z"/>
			</g>
			<path class="st1" d="M85.8,131.5c3.2-12.4,8.4-24.4,15.5-35.1c3.2-4.9,6.5-9.7,10.1-14.2c11.7-14.6,26-26.9,41.7-37
				c0,0,0.1,0.1,0.1,0.1c-3.8,2.8-7.4,5.6-11,8.5c-14.2,11.9-28.4,24.3-38.6,39.9c-4.7,7.3-8.5,15.2-12,23.2
				C89.4,121.7,87.6,126.6,85.8,131.5L85.8,131.5L85.8,131.5z"/>
			<path class="st1" d="M122.3,84.1c2.3-3.2,4.8-6.2,7.5-8.9c1.4-1.4,2.9-2.6,4.3-3.9c2.8-2.6,5.7-5.4,8.7-7.8
				c4.5-3.7,8.8-7.6,13.2-11.4c0,0,0.1,0.1,0.1,0.1c-3.8,4.5-8,8.5-12.7,12c-3.1,2.4-6.4,4.5-9.1,7.2c-1.3,1.3-2.7,2.9-3.9,4.3
				c-1.1,1.3-2.8,3-4,4.2C125.1,81.4,123.8,82.8,122.3,84.1L122.3,84.1L122.3,84.1z"/>
			<path class="st1" d="M91.2,153.8c-1-10.6,2.2-21.6,7.5-30.8c2.3-4.1,5.3-7.7,8.3-11.3c7.1-8.8,14.4-17.6,22.7-25.3
				c11.6-10.8,23.1-22.2,33.5-34.3c0,0,0.1,0.1,0.1,0.1c-3.2,4.2-6.7,8.3-10.2,12.3c-3.5,4-7.2,7.9-11,11.6
				c-7.7,7.4-15.8,14.4-23.1,22.1c-5.5,5.8-10.6,12-15.3,18.5c-6.1,8.6-10.5,18.6-11.9,29.1c-0.4,2.6-0.6,5.3-0.5,7.9L91.2,153.8
				L91.2,153.8z"/>
		</g>
		<path class="st1" d="M119.3,213.7l-0.1-0.1c-4.4-2-8.5-4.4-12.4-7.2c-17.6-12.8-25-31-27.8-40.6c-3.4-11.7-4.1-23.9-1.9-36.5
			c1.8-10.2,5-17.9,6.3-21.1c6.2-15,15.4-25.3,28-39.5c2-2.2,8-9.1,17.2-16.4c4.1-3.3,9.1-6.3,19.1-12.4c4.4-2.6,9.3-5.6,14.6-4.7
			c1.5,0.3,3.9,1.1,6,2c2.4,1,4.2,1.8,6.2,3.6c0.3,0.3,0.5,0.5,0.7,0.7c0.2,0.3,0.5,0.5,1,1c1.8,1.6,3.3,2.6,3.9,3
			c1.4,0.9,2.9,1.9,4.2,2.8c2.6,1.7,5.2,3.4,7.9,5c23.7,13.9,35,32.4,35.1,32.6c5.2,8.6,11.2,23.1,10.2,43.2
			c-0.9,18.9-8.3,32.2-12.8,40.1c-8.1,14.4-19.3,26.7-33.3,36.6l-0.1,0.1L119.3,213.7z M160.1,36c-3.8,0-7.4,2-11.9,4.7
			c-10,6.1-15,9.1-19,12.3c-9.1,7.3-15.1,14.1-17,16.3c-12.5,14.1-21.6,24.4-27.8,39.2c-8.2,19.8-9.7,38.9-4.4,57
			c2.8,9.5,10.1,27.4,27.5,40.1c3.7,2.7,7.8,5.1,12.1,7l71.6-7.8c13.8-9.7,24.9-21.9,32.9-36.2c4.4-7.9,11.8-21,12.7-39.7
			c0.9-19.9-5-34.1-10.1-42.6c-0.1-0.2-11.3-18.5-34.7-32.3c-2.7-1.6-5.3-3.3-7.9-5c-1.4-0.9-2.8-1.9-4.2-2.8
			c-0.7-0.4-2.2-1.4-4.1-3.1c-0.5-0.5-0.8-0.8-1.1-1c-0.2-0.2-0.4-0.4-0.7-0.7c-1.9-1.7-3.7-2.4-5.9-3.4c-2.1-0.9-4.3-1.7-5.8-1.9
			C161.4,36.1,160.7,36,160.1,36z"/>
		<path class="st1" d="M172.8,117.1c-0.2,0.2-0.4,0.4-0.5,0.6c-0.1,0.1-0.1,0.2-0.2,0.3c0-0.1,0.1-0.2,0.2-0.4
			C172.4,117.4,172.6,117.3,172.8,117.1z"/>
		<path class="st1" d="M199.3,129.3c-1.1-0.1-1-0.5-0.1-0.9c-0.3-0.8-0.5-0.6-1.3-0.8c2.8-1.4,1-1.5,0.1-2.8c-0.2-0.3-0.2-1-0.4-1.1
			c-0.1-0.1-0.5,0-0.6-0.1c-0.1-0.1-0.1-0.7-0.3-1.1c-0.1-0.3-3-2.8-3.2-2.9c-0.4-0.2-1.3-0.2-1.3-0.3c-0.1-0.1,0-0.6-0.1-0.7
			c-0.2-0.2-0.9,0.1-1,0c0,0,0-0.9,0-1c0.1-0.1,0.8,0,1-0.4l-0.8-0.3l0.8-0.6c-0.3,0.1-0.5,0.1-0.6,0c-0.1,0-0.2,0.1-0.2,0.1
			c-1.8,0.4-3.7,0-5.6,0.4c-0.3,0.1-0.6,0.2-1,0.2c0.1,0.3,0.2,0.5,0.2,0.6c-0.6-0.1-1.3,0.1-1.5,0.8l0.8,0.3
			c-0.5,0.2-1.4,0.3-1.9,0.6c-0.4,0.2-1.4,1.4-1.7,1.6c-0.2,0.1-0.6-0.1-0.9,0.1c-0.3,0.2-0.3,0.7-0.4,0.8c-0.1,0-1.2-0.2-1.2-0.2
			c-0.1-0.1,0.1-0.9,0-1c-0.1-0.1-1.4,0-1.7-0.5c-0.2-0.3,1.1-2.2,0.3-2.8c-0.2-0.2-0.8,0.2-0.7-0.3c1.6,0.3,2.7,0.6,2.6-1.5
			c1.1,1.3,1.7,0.3,2.4,0.3c0.3,0,0.6,0.4,0.8,0.4c0.3,0,0.9-1.1,1.8-0.6c0.2,0,0.3-0.1,0.5-0.1c1.5-0.1,3-0.3,4.5-0.4
			c0.2,0,0.4,0,0.7-0.1c0-0.1,0-0.3,0-0.4c0-0.1,2.4-0.7,2.8-0.7c-0.3,0.8-0.8,0.6-1.5,0.5c0.1,0.4,0.9,0.8,1.3,0.9
			c0.9,0.2,2.7-0.5,2,0.6c1.5-0.4,2.6,0.6,4.1,0.5c0,0.6-1.1,0.3-1.3,0.5c-0.6,0.8,1.8,0.5,2,0.5c0.1,0.4-2,0.2-1.5,0.8
			c0.2,0.2,3.3,0.5,2.8-1l-0.8-0.3l0.8-0.8l-4.3-0.5c-0.2-0.3,1.1-0.3,0.5-0.8c-0.1-0.1-2.5,0.1-3.1-0.3c0.1-0.6,1.3-0.1,1.5-0.3
			c0,0-0.2-0.4-0.1-0.5c0.7-0.8,2.2,0.5,2.7-0.5c-2.3-0.1-4.5,0.1-6.8,0.5c-0.4-0.2,0.8-0.7,0.8-0.7c0.5-0.1,0.9,0.1,1.3,0.1
			c0.3,0,1.5,0,1.5-0.4c-3.2-0.1-6.5-0.3-9.7,0c-2.3,0.4-4.9,0.9-7.2,1.5c-0.2,0.2-0.7,0.5-0.8,0.8l1-0.3c0,1.2-1.7,1-1.8,1
			c-0.1,0.1,0,0.5-0.1,0.6c-0.5,0.6-1.2,1-1.2,2c0,1.5,2,1.8,1.3,3.3c-0.2,0.3-0.7,0.1-0.4,0.4c0.6,0,2,1.2,2.1,1.3
			c0.8,0.2,1.8-0.2,2.6,0.3c-0.4,0.5-0.9,0.8-1.3,1.4c-0.1,0.2-0.5,0.3,0,0.5c1,0.5,3.9,0.6,5.1,0.4c-0.2-0.9-1.2-0.5-1.5-1
			c1.1-0.1,1.5-1.4,2.8-1.3c0,0.7,0.3,1.3,0.4,2c0,0.3-0.2,0.7-0.2,0.8c0.1,0.2,4,1,4.5,1c1,0,2.4-0.9,2.1,0.5
			c-1-0.4-2.2,0.1-3.2,0.2c-0.6,0.1-1.3-0.6-1.6,0.3c0.7-0.1,0.4,0.7,0.7,0.8c0.6,0.2,1.4-0.2,2-0.2c0.6,0,2.4,0.4,2.5,0.4
			c0.6-0.1,0.9-1.2,1.1-1.2c2.1-0.2,5,3.5,6.6,3.3c0.5-0.1,1.7-2,1.7-2.2C201.7,128.7,199.7,129.4,199.3,129.3z M185.2,113l1.6,0
			c-0.1,0.4-1.4,0.7-1.7,0.7c-0.6,0-1.2-0.3-1.9-0.2L185.2,113z M191.8,121.1c-0.1-0.1,0.1-0.4-0.2-0.5c-0.6-0.1-0.3,0.4-0.4,0.4
			c-0.7,0.5-1.4-0.4-1.8-0.4c-0.9,0-4.7,0.9-5.7,1.1c-0.9,0.2-1.3,1-2.6,0.3c2.3-2.5,6.3-3.7,9.6-2.6c0.3,0.1,1.8,1.1,1.8,1.2
			C192.5,120.9,192,121.3,191.8,121.1z"/>
		<path class="st1" d="M130.3,121.1c-0.1,0.1-1.6,0.8-1.7,0.8c-1.4,0.2-0.5-1.2-0.2-1.3c0.3,0,0.6,0.2,1,0.2
			C129.7,120.8,131.1,119.9,130.3,121.1z"/>
		<path class="st1" d="M132.7,118.1c0,0.3-1.4,0.7-1.5,0.7c-0.3,0-2.1-1.2-1.4,0h-1.3v-1c1,0.6,0.7-0.2,0.9-0.3
			C130.2,117.4,131.8,118.4,132.7,118.1z"/>
		<path class="st1" d="M134.7,117.3l-3.1-0.3c-0.1-0.1,0.5-0.7,0.5-0.9c0.1-0.2-0.9,0-0.3-0.5l1.8,0.1l-1,0.5c0.5,0.1,1,0.3,1.5,0.5
			C134.5,116.9,134.9,116.5,134.7,117.3z"/>
		<path class="st1" d="M139.4,114.2c-0.3,0.5-1.4,0.7-1.9,0.8c-0.8,0.1-1.4,0-2.2,0c0.1-0.5,0.8,0,0.3-0.8
			C136.9,114.7,138,114.3,139.4,114.2z"/>
		<path class="st1" d="M142.5,113.7l-1.4,0.2l-2.2-0.4C139.9,113.1,141.9,112.5,142.5,113.7z"/>
		<g>
			<path class="st1" d="M204.2,129.1c-0.1,0.1-0.4,0.4-0.6,0.8c-0.2,0.3-0.1,0.7-0.6,0.2c-0.2-0.2-1.8-4-0.9-4.3
				c1.1-0.3,1.1,1,1.4,0.8c-0.2-0.8,1.1-0.6,1.3-0.8c0.1-0.1,0-0.7,0.1-1c0.1-0.3,0.4-1.2,0.7-1.2
				C205.5,125.3,205,127.5,204.2,129.1z"/>
			<path class="st1" d="M198.8,129.7c1,2.6-2.5-0.2-2.5-0.4C196.2,128.6,198.6,129.7,198.8,129.7z"/>
			<path class="st1" d="M148.9,116.3c0,0-0.2,0.4,0,0.6c0.1,0.1,2.3,2.4,2.5,2.4c2.7,1.6,2.8-1.3,4.8-2.1c0.2,1.8-0.5,4.7-2.6,4.6
				l0.3-0.5c-1.3-0.3-2.9-0.4-3.1-2l-0.4,0.2c-1.4-2.6-5.1-2.9-7.8-2.5c-1.2,0.2-4.3,1.1-4.3,2.5c-0.2,0.1-0.4-0.5-0.8-0.4
				c-0.3,0.1-2.6,2.2-2.3,2.5c0.6-0.3,1.7,0,2.1-0.2c0.3-0.1,0.1-0.6,0.3-0.8c0.4-0.3,1.5-0.2,2-0.5c0.9-0.5,0.6-0.3,1.5-0.7
				c0.4-0.2,1-0.7,1.3-0.8c0.1,0,2.3,0.1,2.7,0.2c0.3,0,2.9,0.7,3,0.8c0.1,0.1,0,0.5,0,0.7l0.4-0.5l2.2,1.5c0.2,0.8,0.9,0.5,1.2,0.7
				c0.3,0.2,1.4,1.6,1.1,2c-0.4,0.5-0.5-0.4-0.6-0.4c-0.7-0.4-1.2-0.1-1,0.7c1.7-0.2,1.6,0.9-0.1,0.9c-0.3,0-2.7-0.3-2.8-0.4
				c0,0,0.6-1.3-0.1-1.3c-0.4,0-0.3,1.1-0.5,1.3c-0.3,0.2-3.4,0.8-3.8,0.7c-1-0.2-2.2-1.9-2.3-2.9c0-0.7,0.6-1.2-0.1-1.7
				c-0.9,0-1.2,1.1-1.7,1.4c-0.6,0.4-1.6,0.1-2.1,1.2c-0.1,0.3,0,0.7-0.2,1c-0.4,0.4-2.1,0.8-2.8,0.8c1,0.3,2.2,0.6,3.6,0.7
				c1.9,0.2,3.6,0.1,4.9-0.1c-1.6,0.4-2.9,0.6-3.9,0.6c-1.5,0.1-3-0.1-3.4,0.6c-0.1,0.2-0.1,0.4,0,0.5c-2.8-1.5-5-0.5-7.7,0.8
				c-0.4-1.2,1.3-1.9,1.5-2.7c0.2-0.6-0.3-0.3-0.6-0.4l-0.2-0.5c0.6,0,1.2,0,1.5-0.6c-0.5-0.7-0.5-1.1-0.2-1.9l-1.3,0.3l0.8-0.9
				c1.1,0.7,2.4,0,3.6-0.2l0-0.6c1.5,0,1-0.6,1.3-1c0-0.1,0.9,0.2,1.2-0.4c0.1-0.2,0-0.6,0.1-0.7c0,0,0.4,0.2,0.8,0.1
				c1.3-0.3,3.5-1.7,5.2-2.2c0.2-0.1,0.2-0.5,0.3-0.5c2.1,0,3.4,0.1,5.5,0.4C148.1,116.5,148.7,116.2,148.9,116.3z"/>
			<path class="st1" d="M134,112.4c0.1,1.6-1.3,1.8-2.6,1.5l0.5,1c-1.1-0.3-1.7-0.2-2.6,0.5c-0.3-0.4,2-2.7,2.8-1.8l-0.3-0.8
				L134,112.4z"/>
			<path class="st1" d="M147.3,112.8c0.1,0,0.3,0.6,0.6,0.4l-0.8,0.3l0.3,0.5c-1.4-0.7-2.7,1.2-3.9-0.4
				C145.2,113.4,145.5,112.3,147.3,112.8z"/>
			<path class="st1" d="M155.1,114.3c0.4,0.6-0.5,0.9,1.3,0.4l-0.5,0.3c0.6,1.1-1.6,0.3-1.1-0.5L154,115l-0.2-0.5
				c-0.7,0.3-1,0.2-1.5-0.4C152.7,113.3,154.8,113.9,155.1,114.3z"/>
			<path class="st1" d="M152,113.2l-1,1.1l-0.5,0.2c0.1-0.7-0.5-1-0.8-1.5L152,113.2z"/>
		</g>
	</g>
</g>
<g>
	<g>
		<g>
			<path class="st3" d="M380.5,114.4h-19.2V65.4h18.5c4.8,0,9,1,12.7,3.1c3.6,2.1,6.5,5,8.6,8.7c2.1,3.7,3.1,8,3.1,12.8
				c0,4.8-1,9-3,12.6c-2,3.7-4.8,6.5-8.3,8.6C389.3,113.3,385.2,114.4,380.5,114.4z M372,70.3v39.3l-5.1-5.2h12.5
				c2.8,0,5.2-0.6,7.2-1.7c2-1.1,3.5-2.8,4.6-5s1.6-4.7,1.6-7.7c0-3.1-0.6-5.7-1.7-7.9c-1.1-2.2-2.7-3.9-4.8-5
				c-2.1-1.2-4.6-1.8-7.6-1.8h-11.8L372,70.3z"/>
			<path class="st3" d="M422.3,114.4h-10.7V65.4h18.9c5.9,0,10.5,1.4,13.8,4.1c3.2,2.8,4.9,6.7,4.9,11.7c0,3.2-0.7,5.9-2,8.1
				c-1.3,2.2-3.4,4.1-6.1,5.5l8.6,19.4h-11.7l-7.3-17.1h-8.3V114.4z M422.3,75v12.9h8.1c2.3,0,4.2-0.6,5.5-1.7
				c1.3-1.1,1.9-2.8,1.9-4.8c0-2.1-0.6-3.6-1.9-4.7c-1.3-1.1-3.1-1.6-5.5-1.6H422.3z"/>
			<path class="st3" d="M461.5,115.2c-1.7,0-3.1-0.6-4.3-1.8c-1.2-1.2-1.8-2.6-1.8-4.2c0-1.7,0.6-3.1,1.8-4.3
				c1.2-1.2,2.6-1.8,4.3-1.8c1.6,0,3.1,0.6,4.3,1.8c1.2,1.2,1.8,2.6,1.8,4.3c0,1.6-0.6,3-1.8,4.2
				C464.6,114.6,463.1,115.2,461.5,115.2z"/>
			<path class="st3" d="M504.7,114.4h-10.4V65.4h10.4l14.5,36.5l14.6-36.5h10.5v48.9H534v-10.2c0-2.6,0-4.8,0-6.5
				c0-1.7,0-3.1,0.1-4.3c0-1.1,0.1-2.1,0.2-3s0.2-1.8,0.3-2.7l-10.4,26.8h-9.8L504,87.6c0.3,1.8,0.5,3.8,0.6,5.9
				c0.1,2.1,0.1,4.5,0.1,7.2V114.4z"/>
			<path class="st3" d="M561.2,114.4H550l17.5-48.9h10.4l17.4,48.9h-11.4l-3.4-10.3h-15.8L561.2,114.4z M571.3,84.6l-3.5,10.4h9.7
				L574,84.6c-0.3-0.8-0.5-1.7-0.8-2.6c-0.3-0.9-0.4-1.6-0.5-2.2c-0.1,0.6-0.3,1.3-0.5,2.1S571.6,83.7,571.3,84.6z"/>
			<path class="st3" d="M611.6,114.4H601V65.4h10.6l23.9,36.1h-3.3V65.4h10.6v48.9h-10.6l-23.9-36h3.3V114.4z"/>
			<path class="st3" d="M663.3,114.4h-10.4V65.4h10.4l14.5,36.5l14.6-36.5H703v48.9h-10.4v-10.2c0-2.6,0-4.8,0-6.5
				c0-1.7,0-3.1,0.1-4.3c0-1.1,0.1-2.1,0.2-3s0.2-1.8,0.3-2.7l-10.4,26.8H673l-10.3-26.8c0.3,1.8,0.5,3.8,0.6,5.9
				c0.1,2.1,0.1,4.5,0.1,7.2V114.4z"/>
			<path class="st3" d="M758.4,89.8c0,5-1,9.4-3,13.2c-2,3.8-4.8,6.8-8.5,8.9c-3.6,2.1-7.8,3.2-12.6,3.2c-4.7,0-8.9-1.1-12.5-3.2
				c-3.6-2.1-6.4-5.1-8.4-8.9s-3-8.2-3-13.2c0-5,1-9.4,3-13.2c2-3.8,4.8-6.8,8.4-8.9c3.6-2.1,7.7-3.2,12.5-3.2
				c4.8,0,8.9,1.1,12.5,3.2c3.6,2.1,6.4,5.1,8.4,8.9C757.4,80.5,758.4,84.8,758.4,89.8z M747.1,89.8c0-3.1-0.5-5.8-1.5-8
				c-1-2.2-2.5-3.9-4.3-5.1c-1.9-1.2-4.1-1.8-6.8-1.8c-2.6,0-4.9,0.6-6.8,1.8c-1.9,1.2-3.3,2.9-4.4,5.1c-1,2.2-1.5,4.9-1.5,8
				c0,3.1,0.5,5.8,1.5,8.1c1,2.2,2.5,4,4.4,5.2c1.9,1.2,4.2,1.8,6.8,1.8c2.6,0,4.9-0.6,6.8-1.8c1.9-1.2,3.3-2.9,4.3-5.2
				C746.6,95.6,747.1,92.9,747.1,89.8z"/>
			<path class="st3" d="M776.6,114.4h-10.7V65.4h10.7v19.3h18.9V65.4h10.7v48.9h-10.7V94.7h-18.9V114.4z"/>
			<path class="st3" d="M823,114.4h-11.2l17.5-48.9h10.4l17.4,48.9h-11.4l-3.4-10.3h-15.8L823,114.4z M833.1,84.6l-3.5,10.4h9.7
				l-3.5-10.4c-0.3-0.8-0.5-1.7-0.8-2.6c-0.3-0.9-0.4-1.6-0.5-2.2c-0.1,0.6-0.3,1.3-0.5,2.1S833.4,83.7,833.1,84.6z"/>
			<path class="st3" d="M873.4,114.4h-10.6V65.4h10.6l23.9,36.1H894V65.4h10.6v48.9H894l-23.9-36h3.3V114.4z"/>
			<path class="st3" d="M929.6,79.6c0-3,0.8-5.6,2.3-7.8c1.5-2.3,3.7-4.1,6.4-5.4c2.7-1.3,5.8-2,9.3-2c3.5,0,6.6,0.6,9.1,1.9
				c2.6,1.2,4.5,3,5.9,5.2c1.4,2.2,2.1,4.9,2.1,8H954c0-1.7-0.6-3.1-1.8-4.1c-1.2-1-2.8-1.5-4.8-1.5c-2.2,0-3.9,0.5-5.2,1.4
				c-1.3,0.9-2,2.2-2,3.8c0,1.5,0.4,2.6,1.2,3.4c0.8,0.8,2,1.4,3.8,1.7l7.3,1.5c4.4,0.9,7.6,2.4,9.7,4.6c2.1,2.2,3.2,5.2,3.2,9.1
				c0,3.1-0.8,5.9-2.3,8.2c-1.5,2.4-3.7,4.2-6.5,5.5c-2.8,1.3-6.1,1.9-9.8,1.9c-3.6,0-6.8-0.6-9.5-1.9c-2.7-1.2-4.8-3-6.3-5.3
				c-1.5-2.3-2.2-4.9-2.2-8h10.6c0,1.8,0.6,3.1,1.9,4.1c1.3,1,3.1,1.5,5.5,1.5c2.4,0,4.3-0.5,5.8-1.4c1.4-0.9,2.1-2.1,2.1-3.7
				c0-1.4-0.3-2.4-1-3.2c-0.7-0.7-1.8-1.3-3.5-1.6l-7.5-1.5c-4.4-0.9-7.7-2.6-9.9-5C930.7,86.9,929.6,83.7,929.6,79.6z"/>
			<path class="st3" d="M983.2,65.4v48.9h-10.7V65.4H983.2z"/>
			<path class="st3" d="M1004,114.4h-10.6V65.4h10.6l23.9,36.1h-3.3V65.4h10.6v48.9h-10.6l-23.9-36h3.3V114.4z"/>
			<path class="st3" d="M1067.4,74.7c-3,0-5.4,0.7-7.4,2c-2,1.3-3.5,3.1-4.5,5.5c-1,2.3-1.5,5.1-1.5,8.3c0,3.3,0.6,6,1.7,8.2
				c1.1,2.2,2.7,3.8,4.7,4.9c2,1.1,4.3,1.6,6.9,1.6c2.2,0,4.1-0.3,5.6-0.9c1.5-0.6,2.8-1.4,3.7-2.4c0.9-1,1.7-2.2,2.1-3.4
				c0.5-1.3,0.7-2.6,0.7-4v-3.9l5.1,5.1h-18.1v-9.4h23v28.1h-9.2l-0.9-6.7l1.2,1c-0.7,1.3-1.8,2.4-3.3,3.4c-1.5,1-3.2,1.7-5.2,2.2
				c-2,0.5-4,0.8-6.2,0.8c-4.5,0-8.6-1-12.1-3.1c-3.5-2.1-6.2-5-8.2-8.8c-2-3.7-3-8.1-3-13.2c0-4.9,1-9.3,3.1-13.1
				c2.1-3.8,5-6.8,8.7-9c3.7-2.2,8.1-3.3,13.2-3.3c3.9,0,7.5,0.7,10.6,2.1c3.2,1.4,5.7,3.5,7.7,6.1c2,2.6,3.1,5.7,3.5,9.2h-11.2
				c-0.6-2.6-1.9-4.5-4-5.7C1072.2,75.3,1069.9,74.7,1067.4,74.7z"/>
			<path class="st3" d="M1109,114.4h-10.7V65.4h10.7v19.3h18.9V65.4h10.7v48.9h-10.7V94.7H1109V114.4z"/>
			<path class="st3" d="M372,131.5v48.9h-10.7v-48.9H372z M389.2,161.3H362v-9.7h27.2V161.3z M392.4,141.5h-30.1v-9.9h30.1V141.5z"
				/>
			<path class="st3" d="M430.8,180.5h-31.1v-48.9h31.1v9.9h-23.3l3-2.8V151h18v9.4h-18v12.9l-3-2.8h23.3V180.5z"/>
			<path class="st3" d="M450.3,131.5v48.9h-10.7v-48.9H450.3z M441.6,180.5v-9.9h28.1v9.9H441.6z"/>
			<path class="st3" d="M487.1,131.5v48.9h-10.7v-48.9H487.1z M478.3,180.5v-9.9h28.1v9.9H478.3z"/>
			<path class="st3" d="M556,155.9c0,5-1,9.4-3,13.2c-2,3.8-4.8,6.8-8.5,8.9c-3.6,2.1-7.8,3.2-12.6,3.2c-4.7,0-8.9-1.1-12.5-3.2
				c-3.6-2.1-6.4-5.1-8.4-8.9c-2-3.8-3-8.2-3-13.2c0-5,1-9.4,3-13.2c2-3.8,4.8-6.8,8.4-8.9c3.6-2.1,7.7-3.2,12.5-3.2
				c4.8,0,8.9,1.1,12.5,3.2c3.6,2.1,6.4,5.1,8.4,8.9C555,146.6,556,151,556,155.9z M544.7,155.9c0-3.1-0.5-5.8-1.5-8
				c-1-2.2-2.5-3.9-4.3-5.1c-1.9-1.2-4.1-1.8-6.8-1.8s-4.9,0.6-6.8,1.8c-1.9,1.2-3.3,2.9-4.4,5.1c-1,2.2-1.5,4.9-1.5,8
				c0,3.1,0.5,5.8,1.5,8.1c1,2.2,2.5,4,4.4,5.2c1.9,1.2,4.2,1.8,6.8,1.8s4.9-0.6,6.8-1.8c1.9-1.2,3.3-2.9,4.3-5.2
				C544.2,161.7,544.7,159,544.7,155.9z"/>
			<path class="st3" d="M572.1,180.5l-14.7-48.9h11.2l6.4,21.2c0.4,1.5,0.9,3,1.3,4.6c0.4,1.6,0.8,3.6,1.2,6c0.4-2.4,0.8-4.4,1.2-6
				c0.4-1.6,0.8-3.1,1.3-4.6l6-21.2h12l5.8,21.2c0.4,1.5,0.8,3.1,1.2,4.7c0.4,1.6,0.8,3.6,1.3,5.9c0.5-2.5,0.9-4.5,1.3-6
				c0.4-1.6,0.8-3.1,1.3-4.5l6.5-21.4h10.9l-14.9,48.9h-10.4l-8.9-32.1l-9.2,32.1H572.1z"/>
			<path class="st3" d="M628.8,145.8c0-3,0.8-5.6,2.3-7.8c1.5-2.3,3.7-4.1,6.4-5.4c2.7-1.3,5.8-2,9.3-2c3.5,0,6.6,0.6,9.1,1.9
				c2.6,1.2,4.5,3,5.9,5.2c1.4,2.2,2.1,4.9,2.1,8h-10.6c0-1.7-0.6-3.1-1.8-4.1c-1.2-1-2.8-1.5-4.8-1.5c-2.2,0-3.9,0.5-5.2,1.4
				c-1.3,0.9-2,2.2-2,3.8c0,1.5,0.4,2.6,1.2,3.4c0.8,0.8,2,1.4,3.8,1.7l7.3,1.5c4.4,0.9,7.6,2.4,9.7,4.6c2.1,2.2,3.2,5.2,3.2,9.1
				c0,3.1-0.8,5.9-2.3,8.2c-1.5,2.4-3.7,4.2-6.5,5.5c-2.8,1.3-6.1,1.9-9.8,1.9c-3.6,0-6.8-0.6-9.5-1.9c-2.7-1.2-4.8-3-6.3-5.3
				c-1.5-2.3-2.2-4.9-2.2-8h10.6c0,1.8,0.6,3.1,1.9,4.1c1.3,1,3.1,1.5,5.5,1.5c2.4,0,4.3-0.5,5.8-1.4c1.4-0.9,2.1-2.1,2.1-3.7
				c0-1.4-0.3-2.4-1-3.2c-0.7-0.7-1.8-1.3-3.5-1.6l-7.5-1.5c-4.4-0.9-7.7-2.6-9.9-5C629.9,153,628.8,149.8,628.8,145.8z"/>
			<path class="st3" d="M700,131.5v48.9h-10.7v-48.9H700z M709.1,164.2h-11.8v-9.5h9.4c2.6,0,4.5-0.6,5.8-1.7
				c1.3-1.1,1.9-2.8,1.9-5.1c0-2.3-0.6-4-1.9-5.1c-1.3-1.1-3.2-1.7-5.8-1.7h-9.4v-9.5h11.8c3.3,0,6.3,0.7,8.8,2
				c2.5,1.4,4.4,3.3,5.8,5.7c1.4,2.4,2.1,5.3,2.1,8.6c0,3.3-0.7,6.1-2.1,8.6c-1.4,2.4-3.3,4.4-5.8,5.7
				C715.4,163.5,712.5,164.2,709.1,164.2z"/>
			<path class="st3" d="M743.2,180.5h-10.7v-48.9h18.9c5.9,0,10.5,1.4,13.8,4.1c3.2,2.8,4.9,6.7,4.9,11.7c0,3.2-0.7,5.9-2,8.1
				c-1.3,2.2-3.4,4.1-6.1,5.5l8.6,19.4h-11.7l-7.3-17.1h-8.3V180.5z M743.2,141.1v12.9h8.1c2.3,0,4.2-0.6,5.5-1.7
				c1.3-1.1,2-2.8,2-4.8c0-2.1-0.6-3.6-1.9-4.7c-1.3-1.1-3.1-1.6-5.5-1.6H743.2z"/>
			<path class="st3" d="M823.2,155.9c0,5-1,9.4-3,13.2c-2,3.8-4.8,6.8-8.5,8.9c-3.6,2.1-7.8,3.2-12.6,3.2c-4.7,0-8.9-1.1-12.5-3.2
				c-3.6-2.1-6.4-5.1-8.4-8.9s-3-8.2-3-13.2c0-5,1-9.4,3-13.2c2-3.8,4.8-6.8,8.4-8.9c3.6-2.1,7.7-3.2,12.5-3.2
				c4.8,0,8.9,1.1,12.5,3.2c3.6,2.1,6.4,5.1,8.4,8.9C822.2,146.6,823.2,151,823.2,155.9z M811.9,155.9c0-3.1-0.5-5.8-1.5-8
				c-1-2.2-2.5-3.9-4.3-5.1c-1.9-1.2-4.1-1.8-6.8-1.8c-2.6,0-4.9,0.6-6.8,1.8c-1.9,1.2-3.3,2.9-4.4,5.1c-1,2.2-1.5,4.9-1.5,8
				c0,3.1,0.5,5.8,1.5,8.1c1,2.2,2.5,4,4.4,5.2c1.9,1.2,4.2,1.8,6.8,1.8c2.6,0,4.9-0.6,6.8-1.8c1.9-1.2,3.3-2.9,4.3-5.2
				C811.4,161.7,811.9,159,811.9,155.9z"/>
			<path class="st3" d="M852.7,140.8c-3,0-5.4,0.7-7.4,2c-2,1.3-3.5,3.1-4.5,5.5c-1,2.3-1.5,5.1-1.5,8.3c0,3.3,0.6,6,1.7,8.2
				c1.1,2.2,2.7,3.8,4.7,4.9c2,1.1,4.3,1.6,6.9,1.6c2.2,0,4.1-0.3,5.6-0.9c1.5-0.6,2.8-1.4,3.7-2.4c0.9-1,1.7-2.2,2.1-3.4
				c0.5-1.3,0.7-2.6,0.7-4v-3.9l5.1,5.1h-18.1v-9.4h23v28.1h-9.2l-0.9-6.7l1.2,1c-0.7,1.3-1.8,2.4-3.3,3.4c-1.5,1-3.2,1.7-5.2,2.2
				c-2,0.5-4,0.8-6.2,0.8c-4.5,0-8.6-1-12.1-3.1c-3.5-2.1-6.2-5-8.2-8.8c-2-3.7-3-8.1-3-13.2c0-4.9,1-9.3,3.1-13.1
				c2.1-3.8,5-6.8,8.7-9c3.7-2.2,8.1-3.3,13.2-3.3c3.9,0,7.5,0.7,10.6,2.1c3.2,1.4,5.7,3.5,7.7,6.1c2,2.6,3.1,5.7,3.5,9.2h-11.2
				c-0.6-2.6-1.9-4.5-4-5.7C857.5,141.4,855.3,140.8,852.7,140.8z"/>
			<path class="st3" d="M894.3,180.5h-10.7v-48.9h18.9c5.9,0,10.5,1.4,13.8,4.1c3.2,2.8,4.9,6.7,4.9,11.7c0,3.2-0.7,5.9-2,8.1
				c-1.3,2.2-3.4,4.1-6.1,5.5l8.6,19.4h-11.7l-7.3-17.1h-8.3V180.5z M894.3,141.1v12.9h8.1c2.3,0,4.2-0.6,5.5-1.7
				c1.3-1.1,2-2.8,2-4.8c0-2.1-0.6-3.6-1.9-4.7c-1.3-1.1-3.1-1.6-5.5-1.6H894.3z"/>
			<path class="st3" d="M935.8,180.5h-11.2l17.5-48.9h10.4l17.4,48.9h-11.4l-3.4-10.3h-15.8L935.8,180.5z M945.9,150.7l-3.5,10.4
				h9.7l-3.5-10.4c-0.3-0.8-0.5-1.7-0.8-2.6c-0.3-0.9-0.4-1.6-0.5-2.2c-0.1,0.6-0.3,1.3-0.5,2.1S946.2,149.8,945.9,150.7z"/>
			<path class="st3" d="M986,180.5h-10.4v-48.9H986l14.5,36.5l14.6-36.5h10.5v48.9h-10.4v-10.2c0-2.6,0-4.8,0-6.5
				c0-1.7,0-3.1,0.1-4.3c0-1.1,0.1-2.1,0.2-3s0.2-1.8,0.3-2.7l-10.4,26.8h-9.8l-10.3-26.8c0.3,1.8,0.5,3.8,0.6,5.9
				c0.1,2.1,0.1,4.5,0.1,7.2V180.5z"/>
		</g>
	</g>
	<g>
		<path class="st3" d="M367.9,202.3v29.6h-6.5v-29.6H367.9z M373.4,222.1h-7.1v-5.8h5.7c1.6,0,2.7-0.3,3.5-1s1.2-1.7,1.2-3.1
			s-0.4-2.4-1.2-3.1c-0.8-0.7-1.9-1-3.5-1h-5.7v-5.8h7.1c2,0,3.8,0.4,5.3,1.2c1.5,0.8,2.7,2,3.5,3.5c0.8,1.5,1.3,3.2,1.3,5.2
			s-0.4,3.7-1.3,5.2c-0.8,1.5-2,2.6-3.5,3.5C377.2,221.7,375.4,222.1,373.4,222.1z"/>
		<path class="st3" d="M384.7,221.9c0-2.1,0.5-4,1.4-5.5c0.9-1.6,2.3-2.8,3.9-3.7c1.7-0.9,3.6-1.3,5.7-1.3c2.1,0,4,0.4,5.7,1.3
			c1.7,0.9,3,2.1,3.9,3.7c0.9,1.6,1.4,3.4,1.4,5.5s-0.5,3.9-1.4,5.5c-0.9,1.6-2.2,2.8-3.9,3.7c-1.7,0.9-3.5,1.3-5.7,1.3
			c-2.1,0-4-0.4-5.7-1.3c-1.7-0.9-3-2.1-3.9-3.7C385.2,225.8,384.7,224,384.7,221.9z M390.9,221.8c0,1,0.2,1.9,0.6,2.7
			s1,1.3,1.7,1.8c0.7,0.4,1.6,0.6,2.5,0.6s1.8-0.2,2.5-0.6c0.7-0.4,1.3-1,1.7-1.8c0.4-0.8,0.6-1.6,0.6-2.7c0-1-0.2-1.9-0.6-2.6
			c-0.4-0.7-1-1.3-1.7-1.7c-0.7-0.4-1.6-0.6-2.5-0.6s-1.8,0.2-2.5,0.6c-0.7,0.4-1.3,1-1.7,1.7C391.1,219.9,390.9,220.8,390.9,221.8z
			"/>
		<path class="st3" d="M413.8,231.9l-6.4-20h6.5l1.8,6.5c0.2,0.9,0.5,1.8,0.7,2.7c0.2,1,0.4,1.9,0.6,3c0.1-0.7,0.3-1.3,0.4-1.8
			c0.1-0.5,0.2-1,0.4-1.6s0.4-1.3,0.7-2.3l2-6.5h6.3l1.9,6.5c0.1,0.2,0.1,0.5,0.3,1c0.1,0.5,0.3,1,0.4,1.6c0.2,0.6,0.3,1.2,0.4,1.7
			c0.1,0.6,0.2,1,0.3,1.3c0.1-0.5,0.2-1.1,0.4-1.9c0.2-0.8,0.4-1.6,0.6-2.3c0.2-0.7,0.3-1.2,0.4-1.4l1.9-6.5h6.5l-7,20h-5.7
			l-1.9-6.4c-0.5-1.7-0.9-3-1.2-4.2c-0.3-1.1-0.4-1.9-0.5-2.3c-0.1,0.4-0.2,1.1-0.5,2s-0.7,2.5-1.3,4.6l-1.9,6.2H413.8z"/>
		<path class="st3" d="M450.8,232.4c-2,0-3.8-0.5-5.3-1.4c-1.6-0.9-2.8-2.2-3.7-3.7c-0.9-1.6-1.3-3.4-1.3-5.5c0-2.1,0.4-3.9,1.3-5.5
			c0.9-1.6,2.1-2.8,3.6-3.7c1.5-0.9,3.3-1.4,5.3-1.4c2.1,0,3.9,0.4,5.4,1.3c1.5,0.9,2.7,2.1,3.5,3.7c0.8,1.6,1.2,3.5,1.2,5.7v1.6
			l-17.2,0.1l0.1-3.8h11c0-1.1-0.4-1.9-1.1-2.5c-0.7-0.6-1.7-0.9-3-0.9c-1,0-1.9,0.2-2.5,0.6c-0.7,0.4-1.1,1-1.5,1.9
			c-0.3,0.8-0.5,1.9-0.5,3.2c0,1.9,0.4,3.2,1.1,4.1c0.8,0.9,1.9,1.3,3.5,1.3c1.2,0,2.1-0.2,2.9-0.6s1.3-1,1.5-1.7h5.6
			c-0.3,2.2-1.4,4-3.3,5.3C455.9,231.8,453.6,232.4,450.8,232.4z"/>
		<path class="st3" d="M478.3,211.9v5.8h-2c-1.8,0-3.1,0.4-4.1,1.3s-1.5,2.3-1.5,4.2v8.7h-6.2v-20h5.8l0.5,4.3h-0.6
			c0.3-1.3,0.9-2.4,1.8-3.3c0.9-0.9,2.2-1.3,3.9-1.3c0.4,0,0.8,0,1.1,0.1C477.5,211.7,477.9,211.8,478.3,211.9z"/>
		<path class="st3" d="M490.1,232.4c-2,0-3.8-0.5-5.3-1.4c-1.6-0.9-2.8-2.2-3.7-3.7c-0.9-1.6-1.3-3.4-1.3-5.5c0-2.1,0.4-3.9,1.3-5.5
			c0.9-1.6,2.1-2.8,3.6-3.7c1.5-0.9,3.3-1.4,5.3-1.4c2.1,0,3.9,0.4,5.4,1.3c1.5,0.9,2.7,2.1,3.5,3.7c0.8,1.6,1.2,3.5,1.2,5.7v1.6
			l-17.2,0.1l0.1-3.8h11c0-1.1-0.4-1.9-1.1-2.5c-0.7-0.6-1.7-0.9-3-0.9c-1,0-1.9,0.2-2.5,0.6c-0.7,0.4-1.1,1-1.5,1.9
			c-0.3,0.8-0.5,1.9-0.5,3.2c0,1.9,0.4,3.2,1.1,4.1c0.8,0.9,1.9,1.3,3.5,1.3c1.2,0,2.1-0.2,2.9-0.6s1.3-1,1.5-1.7h5.6
			c-0.3,2.2-1.4,4-3.3,5.3C495.2,231.8,492.9,232.4,490.1,232.4z"/>
		<path class="st3" d="M512.2,232.4c-1.9,0-3.6-0.4-5-1.3c-1.4-0.9-2.5-2.1-3.3-3.6c-0.8-1.6-1.2-3.4-1.2-5.5c0-2.1,0.4-4,1.2-5.6
			c0.8-1.6,1.9-2.9,3.4-3.8c1.5-0.9,3.2-1.4,5.3-1.4c1.3,0,2.4,0.2,3.5,0.7c1.1,0.5,1.9,1.1,2.5,1.8v-12h6.2v30.2H519l-0.3-2.6
			c-0.5,0.9-1.4,1.6-2.5,2.2S513.7,232.4,512.2,232.4z M513.7,226.8c1,0,1.8-0.2,2.5-0.6c0.7-0.4,1.3-1,1.7-1.8
			c0.4-0.8,0.6-1.6,0.6-2.6c0-1-0.2-1.9-0.6-2.6c-0.4-0.7-1-1.3-1.7-1.7c-0.7-0.4-1.6-0.6-2.5-0.6s-1.8,0.2-2.5,0.6
			c-0.7,0.4-1.3,1-1.7,1.8c-0.4,0.7-0.6,1.6-0.6,2.6c0,1,0.2,1.9,0.6,2.6c0.4,0.7,0.9,1.3,1.7,1.8
			C511.9,226.6,512.8,226.8,513.7,226.8z"/>
		<path class="st3" d="M545.8,231.9H540v-30.2h6.2v12.5c0.6-0.9,1.5-1.6,2.7-2.2c1.2-0.5,2.5-0.8,4-0.8c1.9,0,3.5,0.5,4.9,1.4
			c1.4,0.9,2.4,2.2,3.2,3.8c0.7,1.6,1.1,3.5,1.1,5.7c0,2.1-0.4,3.9-1.2,5.4c-0.8,1.6-1.9,2.8-3.4,3.6c-1.5,0.9-3.1,1.3-5,1.3
			c-1.4,0-2.6-0.3-3.8-0.9c-1.1-0.6-2-1.3-2.5-2.2L545.8,231.9z M546.2,221.8c0,1,0.2,1.9,0.6,2.6s1,1.3,1.7,1.8
			c0.7,0.4,1.6,0.6,2.5,0.6c1,0,1.8-0.2,2.5-0.6c0.7-0.4,1.3-1,1.6-1.8c0.4-0.7,0.6-1.6,0.6-2.6c0-1-0.2-1.9-0.6-2.6
			c-0.4-0.7-0.9-1.3-1.6-1.8c-0.7-0.4-1.6-0.6-2.5-0.6c-1,0-1.8,0.2-2.5,0.6c-0.7,0.4-1.3,1-1.7,1.7
			C546.4,219.9,546.2,220.8,546.2,221.8z"/>
		<path class="st3" d="M569.3,211.9l5.9,17.3l-3,7.1l-9.5-24.4H569.3z M563.2,241.5v-5.2h3.4c0.7,0,1.3-0.1,1.7-0.3s0.8-0.5,1.2-0.9
			c0.3-0.4,0.6-1,0.9-1.7l8.1-21.6h6.4l-10.2,24.4c-0.8,2-1.8,3.5-3,4.4s-2.7,1.4-4.4,1.4c-0.7,0-1.5,0-2.1-0.1
			S563.9,241.7,563.2,241.5z"/>
		<path class="st3" d="M602.8,231.9h-6.8l10.6-29.6h6.3l10.5,29.6h-6.9l-2.1-6.2H605L602.8,231.9z M609,213.9l-2.1,6.3h5.8l-2.1-6.3
			c-0.2-0.5-0.3-1-0.5-1.6c-0.2-0.5-0.3-1-0.3-1.3c-0.1,0.3-0.2,0.8-0.3,1.3C609.3,212.9,609.1,213.4,609,213.9z"/>
		<path class="st3" d="M633.4,202.3v29.6h-6.5v-29.6H633.4z"/>
		<path class="st3" d="M646,202.3v29.6h-6.5v-29.6H646z M651.6,222.1h-7.1v-5.8h5.7c1.6,0,2.7-0.3,3.5-1s1.2-1.7,1.2-3.1
			s-0.4-2.4-1.2-3.1c-0.8-0.7-1.9-1-3.5-1h-5.7v-5.8h7.1c2,0,3.8,0.4,5.3,1.2c1.5,0.8,2.7,2,3.5,3.5c0.8,1.5,1.3,3.2,1.3,5.2
			s-0.4,3.7-1.3,5.2c-0.8,1.5-2,2.6-3.5,3.5C655.3,221.7,653.6,222.1,651.6,222.1z"/>
		<path class="st3" d="M678.5,232.4c-3,0-5.5-0.6-7.7-1.9s-3.8-3-5-5.3c-1.2-2.3-1.8-5-1.8-8.1c0-3.1,0.6-5.8,1.8-8.1
			c1.2-2.3,2.9-4.1,5.2-5.3c2.2-1.3,4.8-1.9,7.7-1.9c2.5,0,4.7,0.4,6.6,1.3c1.9,0.9,3.5,2.2,4.7,3.8c1.2,1.6,2,3.5,2.3,5.8h-6.8
			c-0.4-1.5-1.2-2.6-2.5-3.4c-1.2-0.8-2.7-1.2-4.5-1.2c-1.6,0-3,0.4-4.1,1.1c-1.2,0.7-2,1.8-2.7,3.1c-0.6,1.3-0.9,3-0.9,4.9
			c0,1.8,0.3,3.4,0.9,4.8s1.5,2.4,2.7,3.1c1.2,0.7,2.5,1.1,4.1,1.1c1.8,0,3.4-0.4,4.6-1.3c1.3-0.8,2.1-2,2.5-3.5h6.7
			c-0.3,2.2-1.2,4.1-2.4,5.8s-2.9,2.9-4.9,3.8S681,232.4,678.5,232.4z"/>
	</g>
</g>
</svg>
