<?xml version="1.0" encoding="UTF-8"?><svg id="Layer_1" xmlns="http://www.w3.org/2000/svg" viewBox="0 0 1160.33 317.17"><defs><style>.cls-1{fill:#fff;}.cls-2{fill:#ffcd00;}.cls-3{fill:#1a1a1a;}.cls-4{fill:#00b9ff;}</style></defs><path class="cls-1" d="M166.25,300.25c-1.66,0-3.29-.03-4.84-.08-.11,0-.21,0-.32-.01h-.14c-19.25-.71-37.8-5.21-55.13-13.38-16.79-7.91-31.68-18.88-44.26-32.62-.81-.89-1.6-1.77-2.35-2.63-11.03-12.65-19.64-26.98-25.6-42.58-6.17-16.15-9.3-33.19-9.3-50.64,0-19.16,3.75-37.75,11.16-55.25,7.15-16.9,17.38-32.08,30.42-45.12,13.04-13.04,28.22-23.27,45.12-30.42,17.5-7.4,36.09-11.16,55.25-11.16s37.75,3.75,55.25,11.16c16.9,7.15,32.08,17.38,45.12,30.42,13.04,13.03,23.27,28.21,30.42,45.12,7.4,17.5,11.16,36.09,11.16,55.25,0,17.32-3.09,34.25-9.17,50.3-5.88,15.51-14.38,29.77-25.27,42.38-.83.97-1.71,1.96-2.6,2.94-12.62,13.83-27.57,24.88-44.44,32.84-17.42,8.21-36.06,12.72-55.41,13.4h-.1c-.33.01-.64.02-.95.03l-2.05.04c-.65,0-1.3.01-1.95.01h-.02Z"/><path class="cls-3" d="M166.25,303.88c-1.7,0-3.37-.03-4.97-.08-.11,0-.22,0-.32-.01h-.14c-19.75-.73-38.77-5.34-56.54-13.72-17.22-8.11-32.49-19.37-45.39-33.46-.83-.91-1.64-1.82-2.41-2.7-11.31-12.97-20.15-27.67-26.26-43.67-6.33-16.57-9.54-34.04-9.54-51.94,0-19.65,3.85-38.72,11.44-56.66,7.33-17.33,17.83-32.9,31.2-46.27s28.94-23.86,46.27-31.2c17.95-7.59,37.01-11.44,56.66-11.44s38.72,3.85,56.66,11.44c17.33,7.33,32.9,17.83,46.27,31.2s23.87,28.94,31.2,46.27c7.59,17.95,11.44,37.01,11.44,56.66,0,17.77-3.16,35.12-9.41,51.59-6.03,15.91-14.75,30.53-25.91,43.47-.86.99-1.75,2.01-2.67,3.01-12.94,14.19-28.28,25.52-45.58,33.68-17.86,8.42-36.99,13.05-56.83,13.74h-.1c-.34.01-.66.02-.97.03l-2.1.04c-.67,0-1.33.01-2,.01h0ZM166.25,16.36c-78.27,0-141.94,63.67-141.94,141.94,0,34.3,12.4,67.4,34.9,93.22.75.86,1.54,1.75,2.36,2.63,25.88,28.25,61.17,44.59,99.38,45.99h.16c.09,0,.17.01.26.01h.03c2.17.08,4.5.1,6.8.07l.95-.02h.18l.94-.02c.3,0,.61-.02.91-.03h.15c38.41-1.35,73.87-17.77,99.83-46.24.89-.98,1.77-1.96,2.6-2.93,22.21-25.73,34.44-58.65,34.44-92.69,0-78.27-63.68-141.94-141.94-141.94h0Z"/><path class="cls-2" d="M166.25,284.9c-1.48,0-2.93-.02-4.32-.07h-.4c-17.17-.64-33.71-4.65-49.17-11.93-14.97-7.05-28.26-16.84-39.48-29.1-.72-.79-1.43-1.58-2.1-2.35-9.84-11.28-17.52-24.06-22.84-37.98-5.5-14.41-8.3-29.6-8.3-45.17,0-17.09,3.35-33.67,9.95-49.28,6.38-15.08,15.5-28.61,27.13-40.24,11.63-11.63,25.17-20.75,40.24-27.13,15.61-6.6,32.19-9.95,49.28-9.95s33.67,3.35,49.28,9.95c15.08,6.38,28.61,15.5,40.24,27.13s20.75,25.17,27.13,40.24c6.6,15.61,9.95,32.19,9.95,49.28,0,15.45-2.75,30.55-8.18,44.87-5.24,13.83-12.83,26.55-22.54,37.8-.74.86-1.53,1.75-2.32,2.62-11.25,12.34-24.59,22.19-39.64,29.29-15.54,7.33-32.16,11.35-49.43,11.95h-.09c-.3.01-.57.02-.84.03l-1.83.04c-.58,0-1.16.01-1.74.01h.02Z"/><polygon class="cls-1" points="133.48 284.9 122.76 265.37 125.01 238.61 126.2 228.99 128.12 224.42 128.93 222.29 117.37 212.7 103.81 202.64 101.04 201.75 98.41 198.2 93.48 190.52 90.13 183.38 88.3 178.42 86.27 171.48 84.4 162.29 83.89 153.09 84.4 142.97 85.8 135.24 87.74 127.76 90.4 119.61 94.17 111.49 97.33 105.62 104.9 94.65 115.84 81.7 127.76 69.01 137.4 60.67 149.54 52.7 161.01 46.07 165.86 44.46 169.85 44.46 176.81 46.84 180.19 48.95 182.9 51.3 188.22 55.13 201.22 63.53 209.98 69.34 217.41 75.59 223.39 81.29 230.65 89.41 234.84 95.14 238.33 101.91 242.01 111.97 244.17 123.05 244.9 132.72 244.29 143.64 242.68 157 240.18 166.36 234.7 177.64 230.85 183.32 226.02 190.26 220.26 197.08 214 203.69 210.89 206.1 208.59 207.85 206.04 209.48 202.66 211.76 202.03 212.95 200.36 215.83 199.42 218.24 198.76 221.48 199.36 222.81 201.39 227.5 209.73 244.93 216.05 265.37 205.58 290.6 185.56 296.62 164.39 298.8 161.8 299.52 160.21 299.78 148.98 296.62 133.48 284.9"/><polygon class="cls-4" points="104.98 196.95 102.76 200 100.82 201.16 98.53 198.34 91.17 185.5 85.91 170.35 84.01 155.14 84.36 145.85 85 140.46 86.85 130.87 90.52 119.75 96.17 107.89 99.99 101.79 105.92 93.81 114.12 84.01 122.53 74.35 130.26 67.09 139.43 59.55 151.09 51.96 160.4 46.48 164.51 44.6 167.66 44.48 170.6 44.98 176.92 46.98 180.31 49.09 183.02 51.44 192.33 57.89 203.85 64.97 214.61 73.19 221.97 79.96 228.02 86.38 234.95 95.28 238.44 102.04 241.15 109.27 242.93 116.37 244.41 124.74 244.78 129.72 244.78 137.34 244.41 143.78 242.93 151.39 241.75 161.04 230.96 183.46 217.71 200.33 210.12 206.07 211.38 199.72 214.11 192.79 216.21 186.79 216.32 178.49 216.55 176.42 216.25 173.38 217.01 171.29 217.24 170.23 217.35 166.42 216.03 165.36 215.28 164.63 215.35 163.23 215.78 160.7 216.17 157.19 214.03 147.82 212.26 142.91 212.16 141.31 213.45 135.97 213.43 131.46 212.28 126.18 209.64 123.51 206.3 120.86 205.52 119.95 205.29 119 206.09 118.47 205.95 116.95 201.62 109.68 198.55 105.13 194.95 100.23 193.45 97.5 186.24 90.16 181.5 87.44 174.48 85.53 167.97 85.59 162.76 86.46 157.25 89.27 151.72 93.51 144.72 99.77 138.86 105.98 133.31 112.47 127.49 120.38 121.54 130.15 113.62 150.02 105.73 178.28 101.24 194.96 104.98 196.95"/><path class="cls-3" d="M206.66,123.56c-.09-.06-.3-.13-.59-.19.2.09.4.18.6.28,0-.05,0-.09-.02-.09h0ZM206.66,123.56c-.09-.06-.3-.13-.59-.19.2.09.4.18.6.28,0-.05,0-.09-.02-.09h0ZM206.66,123.56c-.09-.06-.3-.13-.59-.19.2.09.4.18.6.28,0-.05,0-.09-.02-.09h0ZM206.66,123.56c-.09-.06-.3-.13-.59-.19.2.09.4.18.6.28,0-.05,0-.09-.02-.09h0ZM206.66,123.56c-.09-.06-.3-.13-.59-.19.2.09.4.18.6.28,0-.05,0-.09-.02-.09h0ZM206.66,123.56c-.09-.06-.3-.13-.59-.19.2.09.4.18.6.28,0-.05,0-.09-.02-.09h0ZM246.46,245.6c-11.68-1.56-24.13-7.41-36.25-8.28-4.7-1.96-6.96-6.75-8.55-11.27-.46-1.3-.39-2.9-1.3-4.11-.31-.4-.92-.46-1.05-1.02-.28-1.17,1.99-6.13,2.77-7.31.39-.59.88-1.13,1.44-1.65.77-.71,1.66-1.36,2.58-1.98,0,0,0,0,.02,0,1.6-1.08,3.31-2.06,4.65-3.11,8.51-6.64,19.66-20.91,25.02-30.33,3.23-5.67,5.43-11.22,6.72-16.69,3.6-15.32-.04-30.09-8.73-45.52-5.55-9.85-18.7-20.96-28.01-27.35-5.94-4.07-11.63-6.7-17.71-10.35-2.16-1.3-4.28-3.16-6.35-4.42-.23-.14-2.62-.7-.42-.9.83-.07,1.96-.42,2.59-.3.4.08,3.47,1.36,4.06,1.62,4.27,1.89,8.2,4.88,12.47,6.84.92.22,7.47,5.27,7.79,4.94.28-.28-.37-.72-.54-.88-5.62-5.48-15.87-11.1-22.65-15.71-.48-.33-1.8-.37-1.51-1.31.25-.83,3.42.24,4.12.51,7.86,3.05,17.27,8.81,24.27,13.57,3.42,2.33,7,5.47,10.39,7.63.29.19,1.18.57.86-.08-.13-.24-3.68-3.04-4.25-3.49-10.09-7.85-20.97-14.42-32.83-19.67-.55-.24-3.94-1.3-4.05-1.48-.56-.86.78-2.9.91-3.75.04-.27-.03-1.18-.57-1.12-1.03.13-.73,1.22-1.13,1.71-.48.59-.51.13-1.37,1.46-8.39,12.96-21.68,23.59-32.53,34.54-11.64,11.75-22.51,24.86-31.07,39.1-4.82,8.02-6.78,15.71-9.41,24.58-2.02,6.83-3.96,13.68-5.15,20.86-.32,1.94.28,1.13-.8,2.87-1.52,2.44-.03,4.99-.5,7.42-.12.6-.77.82-.77,1.29,0,.16,1.62,2.49-.11,1.92-.3-.1-.28-.7-.58-.76-.39-.09-1.03.15-1.38-.11-.24-.18-.36-1.69-.88-1.69-.09,0-.67.59-.62.86.03.21.75.75.97,1.1.39.61.78,1.58,1.13,2.31h0c.11.25.22.46.33.62.07.11.16.19.25.25.25.18.54.22.61.32.05.08-.02.26-.06.47-.03.14-.04.29.02.43.38.95,2.84,4.43,3.58,5.46,4.57,6.42,13.53,14.99,20.85,18.02.98.4,3.4.75,3.84,1.59.37.7-1.49,3.39-1.91,4.28-1.39,2.98-2.43,6.18-4.11,9.02-1.94,3.29-1.83,2.19-5.14,3.09-6.58,1.79-12.93,3.1-19.51,4.69-7.39,1.78-13.69,3.75-21.36,4.89-5.61.83-11.27,1.42-16.92,2.04.78.89,1.57,1.77,2.37,2.65,24.98,27.27,60.41,44.8,99.95,46.25.15,0,.3.01.45.02,1.62.06,3.25.08,4.88.08.65,0,1.31,0,1.96-.01.33,0,.65-.01.98-.02h.15c.32,0,.63-.02.95-.02s.63-.02.95-.03h.1c39.76-1.39,75.38-19.04,100.42-46.5.89-.97,1.76-1.96,2.62-2.95-9.25-2.1-18.58-3.86-27.9-5.11h-.04ZM232.14,158.57c-.39.49-.94-1.05-.97-1.22-.59-3.5-.7-7.4-1.41-10.96-2.67-13.36-10.68-24.18-19.36-34.2-7.89-9.11-17.19-16.35-25.94-24.52-1.06-2.38,2.82.36,3.61.77,4.03,2.07,5.89,3.4,9.43,6.14,14.61,11.3,24.37,19.33,31.42,37.2,3.27,8.29,3.5,17.95,3.22,26.78h0ZM179.17,75.66c.14-.09,2.81-.1,3.17-.03.63.12,2.59,1.5,3.3,1.85,12.12,5.9,22.74,12,32.75,21.18,15.31,14.05,25.52,34.94,22.24,56.17-.13.84-1.19,5.94-1.67,6.05-1.63.38-.37-5.18-.36-6.05.02-1.9-.56-10.01-1.09-11.56-.11-.32-.57-.33-.73-.62-.32-.59-.77-2.95-1.18-3.91-4.83-11.51-11.71-21.87-19.94-31.3-4.55-5.22-10.88-9.24-16.33-13.54-3.8-2.99-7.33-6.05-11.23-8.84-2.32-1.66-4.08-3.05-6.29-4.8-.54-.43-2.68-1.52-2.86-1.92-.06-.12-.04-2.43.21-2.67h0ZM122.52,131.4c.18-4.13,8.23-15.41,11.07-18.8,4.53-5.39,9.05-11.27,14.8-15.84,3.82-3.03,9.06-6.87,13.48-8.66.73-.3,3.95-1.83,4.31-1.91,1.06-.24,3.23.16,4.59,0,2.39-.28,3.91-.41,6.41.14,4.39.97,8.67,4.37,11.98,7.44,2.06,1.92,3.95,4.1,5.66,6.31.87.35.18-1,.89-.77.59.19,4.27,3.36,4.99,4.02,5.7,5.2,11.37,12.82,15.98,19.02,7.7,10.35,10.92,21.01,11.58,34.01.13,2.65.19,7.72-.32,10.23-.08.41-.78,1.41-1.22.97-.11-.11,0-2.82-1.15-2.58-.48.1-.58,2.42-.84,3.02-.53,1.17-1.01,1-1.1-.3-.13-1.76-.2-7.18-1.34-8.32-.37-.36-1.13-.24-1.42-1.03-.41-1.12-.54-3.71-.85-5.07-.99-4.31-2.36-7.83-3.75-11.96-.45-1.35-2-5.34-2.09-6.41-.21-2.32,3.96-5.81,2.79-7.62-.68-1.06-3.27-.56-3.57-.73-.13-.07-1.35-1.94-1.72-2.27-.68-.62-1.81-1.01-2.44-1.68-1.3-1.38-.58-3.37-3-3.46-1.49-.06-.54,1.42-.61,2.3-3.05-.25-6.08-.39-9.14-.51-.31-.02-.96.2-.9-.26h3.86c-.09-.54-.78.05-.26-.77-1.14.29-2.06.88-3.09-.13l1.8-.13c-.13-1.63-1.85.02-2.57-.9l1.03-.13-.77-.77,1.03-.26c-.79.11-1.93-.18-2.66,0-.19.05-.14.46-.33.5-.35.07-1.6-.32-1.99-.21-.4.12-.81,1.61-2.22.74-.34-.45,2.3-2.1.64-2.07-1.29.03-2.03,3.04-3.73,2.59l-.13-.77c-.63.44-.93,2.21-1.42,2.57-.43.32-.64-.23-.52-.64.03-.09.41-.14.51-.31.45-.8,1.11-1.81.39-2.65l-.84,1.74-1.09,3.41c-.56-.9,1.43-4.73,1.02-5.15-.91-.2-1.18,1.09-1.41,0-.28.9-1.67.96-2.61,1.03-.53.04-.21-.73-.73-.52-.48.19-.17,1.56-.39,1.8-.52.57-.54-.7-.58-.83-.11-.34-.45-.84-.46-.07-.12,1.64.62,1.14.91,1.39,1.8,1.53-.55,1.89-1.93,1.32,1.11.85-.19,1.72,0,2.4.05.18.37.16.41.23.08.15-.42.55.34.46.12.45-.44.17-.51.26-.08.1.89.67,0,1.29.97.47.63-.23,1.54-.51-.41,2.15-3.29.58-5,.5-1.41-.07-4.4.74-5.17.28-.54-.32-1.39-1.83-2.17-2.2.24-.25,1.39-.2,1.54-.4.02-.03-.21-.43-.14-.76.22-.97.35-1.5.51-2.45.05-.32.54-.49.63-.82.12-.46-.44-1.51-.22-2.14l-1.24,2.23c.27-.57-.21-1.46-.21-1.59.02-.31.58-.46.41-.9-.73.43-.94.18-1.54-.26.1.75.36,1.5.44,2.26.03.28.3.88-.18.82-.19-1.24-.26-2.72-1.55-3.35l-.13,1.54-1.18-1.84-.75-.48.75,2.46-.24,2.43v-1.8l-.52.26c.58-1.35-.62-1.97-1.42-2.83-.26.96-.31.21-.89.12-.54-.09-1.37-.2-1.42.39-.37-.5-2.79-.64-3.34-.53-.33.07.04.72-.27.79-1.43-1.35-3.36-1.93-5.28-2.06,1.93,1.73-.08.45-1.29.52-.19.14,1.69,1.53,2.1,1.63.53.13,1.45-.26,1.73-.06.13.09.11.71.35.95.07.07,1.99.9,1.48,1.34-.38.33-1.43-.98-1.93-1.03-.48-.05-1.12.36-1.67.26-.15.33,1.08.28.51.77-.22.19-1.47-.83-2.06-.51.25.66.05,1.38-.71.94-.11-.06.03-.6-.7-.42-.1.02-.05.39-.52.54-3.4,1.15-6.73-.03-10.77,2.33-.54.32-.91,1.23-1.23.38-.25-.66-.11-1.66-1.24-1.05-.65.35-1.41,1.58-2.07,2.05,2.43.3.37.64.24.79-.14.16-.3.58,0,.76.35.2.84-.24,1.29-.27.58-.03.52.09.14.4-.56.45-1.88.61-2.63.98-3.16,1.52-5.31,4.88-8.18,6.75-.31.2-.53.31-.91.24.92-.84.22-1.39.26-2.19l.06.04ZM135.1,138.06c-.33-1.78-.61-3.25-.7-5.22-.08-1.9-.03-3.19.4-4.86.12-.46.36-1.48.77-1.81.17-.24.39-.47.67-.69,1.21-.96,2.61-1.69,4.03-2.27,4.49-1.86,8.86-1.84,8.86-1.84,2.52-.09,9.82-.35,16,4.38.98.75,1.71,1.46,2.18,1.94v-.28c1.16,3.25.57,6.23-.51,9.4-1.12,3.28-2.91,6.65-6.01,8.41-9.54,5.41-21.13.94-23.24-1.68-1.46-1.81-2.07-3.82-2.07-3.82-.14-.48-.22-.88-.37-1.66h0ZM131.01,132.04c1.31-.15,1.06.09,1.03,1.29-.92-.95-1.61-1.26-2.83-.39l1.8,1.03c-.79-.04-1.42.41-1.26,1.27.1.55,1.39.24,1.51.92-1.84.24-3.09-1.96-4.8-.03l-2.15-.61c-.07-.37,4.38-3.9,5.03-4.49.59-.54,1.09-1.78,2.05-1.7.13,0,1.11.36,1.15.4s.1.52-.13.52c-.53,0-.83-1.01-1.36-.14.37.67-.02,1.24-.05,1.94h.01ZM116.84,150.99c.16-.22.72-.22.79-.15.12.12.4,2.88.51,3.35-.42.48-2.15-2.05-1.31-3.2h0ZM113.79,189.63c-.36.25-1.13.02-1.64.16-.7.2-1.57,1.72-2.67.37-.59-.72-1.62-2.48-1.87-3.41-.11-.4-.29-.84-.27-1.26.1-1.53,3.3-2.22,3.97-.91.25.49.2,2.15,1.06,2.3.76.13,1.43-2.17,2.41-2.05.61.43-.8,4.64-1.01,4.78l.02.02ZM148,239.44c-.56.56-2.82,2.86-3.74,5.67-1.58,4.84,1.3,9.57,1.97,10.61-1.28.94-2.61,2.09-3.9,3.49-5.65,6.19-6.92,13.58-7.26,17.34-.56-5.26-1.06-10.63-1.49-16.12-.2-2.52-.37-5.01-.53-7.48.58-.46.61-1.23.87-1.58.54-.76,1.39-.62,1.66-2.33.27-1.68-.26-1.35-.64-2.32-.79-2.01-.98-1.68-2.08-3.33-2.67-4.01-5.85-12.13-5.17-16.93.12-.82.34-1.21.63-1.31,1-.36,2.75,1.75,3.22,2.29,5.17,5.92,20.07,6.1,20.07,8.92,0,.83-1.3.76-3.61,3.07h0ZM135.13,193.6l-1.03-1.8c.54.58,1.17.38,1.72.6.05.02.83.74.59.94-.17.14-.94-.29-1-.23-.12.11.16.6-.28.48h0ZM160.89,299.52c-1.6-4.42-4.22-12.6-5.11-21.75-.55-5.6-.39-10.99-.36-11.82.09-2.82.29-5.24.5-7.13,3.68.47,6.18-.22,7.79-.94,2.26-1,3.16-2.24,4.44-1.83,1.58.51,1.4,2.76,3.62,5.19,1.15,1.26,2.43,1.94,3.25,2.3l-14.13,35.98h0ZM186.22,243.47s-.1.08-.2.17c0,0-.89.74-1.68,1.57-2.27,2.37-4.31,8.66-4.31,8.66,0,0-1.2,3.61-3.51,7.31-.79,1.26-2.25-.12-3.18-.87-1.31-1.06-3.31-3.27-3.92-4.84-1.52-3.93,1-7.66-.21-11.38-.78-2.39-4.65-5.79-7.02-6.63-.66-.46-1.33-.92-1.99-1.38,1.24-.54,3.24-1.31,5.8-1.91,2.94-.69,5.09-.58,6.33-.88,5.39-1.3,13.17-3.84,18.21-6.24,1.01-.48,6.82-3.93,7.21-3.81.61.18.7,1.31.63,1.85,0,0,.17,8.27-12.16,18.38h0ZM197.68,196.08c-.1.36.3.72.11,1.13-.37.81-.27-.28-.65-.26.27,1.43-1.43,1.18-1.54,1.3-.09.1.08.81-.08,1.22-.38.94-3.8,1.53-2.25,2.25-.6.3-2.15,2.32-2.45,2.45-.45.19-.49-.37-.39-.64.04-.1.5-.11.5-.24-.02-.22-.43-.97-.23-1.17.08-.08.69.07.77,0,.26-.24-1.12-1.79.13-1.81.11,0,.16.94.64.52.14-.12.58-2.23.79-2.65.07-.14,1.45-.69,0-.57.52-.8.47-1.51.51-2.44l-1.02,1.29c-.17-1.34.9-1.85,0-3.09l-.26,1.8-.51-1.8c-.92.07-1.41.98-1.29,1.8l-.38-.51-.65,1.03-.25-1.54c-.2.48-.15,1.17-.33,1.6-.35.84-1.82,2.01-2.76,2.26-.22-.83.74-.48.97-.83.52-.77.41-2.37.57-3.29-.43-.55-1.25,1.6-1.54,1.55.53-2.21,1.47-4.42.77-6.7-1.03.52-.44.87-.51,1.41-.15,1.19-.24,2.42-.78,3.49l-.28-2.56-1-.02c.35-.85.56-1.11.26-2.06l.77,1.03c.04-1.01.32-1.82,0-2.83l.52.52c1.44-.95-.83-1.68-.98-1.86-.19-.23-.04-1.46-.7-1.75l-.13.78-.51-.27.26,2.58c-1.8-.26-.97.86-.13,1.55l.38-.51.26,2.32-.51-.26v.78c-.34-.51-1.4.88-1.8.51-.09-.08,0-1.34-.51-1.29.1.61-1.8,1.32-1.94,1.52-.62.89.41,1.77.42,2.46,0,.78-.95,1.33-.8,2.19-.99-.4.26-1.62.19-2.41,0-.15-.75-2.86-.84-3-.8-1.24-.56,1.51-.64,2.05l-.51-1.54c.23.9-.45,1.24-1.03,1.8v-1.8c-.43-.11-.16.34-.31.47-.13.11-.5-.14-.73-.06-.31.12-.63.56-.94.59-1.01.11-.12-.97-.11-1.62.02-1.1-.76-1.86-1.34-.6-.4.87.26.76.44,1.2.09.23-.12.57-.04.83.3.9.57,1.82,1.21,2.52-.6.03-.55.15-.84-.32-.21-.34-.93-1.55-1.03-1.82-.21-.56.12-1.15.07-1.2-.45-.47-.45.86-1.16,1.03-.32.08.14-.87-.38-.77-.51,1.34-.21,2.7-.08,4.07.03.28.3.88-.18.82l-.26-2.06-.51,1.03c-.24-1.5.46-2.98,0-4.38-1.06.4-1.05,1.33-1.67,0l-.38.77-.9-.51-.9,1.8.51-2.58c-4.53,1.59-1.65-.21-1.59-2.01,0-.29-.5-1.6-.6-1.6l-.64,1.29c1.9-.68.34.76.28.97-.38,1.19-.31,2.56-1.26,3.58l.98,2.02-3.18-2.87c-1.43-.3-1.79-1.8-3.25-.61l-.64-1.8c-.12.38-1.09.74-1.14.81-.15.27.2.66.16.88-.03.2-1.15.31-.71,1.99.07.26.52.24.64.44.28.46,0,1.28.65,1.67l-.77-.13-.13.78c-.52-.56-.5-1.5-.91-2.1-.24-.35-.66-.4-.88-.73-.39-.59-.73-1.37-.91-2.06l-.51.51c-.17-1.55.97-3.36.38-4.63-.39.55-1.02,1.32-.9,1.91.08.38.51.73.47,1-.05.31-.66.69-.64,1.07,0,.16,1.06,2.94,1.17,3.07.27.3.92.47,1.28,1.4.15.39.23.92.28,1.34-.43-.65-1.47-1.12-1.82-1.68-.24-.37-.05-.7-.21-1.04-.41-.84-1.72-1.24-1.56-2.43l.51.14-.52-1.42c-.76-.06-1.41.63-1.3,1.38.03.17.48.13.53.33.08.37-.07.81,0,1.19.02.1,1.29,1.06,1.03,1.73l-2.06-2.32c.03.48-.27.96-.27,1.43,0,.61.84,2.57-.24,2.43.31-1.53-.22-3.03.26-4.64l.51-.25c-.83.09-1.61-1.78-2.06-.65-.08.22.39,0,.5.31.14.4.28,1.68.14,2.14-.59-.8-.37-2.04-1.41-2.57-.22.18.1,1.95-.52,2.06-.26-.5.35-2.71.25-2.83-.08-.11-.65.49-.77.13l1.03-.9.52,1.41-.54-2.17c-.72.52-.36-.21-.62-.28-.12-.03-.77,2.07-.78,2.3-.04,1.03,1,1.01-.72,2.16l-1.2,4.31.51-5.15.51.77c.18-1.03-.17-2.28-.13-3.23,0-.36.4-.72.41-1.27,0-.91-.88-1.22.76-1.42.07.06-.75,1.63,0,1.8.13-1.07,1.25-1.55,1.03-2.57-.43-.11-.11.44-.43.52-.57.14-1.19-.16-1.81.33-1,.79-2.37,3.58-2.91,4.81-1.23-.75-.11-.71.12-1.03.29-.41.26-1.04.56-1.52.34-.55,2.06-2.49,2.13-2.65.11-.28-.23-.59-.23-.84,0-.16.47-.12.52-.32.19-.75-.17-1.96,0-2.74.03-.13,1.53-1.53,1.55-1.98.92.34.07.7-.14,1.29-.26.75-1.39,3.2-.51,3.61.42.19.87-1.42,1.3-1.55.15-.04.34.04.5,0-.22,1.39,1.32-.26.9-1.29.45-.1.16.41.27.49.09.07.65-.35.76-.24s-.18,1.21.9,1.04c.1-.02.12-.4.33-.5.84-.41,1.96-.87,2.89-.8l-.26-.51c.66.06,1.17-.08,1.54-.65l-.51-.12v-1.04l.51.26c-.47-.72.29-1.92,1.03-2.06-.12.3-.31.55-.39.88-.05.18-.31,1.26.13,1.17-.09-.57.64-.64.77-.9.27-.51-.84-.36-.51-.64.64-.54.48.09,1.03-1.13.13-.29.42.22.5.1.31-.45-.97-.98-.77-1.55.98.28,1.16,1.22,2.05.26.05.06-.58,2.24.26,1.29.04-.05-.02-.62.23-.92.45-.54,1.79-.43,1.57-1.92l.51.26c-.4-2.39,0-1.43,1.04-1.66.56-.12,1.07-.8,1.68-.91,4.45-.82,11.59-1.38,15.83-.41,2.49.57,4.25,1.68,6.42,2.85-1.23.54-1.86-.59-3.08-.64.23.35.46,1.62.55,1.76.17.25.84.04.94.11.4.31.98,1.74,1.85,1.47-.34-.74-1.17-.94-1.6-1.62-.2-.32-.49-.77.18-.7l2.07,2.06.13-.51c.87.6,1.08.98.9-.26l1.93,1.93c-1.94-.19-.37.56-.15.91.63,1.01.74,1.91,1.81,3.1.45.5,1.09.33.91,1.01l-.77.13c.94,1,1.79,1.32,3.09,1.67l-1.03-1.54c-.41-.17-.12.84-.51.39-1.22-1.4,1.13-.79,1.93-.38.35.03-.51-.64.26-.52,1.32.19,1.09,1.78,2.44,1.03l-1.03-1.54c.31.12.99-.3,1.03-.26.05.05.15,1.04.26,1.29l.77-1.03c-1.2.5-.55.04-.97-.7-.6-1.06-1.37-1.37-.83-2.91l.9.51c.72.22-1.25-1.94-1.3-2.06-.08-.19.49-.82.14-1.28l1.93.78c.53-.39-.83-1.13-.64-1.29l1.29.51-1.29-1.16c-.08-.17.75-.27.77-.51,0-.13-1.57-1.72-2.05-1.42-.08-.47.45-.14.71-.31.13-.09.42-.88.32-.98-.03-.03-.45.07-.68-.08-.18-.13-.14-.45-.58-.58-1.37-.44-.59.58-1.04,1.07-.3.33-1.4.45-.53,1.03.21.14.71-.21.9.11.09.14-.12.52,0,.77.15.31.95.63.52,1.04-.57-.96-2.16-.64-2.7-1.67-.2-.38.3-.53.51-.38.03.02-.07.99.51.38-.14-.53-.73-.71-.94-.96-.06-.08.12-.37-.08-.57-.28-.28-1.17-.58-1.24-.71-.24-.43.12-1.42-.08-1.72-.09-.12-2.41-.68-2.8-1.06-.76,1.49.88,1.41.77,2.58-.94-.98-2.32-.68-3.22-1.81l-.64.52c.36-1.11-.09-1.63-.9-2.32l-.26.52c-.96-.51-1-1.03-1.16-2.06-1,.37.13,1.95-.77,2.32l-.52-2.58-1.02.51c-.33-.92.35-1.3-.77-1.54l.26.77c-2.01-1.01-1.39.24-1.82,1.02,0,.02-.26-.14-.48-.06-1.33.49-.39-.03-1.69-.7-.74-.14-.06.47-.12.51-.57.33-.52-.39-.67-.5-.45-.33-.93-.23-1.13-.91-.12-.41.97.55.77-.25-.4-.93-1.81-.16-1.8-1.16l-.26.78c-1.01-.71-.4.8.13,1.03l.64-.77c.71,1.8,1.3,2.95-1.28,2.83v-1.55c-1.37-.15-1.72.77-2.83,1.29l.51-1.29c-.62-.02-1.25.07-1.87-.06-1.4-.3-.52-.94-2.25-.12-.19.09-.48-.1-.49-.07-.14.22.12,1.01-.4,1.28l-.13-.77-.51.51-.13-1.03c-1.3,1.25-2.65,2.6-3.22,4.38-.46.06-.27-.59-.19-.83.3-.92,1.44-1.97,1.09-3.03-.4,1.18-1.84.7-1.92.78-.05.05-.11,1.12-.65,1.28-.2.06.02-.82-.64-.25l-.13-.78-.64.64c1.41.63-1.18.14-1.03,1.41-.5.08-.14-.62-.26-.78-.03-.04-.57.29-.9.28-.44,0-1.06-.3-1.26-.26-.52.1-.29,1.29-.8,1.52-.4.09-.74-.65-.89-.52-.09.08.2.62-.26.51.17-.56-1-.87-1.3-.66-.49.33-.38,1.74-.52,1.94-.02.02-.36-.19-.5-.09-.22.16-.43.81-.9.88-.14.02-.09-.38-.17-.45-.08-.07-.66.48-.47-.2.11-.4.98.19,1.03.13.35-.47-.64-1.74-.9-.51l-.13-.52-1.03.26c-.2.89.49.21.51.25.23.51-1.58,1.46-1.54,2.32.29.1,1.37,0,1.49.08.1.06.15.43.32.53.57.32,1.59.32,1.53,1.19-1.42-.4-2.37-1.22-3.6-1.8v1.29c-2.18-1.31-1.3.06-1.86.71-.27.3-1.08.29-1.48.32,1.01,1.52.99.31,1.2.25.18-.05.83-.09.86.13.17,1.3-1.55.35-2.06,1.55-.21.49,1.04.38.51.9-.07.07-.86-.05-1.03.39l1.03.52-.52.38c.41,0,3.19-.94,3.3-1.08.13-.17-.03-.62.13-.9.05-.1,1.21-1.12,1.47-.97l-.53,1.93c-.62-.57-1.16,1.18-1.92,1.55-.55-1.3-2.41.32-2.62,1.45-.14.79.2.38-.34,1.51-.04.09.75-.06.5,1.27-.07.36-.9,2.36-1.27,1.31-.02-.07.91-.24.51-1.16-.5.39-1.43-.02-1.8.12-.79.3.43.51.49.79.02.07-.16,1.45-.49,1.4.38-1.39-.8-1.56-.52-2.83-.43-.22-.47,2.03-1.03,1.29-.08-.11.09-1.19-.26-1.55.21-.17.83.76,1.03-.51-.33-.09-.64.26-.89.27-.09,0-.24-1.05-.53-.28-.32.87-.08,1.73.13,2.58-.27.23-1-.04-1.03,0-.56,1.11.87.65,1.01.79.44.44.38,3.33.53,3.94.02.06,1.17.5.13.94-.6.26-.58-3.2-.64-3.6-.47-.1-.16.44-.26.52-.63.53-.21-1.23-.26-1.29-.56-.62-.96,1.2-.73,1.9.13.42,1.04.28.73,1.19-.98-.62-1.3-1.7-1.29-2.83l-.38.77c-.5-.43-.82-.66-1.41-.9.29-.63,1.47-.59,1.53-.65.09-.09-.07-.6.02-.82.11-.28.77-.18.5-.97l-.38.51c-.45-1.23-.91-.43-1.29-.55-.05-.02-.5-1.09-.6-.11-.12,1.21,1.56,2.41-1.32,3.36.65.99.58,2.37,1.28,3.48-.65.18-.6-.53-.82-.7-.06-.05-1.24.02-1.49-.07l.51,1.55c-.61-.24-.31-1.08-1.02-.52.09-1.84-2.73-2.22-2.32-4.12-.53.09.05.78-.77.26l.51,2.58c-1.12-.49-.58-1.84-.77-2.65-.05-.23-.7-.31-.92-.95-.24-.68.47-1.97-.38-1.96-.07,0-.7.15-.72.18-.67.71,1.73,4.45,1.25,5.63l-.26-.77h-.25c0,.37-.04.74.05,1.11.09.35,1.91,4.07,2.09,4.24.48.45,2.18,1.18,2.83,1.66.26.19.62.38.69.72-.65-.15-1.85-.7-2.39-1.03-.64-.39-1.57-1.34-2.36-1.82-.86-.52-1.3.13-.48-1.39l-2.34-5.06c.16-1.54-1.19-2.42-1.18-3.84l-.51.26v-1.29c-.29.25-.89.04-1.03.12-.43.26.16,1,0,1.42l.51-.26-.15,2.84,4.27,6.43c-.12.1-1.48-.61-1.68-.76-.64-.48-.22-1.15-1.67-.91-.37-.22.07-.7-.02-.85-.15-.24-1.38-.36-1.26-1.08l-.38,1.03c-.72-.26.53-1.53-.9-.77-.05-.87.36-1.51-.77-1.29-.18.43.53,1.01.51,1.16-.03.33-1.05.24-.73.72.63.71.52,1.67.88,2.47.35.76,1.12,1.44,1.52,2.08.24.38.24.61-.26.52-1.4-1.25-2.08-2.9-2.96-4.51-.17-.31-.67-.55-.85-.98-.2-.48.1-.93-.04-1.21-.19-.37-.85-.41-.92-.69-.12-.53.09-1.27-.05-1.95-.77-3.57-2.51-8.03-3.04-11.64-.04-.28-.06-1.88.01-1.95.12-.11,1.04.19,1.04-.13-.36-.58-1.21-4.59-1.03-4.76.13-.12.73-.02.9.25.24.36-.12,1.07.38,1.03.34-1.75-.03-2.59-.7-4.07-.11-.25-.03-.78-.07-.82-.25-.27-1.71.8-1.82-.39-.09-.9.72-.77.8-1.08.04-.15.28-2.88.26-3.03-.08-.58-.71-.81-.76-1.08-.05-.28.36-.54.42-.81.04-.16.2-2.32.84-1.6.1.12-.19.69-.14.9.09.42.72.84.66,1.41.61-.04.67-1.47.77-1.54.33-.24,1.42.83,2.05.26.59,1.96-1.07.32-1.28.52.09.39-.27.84-.28,1.14,0,.25.44.1.53.15.31.18-.9.45-.98.93-.06.35.31.75.34,1.09.05.67-.05,1.6-.01,2.33.03.55.06.74.4.28-.02-.6.1-2.17.33-2.68.23-.5,1.14-.54.7-1.96.98.59.34,2.32.51,3.35l-.77-.13c.38.68-.11,1.36,0,2.04.06.36.4.61.46.86.11.48-.57,1.44.05,1.61l.26-1.8.51.26c-.29-1.01.14-1.84.26-2.83l.77,2.06c-.26-.82.38-1.34.5-1.94.12-.55-.12-1.25.05-1.76.11-.32.59-.3.72-.62.19-.42.67-3.03.78-3.15l.51.26c-.14-1.36.48-2.52.52-3.86l.51.51c.5-1.03,1.14-.95,1.04-2.32l.38.52.65-.26c.23-.83-1.25-.88-1.03-1.41.16-.39,1-.17.77-.9l-1.03.52.77-1.55-1.8,1.55c.02-1.32,1.33-1.79,1.8-2.96-.77-.56-.75.32-.8.35-.57.36-.47-.42-.74-.6-.27-.18-1.28-.16-1.29-.52-.01-.78,1.46-.46,1.28-1.29-.26-1.23-1.09.46-1.41.38-.34-.09-.48-1.28-.78-1.28-.16,0-1.01,1.51-1.66.36-.2-.74.88-1.59.97-2.09.09-.45-.34-.89-.1-1.36.06-.12,1.46-1.19,1.62-1.23.92-.27,3.23-.96,4.09-1.06,1.58-.17,1.84.22,3.08.47,1.39.28,2.52.38,3.07.37.59,0,1.07-.05,1.41-.1.44,2.58,2.77,4.38,5.06,5.37,5.24,2.27,14.71,2.88,20.04.81.5-.2,3.32-1.93,3.47-1.81.45.38-.34.56-.48.67-4.18,2.95-8.98,2.47-13.78,2.96-.48.05-.84.43-1.32.48-1.11.13-2.33-.07-3.46.02l.52.38-.52.64c3.89.06,7.73-.86,11.67-.34l3.62-.94c1.14.84-1.52,1.99-.11,2.57.11-.08.81-2.09,1.03-2.45.54-.88,3.29-3.1,3.44-3.54.14-.44-.07-.81.05-1.2.52-1.6,2.91-4.69,3.77-6.54,1.63-3.54,1.68-8.38,6.77-8.33,1.49.02,2.23.55,3.01,1.8.77,3.22,2.11,7.09,4.55,11.03.6.97,1.22,1.87,1.84,2.7-.91-1.34-1.33-2.74-1.55-3.77l2.13,2.86c-1.38-1.89-2.31-3.59-2.92-4.82-.61-1.24-2.04-4.32-2.45-7.88,0,0-.33-2.87.71-4.65.1-.17.21-.32.21-.32.12-.18.29-.39.5-.61.63-.68,1.56-1.44,2.32-1.56h0c.4-.21.83-.38,1.28-.52,1.37-.42,2.8-.56,4.22-.7,2.12-.2,4.24-.4,6.36-.61,1.03-.1,2.05-.2,3.08-.26-.14-.06-.24-.15-.26-.26.95.02,2.21.09,3.6.23.87.09,1.78.21,2.7.37,3.2.54,6.43,1.54,7.71,3.27,1.4,1.9,1.52,4.92,1.43,7.19.02,1.96-.22,6.01-2.81,9.92,0,0-.91,1.86-2.35,2.8-4.98,3.25-18.53,3.06-22.98-1.16l-.34-.46c-.19.31-.37.62-.55.94.28.41.61.82.99,1.21.46.47.95.86,1.47,1.18.23.15.48.28.73.4,2.42,1.18,5.48,1.19,9.46,1.21,5.02.02,9.88.04,13.19-3.41.98-1.02,1.57-2.08,1.92-2.84.04,1.49.72,2.85,1.01,4.27.51,2.44.79,6.33,1.97,8.59.22.43,1.05.88,1.11,1.21.03.16-.69,1.39-.73,2.06-.04.81.37,1.38.41,2.06.12,1.85-1.04,2.98,2.14,2.8-.66-.54-.21-1.12-.28-1.76-.69-6.3-1.97-11.72-3.56-17.84-.15-.57-.15-2.56-.6-2.9-.19-.13-.65,0-.71-.05-.11-.1.76-2.48.9-2.83.1-.25.03-.59.38-.51-.55,1.2.33,1.35.5,1.74,3.76,8.85,7.23,24.66,3.99,33.79-.14.38-.13,1.95-1,.78-.81-1.1.19-2.84.3-4.06.1-1.02.27-4.27.08-5.03-.09-.38-1.87-.84-2.33-.69-.37.36.67,5.31,1.09,5.62.31.22,1.24-.28.4.91-.29.42-1.07.71-1.18,1.38-.08.48.25.96.21,1.47-.11,1.67-1.15,4.41-.64,6.06.15.47,1.74,1.66,1.4,2.07-.27.31-1.43-1.33-1.8-1.29.07,1.38-.62,3.21-.55,4.52.02.44,1.01.48.55.89-.06.05-.55-.04-.77.12-.75.56.19,2.04,0,2.79-.12.49-1.56.13.24,1.6-.27.52-1.09.23-1.31.54-.1.14-.56,2.82-.66,3.36-.37,2.01-1.05,3.81-1.78,6-.16.48,0,1.03-.11,1.38-.05.18-2.03,2.57-2.32,2.88-1.39,1.52-.96-.51-.51-1.41-1.35.02-1.9,1.41-3.22,1.55l-.13-1.03c-.95.02-1.23,1.63-1.8.13,1.22-.62,3.05-1.55,2.96-2.96-.55.63-1.55,1.34-2.44,1.16.13-.93,2.09-1.93,2.29-2.23.11-.16-.23-.6-.22-.88.03-.37.4-.59.47-1.01.03-.21-.26-.61-.23-.65.17-.24,1.01.05,1.03,0,.07-.18-.2-.45-.22-.65,0-.08,1.01-.71.73-1.41l-.64.51c-.25-.88-.42-.33-1.16-.26.77-1.15-.19-1.26-.25-1.47-.05-.17-.29-1.88-.28-1.98,0-.1.89-.27.53-.93-.03-.05-.95.53-.51-.52l-3.47,1.29-.13-1.29.38.77c.9-.83,3.19-1.15,3.86-2.07.57-.78.29-3.34.39-4.37l-1,2.48c-.24.75-.18,1.41-.03,2.16-1.07.2-.25-1.98-.52-2.32-.92-.13-.22.29-.36.78-.07.25-.33.45-.41.65-.27.7.88-.2.51.5-1.76,3.35-1.23-1.43-2.31-1.93-.08.59-.13,1.54-.77,1.8.57-3.92-.81-.71-1.03,1.03l.77-.77c0,1.31-.83,2,.52,2.83-.32.06-1.45-.09-1.54,0-.07.07-.28,1.8-.27,1.9,0,.1,1.31.99,1.04,1.71l-1.54-1.03c.3.8-.66.86-.75,1.19h0ZM131.01,192.68c-.04.2-.99.71-1.02.66-.17-.18-.18-2.81.51-2.06.05.05.53,1.33.52,1.4h0ZM121.78,155.01l1.25-1.07c.07.38-.39,2.54-1.03,2.06l-.23-.98h.01ZM206.66,123.56c-.09-.06-.3-.13-.59-.19.2.09.4.18.6.28,0-.05,0-.09-.02-.09h0ZM206.66,123.56c-.09-.06-.3-.13-.59-.19.2.09.4.18.6.28,0-.05,0-.09-.02-.09h0ZM206.66,123.56c-.09-.06-.3-.13-.59-.19.2.09.4.18.6.28,0-.05,0-.09-.02-.09h0ZM206.66,123.56c-.09-.06-.3-.13-.59-.19.2.09.4.18.6.28,0-.05,0-.09-.02-.09h0ZM206.66,123.56c-.09-.06-.3-.13-.59-.19.2.09.4.18.6.28,0-.05,0-.09-.02-.09h0ZM206.66,123.56c-.09-.06-.3-.13-.59-.19.2.09.4.18.6.28,0-.05,0-.09-.02-.09h0ZM206.66,123.56c-.09-.06-.3-.13-.59-.19.2.09.4.18.6.28,0-.05,0-.09-.02-.09h0Z"/><path class="cls-3" d="M180.42,49.87c.27.27-.97,1.74-1.14,2.08-1.57,3.22-1.66,2.82-4.02,5.25-1.29,1.33-.75,1.62-1.07,3.05-.12.53-6.06,7.04-7,8.07-.87.96-4.46,5.07-5.29,5.37-.32.12-.9-.24-1.03-.11-.06.06.02.53-.14.75-.06.08-1.35,1.1-1.43,1.15-2.17,1.35-3.1,1.47-5.25,3.24-1.08.89-4.44,2.07-3.35-.25.72-.41,5.26-4.42,5.27-4.78,0-.27-.59-.42-.89-.39-.69.08-1.99,1.96-2.83,2.32-1.06-.9-.33-1.62-.25-2.31.09-.83-.03-2.02.51-2.83.28-.42.97-.38,1.1-.58.15-.23-.04-.76.3-1.11.31-.32,1.21-.28,1.43-.63.19-.3.07-.87.26-1.29.68-1.53,2.74-2.3,3.85-3.1.7-.51,3.09-2.62,3.67-2.79.86-.25,2.21.34,3.4-.44l5.09-5.23,1.21.21c1.13.83-1.75,1.52-1.85,1.62-.11.11-.63,1.84-.85,1.99-.08.05-.64-.35-.75-.25-.03.03,0,.5-.15.75-.18.28-.88.87-.88.93-.04.73,1.37-.17,1.52-.27,3.25-2.21,6.19-5.43,8.51-8.48.22-.29,1.76-2.23,2.05-1.94h0Z"/><path class="cls-3" d="M157.94,82.75c-12.64,13.08-24.59,24.17-34.9,39.38-3.01,4.44-6.21,10.88-9.91,14.55-.27.27-.44.61-.9.51.54-.95,1.03-2.23,1.56-3.13,7.62-12.82,17.4-24.64,27.64-35.51,8.46-8.97,17.16-17.73,25.49-26.78,1.82-1.98,3.93-3.95,5.66-5.93,1.44-1.65,1.33-2.06,2.19-3.67,1.09-2.06,3.9-4.5,5.51-6.65.76-1.02.84-2.26,2.2-2.81.6.76-4.39,8-5.19,9.1-3.88,5.37-8.65,9.87-13.21,14.6-2.04,2.12-4.1,4.23-6.14,6.35h0Z"/><path class="cls-3" d="M144.65,60.95c-.53.59-1.25,1.39-1.83,1.9-3.11,2.72-6.31,5.49-9.47,8.3-.51.45-.75,1.39-1.7,1.37-.15,0-1.36-.45-1.4-.51-.55-.81,1.05-1.26,1.4-1.53,3.54-2.78,6.25-5.41,10-8.02.93-.65,1.27-1.96,3-1.5h0Z"/><path class="cls-3" d="M144.39,73.57l2.3-2.73c.97-.41,1.6-1.26,2.33-2.03s2.28-3.32,3.22-3.24c1.26.11-.07,1.8-.51,2.34-1.19,1.44-4.7,4.25-6.3,5.29-.34.22-.49.52-1.04.38h0Z"/><path class="cls-3" d="M141.56,76.4c-.51.45-.76-.57-.28-1.18.69-.05,2.12-1.72,2.46-1.65,1.83.37-1.75,2.09-1.92,2.2-.25.16-.22.59-.27.63h0Z"/><path class="cls-3" d="M146.71,58.37c.16.96-.02,1.39-.89,1.8-2.48,1.17-.34-1.75.89-1.8Z"/><path class="cls-3" d="M121.23,79.75c.3.32-1.2,2.52-1.8,2.06-.06-.31,1.47-2.41,1.8-2.06Z"/><path class="cls-3" d="M138.47,71.25c-.04,1.98-2.67,1.38-1.13.28.32-.23.74-.32,1.13-.28Z"/><path class="cls-3" d="M125.35,76.15c.29.27-1.19,1.87-1.8,1.54-.38-.35,1.48-1.85,1.8-1.54Z"/><path class="cls-3" d="M123.29,77.95c.38.44-1.38,2.19-1.8,1.8-.04-.43,1.51-2.13,1.8-1.8Z"/><path class="cls-3" d="M174.58,147.92c1.8,1,3.06-.64,3.54-.58.17.02,1.87.82,1.93.91.14.21-.24.68-.15.79.26.29.98-.87,1.48-.97.23-.05,1.75.02,1.87.09.13.08,1.41,2.07,1.65,2.45.79,1.22.53.74,1.14,1.32.1.1.72,1.97,1.11,2.48.06.08,1.08-.36.73,1.34,1.02-.33.25-2.77.51-3.09.5.25.79.26,1.28,0l-.51,1.29c1.21-.05,1.42.44,2.1,1.13.16.17.46.14.48.16.11.15-.66.65-.51.76,1.65-.78,1.21.86,1.53,1.16.9.84,2.08.49,2.85,1.29-.48.41-1.32-.48-1.54.38,1.13.21,2.17,1.05,2.99,1.78,1.62-1.42,2.26,1.47,3.95.79v1.03c1.23-1.07,1.87.5,3.24.53.23,0,1.65-1.64.88.49l1.8-.25c.19.46-.51.77-.51.9,0,.48,1.48.59,1.54.65.06.05-.35,1.28-.13,1.55.24.3.97.19,1.14.66.1.28-.1,1.51-.24,1.64-.56.53-.92-1.86-1.54-1.29-.47.43.45.5.51.69.09.31-.03.67.14,1.1.27.66,1.15,1.2.63,2.33-.06.05-1.2-.76-1.3-.89-.61-.82.29-.93-1.52-.91.58,1.39-.14.9-.25,1.04-.49.62.79.29.5,1.02-1.19.16-1.89-.75-3.09-.25-.18.43,1.82,1.13,1.03,1.42s-1.11-.04-1.81-.13c.5.7-.2.47-.65,1.03l-.12-.77-1.03.26-.26-1.29-.64.51c-.94-1.08-1.62-1.49-1.68-3.09l-.5.26c-.02-.99-.88-1.33-1.61-1.82-.28-.19-.07-.7-.71-.24.35-1.3-.99-1.48-2.06-1.55.15-.31,1.35-.79,1.49-1.08.27-.58-1.41-2.5-1.48-3.37-1.26-1.61-1.57-2.74-3.2-4.06-.21-.17-.29-.63-.54-.76-.57-.3-.84,1.48-.98,1.72-.03.05-.67.81-.71.84-.11.08-2.45-1.11-2.55-1.02-.52.52.76.49.51.77-.66.73-1.89.7-2.64.02s-.17-1.18-.24-1.44c-.05-.18-.34-.09-.4-.25-.35-.95.76-.54.96-1.15l-2.31-.26c.27.49,0,1.07.04,1.43.06.47.47.72.47.76,0,.1-.27.51-.65.14-.28-.28-.25-.8-.63-.78l-.13,1.03-.9-.26c-.08-.49.51-.14.76-.28.03-.02-.25-.47,0-.75-.85.32-1.09.58-2.06.26-.13.12.49,1.66.49,1.95,0,.12-.75,0-.23.62-1.04-.39-1.26.41-1.34.45-.13.06-.86-.3-1.24.07v-1.16l-.51.13.13-1.54c-.55.44-.67,1.14-.65,1.8-.31.16-.32-1.12-.77-.52-.1.14.16.8-.13.78s.05-.82-.39-.39c-.47.84-.49,1.24-1.54,1.42l.77-1.29-.77.26c.35-.62.14-1-.51-1.29-.44.88.09,1.03.25,1.8l-.51.26.77.52c-1.37,0-2.2-.7-3.6-.26-.23-.84,1.16-.63,1.28-1.28l-.77-.13.25-.65c-.68.66-.61-.99-.77.26-.94-.16.1-1.74.77-1.81.1-.29-1.11-.48-1.17-.48-.19,0-.25.64-.5.74-.11.07-.17-1.02-.64-.51-.06.06.63,1.18.51,1.54-.76-.11-1.22.06-1.8.52-.06-.93,1.7-1.3.52-1.8-.1,1.3-1.93.55-2.73.54-.13,0-.09.4-.14.43-.17.07-.49-.22-.81-.15s-1.1,1.01-1.73.99l.26-1.03-1.55-.26c.5-.94-.38-1.6,0-2.58-.83.63-.41-.97-1.54-.26-.13-1.07.91-.45,1.01-.52.6-.43-.52-2.36.67-2.83.32.91-.14,2.02.51,2.83.43-1.45.94-.79,1.78-1.31.47-.29.94-1.38,1.56-1.79,1.56-1.03,3.6-1.98,5.2-3.16.29-.21.4-.86.86-1.07.72-.33,1.74,0,2.6-.24.6-.17.46-.63.5-.65.41-.25.7.49,1.02.63.88.38.94.45,1.62.82v-.02Z"/><path class="cls-3" d="M156.74,154.45c-1.39-.34-1.47-.93-2.48.32-.08.1.15.46-.08.59-.3.16-.61-.11-1.02,0-.77.22-1.01.77-1.54,1.04-.54.27-2.02.55-2.09.62-.05.05.36.68.26.77-.35.06-1.59.54-1.78.67-.23.16-.85,1.13-.97,1.14-.5.06-.96-.31-1.43-.22-.38.08-.9.8-1.47.73.28.67,1.53-.21,2.06,0,.08.49-.53.1-.74.3-.12.12.03.6-.05.69-.16.17-1.51-.05-1.91.04l.13-.52c-1.58-.16-.95,1.47-1.03,1.54-.52.47-3.42-2.56-3.6-.52l1.03.26c-.61-.06-1.34.09-1.92,0-.16-.02.03-1.03-.15-1.27-.92.16-3.73-.22-4.2.5-.48.73-.6,3.05-1.96,2.17-.16-.11-.71-1.16-1.54-.53-.73.55.06,3.11-2.31,1.96v.77c1.56.45,1.5-.52,1.81-.76.33-.25.88.6,1.01.51.04-.03.2-1.2.78-.65-.9,1.81-2.56,1.5-3.86,2.58l.77.13c.26.35-1.17,1.19,0,1.55l.26-.52c-.16.71-.34,1.72.65,1.74.22,0,.88-1.2,1.15-.33.03.09-1.23.87-1.4,1.16-.23.4-.33,1.7-.42,1.77-.18.15-.91-.07-1,.02-.25.23-.16,2.33,1.03,2.06.32-.57.12-1.46.24-1.91.08-.3.61-.02.81-.3.26-.35.22-1.2.23-1.65.95.7,1.16.49,1.29,1.62.17,1.56,1.72-1.73,1.8-2.01.04-.14-.86-.04-.52-.64.03-.04.7.29.9-.26l-.13,2.06c.8-1.25.79-.35,1.64-.5.18-.03.15-.53.31-.54.27,0,.78.3,1.27.29.2,0,2.45-.51,1.81.24-.16.19-.63.23-.65.26-.05.09.79.76.26,1.28,1.06-.53,1.89-.63,3.09-.51-.16.48-.73.14-1.3.63-.24.21-.71,1.06-.11,1.17.35.06.75-.54,1.14-.66,1.14-.33,1.47-.08,2.34.27,1.46.6.84-1.47,1.59-2.1.05-.04.72.06.84-.35l.64.52-.26-2.57.38,1.54c.11-.52.97-1.21,1.05-1.51.12-.44.06-1.51.11-1.57.44-.61.46.67.77.51l1.04-3.09,1.03.26c-1.51-1.09-.46-1.02-.28-1.48.27-.65.91-3.02,1.31-3.41.66-.63.28,1.21,1.02.77.43-1.72-.08-1.08-.25-1.29-.63-.77.65-.29.72-.31.23-.07.71-1.59,1.36-2.1.24-.19.66-.12.73-.18.03-.03-.22-.44-.14-.76.32-1.26,1.33-.41,1.43-.52.16-.17-.28-.92-.23-1,.08-.12.76-.15.74-.54v.03ZM134.1,162.18c-.25-.2.63-1.27,1.23-.96.06.03.61.82.82.96-.4-.08-1.91.12-2.06,0h0Z"/><path class="cls-3" d="M123.81,160.89c-.24.09-.99.56-1.03.52-.39-.4,1.08-.95,1.02-1.42.14-.74-.47-.05-.51-.12s.51-1.18.57-1.23c.16-.14,1.22.03.71-.57-.03-.04-.96.05-.51-.51.06-.08,1.31-.74,1.54-1.29-.12.62-.26,1.93-.55,2.41-.41.68-1.27.05-.99,1.19.44.12.13-.5.36-.49.05,0,1.03.21.92.49-.9.15-1.28.21-1.54,1.03.99-.35,1.49-.36,2.31-1.29-.02,1.2-1.49,1.58-1.03,2.96l-.51-.13c-.11,1.06,1.23,1.45,1.03,2.58-.59.34-.53-.55-.64-.52-.42.13-.85.35-.65.9.32.86,1.74-.46,1.8-.39-.23,1.2.62.7,1.55.78l-.77.77.51.38-.77,1.42c-.41.09-.31-.67-.26-.87.07-.29.63,0,.52-.42h-.77v1.8l.51.12-.9,1.42-.38-.77-.26,2.83-.78-2.17c1.17-1.36.01-2.15.53-3.76l.51-.12c-1.5-1.13-.76-.09-.84.47-.03.24-.32,1.02-.43,1.33-.16.46-.48.4-.52.56-.09.38.23,1.14-.26,1.11l-.26-1.8.51.26v-1.03l-.77-.13c.23-.51,1.41-.61.99-1.14-.04-.06-.37,0-.43-.06-.21-.27.64-1.24.71-1.65l-1.02-.89c-.54,1.31.28,1.33.26,1.41-.06.25-.6.72-.52,1.16l-.26-1.03-.51.26v-1.03l.51.51c.09-.75-.15-1.71.04-2.42.08-.3,1-.28,1.17-.75.12-.32.04-.55.08-.69v.02Z"/><path class="cls-3" d="M186.8,147.57c.09.06.15.43.49.64.61.36,1.42.8,2.14.84l-.26.51c.33.04.63-.21.93-.22.73,0,7.76,1.15,8.08,1.4.18.14.18.6.42.64.44.08,1.94-.58,2.66-.28v1.03c-3.61-.4-7.28-.54-10.82-1.41-.59-.15-1.86-.88-2.19-.89-.2,0-.24.8-.63.76-.31-.71-.68-1.44-1.06-2.11-.15-.27-.89-.37-.36-.98.21,0,.39-.06.59.07h.01Z"/><path class="cls-3" d="M152.37,183.82c-.52,1.27-1.41,2.15-1.79,3.49-.28,1,.14,2.26-1.3,2.95l.25-2.32c-1.02-.08-.64,1.56-.52,2.06-.92-.46-.55-1.55-.51-2.32l-.51.77.25-2.83-.52.77-.51-.51.52.92-.78,2.69c-.42-.74.2-1.49.2-1.98,0-.65-.81-.46-.04-1.61.51-.76,4.7-2.74,5.24-2.08h.02Z"/><path class="cls-3" d="M132.65,178.82c.06.11.4.1.43.27.04.28-.22.64-.18.95.14.93.5,1.75.17,2.74l.77-1.28c.38,3.36-.89,2.01-1.54,0l-.26,1.03c-1.82-.8-1-.83-.84-1.74.09-.51.11-2.05.39-2.31.04-.03.93-.36.96-.32.03.03-.06.4.1.67h0Z"/><path class="cls-3" d="M166.78,174.55c.29.4-2.19,1.23-2.27,1.33-.11.14-.08,1.31-.88,1.58-.65.22-.84-.07-1.11-.05-.2,0-.07.44-.12.48-.09.08-.51-.32-.51-.38,0-.17,1.49-2.85,1.72-2.99.07-.04,1.43-.2,1.5-.19.09,0,.27,1.25.5-.3l1.16.52h0Z"/><path class="cls-3" d="M170.9,178.41s.08.6.25.85c.12.18.52.15.52.32.05,1.93-1.74,3.26-.52,1.01-.64-.54-.69.6-.77,1.16l-.26-.51c-1.07,1.13-.88-.44-1.8-.9.54-.25,2.05-2.34,2.57-1.93h0Z"/><path class="cls-3" d="M174.82,182.71c.23.34,1.1.26.98,1.22-.02.15-.44.15-.53.32-.17.35-.56,1.89-.9,1.88-.25,0-.34-.72-.39-.77-.57-.5-.39.64-.76.51.04-.34-.06-3.24.77-2.57l.26.51c-.5-1.13.28-.85.26-1.8.46-.08.15.45.32.7h-.01Z"/><path class="cls-3" d="M121.6,186.28c.7.75.65.99,1.08,1.89.32.67,1.06.52.11,1.57,1.34-.49,1.15.24,1.54,1.29l-2.57-1.93c-.1-.26,1.02-.7.25-1.41-.56-.51-.4.65-.77.51l-.26-2.57c.32.04.41.44.62.66h0Z"/><path class="cls-3" d="M195.09,194.12c0-.37-.05-.7.06-1.09.16-.56,1.28-1.32.33-1.49-.78-.14-.47-.96,0-.77.6.25.97,1.81,1.68,2.19l-1.28-.13c-.08.43.64.25.71.62.04.22-.38,1.01-.19,1.44.56-.38.49-1.52,1.28-1.8.29.7-.53,1.25-.52,1.67,0,.19.57.1.53.25-.37,1.4-1.4,2.71-1.55.39l-.51.26c-.08-.37.13-1.34-.02-1.54-.07-.09-.43.03-.49,0-.02.81.6,2.48.51,2.58-.08.09-.42-.25-.62-.27-.12,0-.21,1.02-.66.53-.11-.12.52-.77.51-.9,0-.07-.42-.46-.51-.38s.21.62-.26.51c-.55-1.29-.54-1.97.38-3.09.25.57.12.65.64,1.03h0Z"/><path class="cls-3" d="M178.62,181.75c.26.89-.24,2.64.51,3.19.24.18.81-.3.8.81,0,.4-.9.91-1.18,1.15.17-1.09-.57-2.13-.65-3.21-.04-.49.22-.77.08-1.61-.09-.51-.04-.31.44-.33h0Z"/><path class="cls-3" d="M132.75,187.75c.15.15.82,1.65.85,1.89.05.45-.63.37-.53.88-.44.25-2.23-2.81-.9-3.02.1-.02.49.16.58.26h0Z"/><path class="cls-3" d="M164.98,182.53c-.07.97-.87,1.18-1.26,1.71-.2.29-.54,1.38-.67,1.37-1.1-.06.2-2.9.41-3.06.06-.05,1.26.22,1.52-.02h0Z"/><path class="cls-3" d="M132.04,186.39c.2-1.07-.4-.63-.7-.83-.5-.34.13-2.1-.33-2.78.99.65,2.65,2.94,1.03,3.61Z"/><path class="cls-3" d="M135.13,184.59c-1.13,1.26-.25,2-.26,3.35h-.77v-.78c-1.24.95-.28-2.34.04-2.53.25-.15.68,0,.99-.04h0Z"/><path class="cls-3" d="M170.64,175.06c.05-.04.1-.85.7-1s1.89.35,1.36.98c-.08.1-1.91.46-1.8,1.56l-.77-1.8c-.48.26-.51.74-1.14,1.05-.36.17-.79.02-1.17.24l1.04-2.05c.61-.42,1.6,1.15,1.79,1.02h0Z"/><path class="cls-3" d="M157.77,182.79l-1.11,1.71-1.2.99,1.8-.9c.19,2.31-1.15,1.29-1.99,1.96-.5.4-.26.93-.83,1.13.23-.42,0-1.4.06-1.64.08-.26,1.4-1.13,1.6-1.7.12-.35-.23-.85-.11-1.02.05-.08,1.5-.47,1.8-.53h-.02Z"/><path class="cls-3" d="M130.75,172.23c-.44.55,0,1.3-.17,1.74-.14.4-.74.42-.79.69-.1.67.89,2-.59,1.69.06-1.39.23-2.37.9-3.62.19-.36-.02-.63.65-.5h0Z"/><path class="cls-3" d="M205.62,193.85c-.08.05-.72.04-.75.02-.51-.49.84-3.23,1.54-3.61-.19.52-.63,3.49-.79,3.59Z"/><path class="cls-3" d="M167.55,185.36c-.51,1.21.21.97.26,1.2.1.44-.2,1.54-.78,1.63l-.13-.51c-.17.13-.79.89-.9.77-.49-.55.81-1.04.92-1.53.07-.33-1.07-1.3.62-1.56h.01Z"/><path class="cls-3" d="M159.62,162.12s1.03-.44.47.31c-.02.02-.31-.03-.5.19-.51.59-1.86,2.84-1.29.84l-.77-.13c.61-.76,1.53-.73,1.93-1.68.24-.04.06.36.17.46h0Z"/><path class="cls-3" d="M129.99,178.41c.36.16,1.05-2.11,1.28-.9.1.53-.97,1.65-.78,2.44l-.26-1.29c-.52-.06,0,.63-.51.51-.31-.77-.36-1.62.51-2.06l-.25,1.29h0Z"/><path class="cls-3" d="M180.16,183.04l.26-.51c-.02.42.04,1.44-.51,1.54-.68-1.64-1.73-2.17-.13-3.86.26.89-.75,2.24.38,2.83Z"/><path class="cls-3" d="M122.52,168.1c-.35.81.23,1.37.24,2.16.03,1.74-1.07,1.64-.99-.45.01-.29.12-2.01.75-1.71Z"/><path class="cls-3" d="M178.1,175.06c-.1.09-.6-.3-.79-.15s-.98,1.64-.76,1.95c-2.27-.04.54-2.49.91-2.57.44-.1.81.61.64.77h0Z"/><path class="cls-3" d="M127.15,175.06c-2.19-.27-.34-.98-.32-1.14.07-.52-.57-2.06.19-2.73l.13,3.86h0Z"/><path class="cls-3" d="M131.78,161.66l.13-.77-.77,1.29c-.47-1.05.6-2.05,1.41-2.58.19.79.41,1.96-.77,2.06h0Z"/><path class="cls-3" d="M158.8,184.08c-.35,1.5,1.38,1.26-.51,2.57l.25-1.03c-.6-.26-.75,1.33-1.02.14l1.28-1.68h0Z"/><path class="cls-3" d="M194.3,197.75s.54.62.54.66c.1.89-.43,1.34-1.29,1.11-.05-.4,0-2.18.75-1.78h0Z"/><path class="cls-3" d="M175.02,187.16l1.28-2.83c.41,1.21,0,2.44-1.28,2.83Z"/><path class="cls-3" d="M189.97,193.57c.11.13.59-.15.48.28-1.38.8-1.1-1.56-.77-2.57,1.07.28.14,2.12.28,2.29h.01Z"/><path class="cls-3" d="M194.32,191.8c-.74.12-.43-.15-.55-.59-.18-.65-.28-1.3-.22-1.98,1.62.26.39,1.6.77,2.57h0Z"/><path class="cls-3" d="M187.84,181.02c.78.48-.42,1.31-.34,2.02l-.9-2.06c.36.05.97-.13,1.24.04h0Z"/><path class="cls-3" d="M182.22,182.27c-.47.82.34,1.45.26,2.31l-.77-.77-.26,1.03c-.05-.29-.05-3.25.77-2.57h0Z"/><path class="cls-3" d="M193.28,191.81s.55.84.55.89c.02.5-.19.95-.29,1.42-.69-.2-1.19-2.92-.26-2.31h0Z"/><path class="cls-3" d="M186.34,183.56c-.84-.48-.78-1.75-.77-2.58,1.01.68,1.11,1.48.77,2.58Z"/><path class="cls-3" d="M121.33,178.31c.11.16.38.1.54.57.26.77-.43,2.11-.63.93-.12-.73-.07-1.34-.53-2.05.1-1.02.55.45.61.55h0Z"/><path class="cls-3" d="M166.52,183.3c-.68.64-1-1.56-.51-2.06.89.05.79,1.8.51,2.06Z"/><path class="cls-3" d="M129.8,156.98c.08.12.55-.12.44.3-1.85,0-1.05-1.37-.77-2.57.55.19.18,2.05.33,2.27Z"/><path class="cls-3" d="M171.16,164.5c.2,1.2-1.4,1.38-2.31,1.28.14-.77,1.33-.37,1.53-.54s-.39-1.03.79-.74h0Z"/><path class="cls-3" d="M120.97,176.86c-1.25,0-.4-1.78-.77-2.57.75.52.83,1.75.77,2.57Z"/><path class="cls-3" d="M118.91,184.33c-.76-.45-1.1-1.98-.38-2.57.4.78.42,1.71.38,2.57Z"/><path class="cls-3" d="M160.6,181.24c.43.35-.78.8-.77,1.09l-1.03.71c.09-.26.03-1.19.12-1.3.06-.07,1.61-.55,1.67-.5h.01Z"/><path class="cls-3" d="M134.35,181.75l-.77-2.83c1.17.76,1,1.64.77,2.83Z"/><path class="cls-3" d="M207.44,118.9c-.53-.1-1.94.18-2.27-.04-.03-.02-.34-.71-.31-.73.18-.12.85.25.77-.26-1.16.19-1.24-1.19-1.57-1.85-1.06-2.13-2.42-4.61-3.54-6.87-.69-1.39-1.3-2.82-2.09-4.16l.88.54c2.9,4.32,5.61,8.8,8.13,13.37h0Z"/><path class="cls-3" d="M93.39,140.29c3.19-12.43,8.39-24.36,15.47-35.07,3.15-4.88,6.53-9.68,10.13-14.24,11.65-14.56,26.04-26.93,41.69-37.02l.06.08c-3.75,2.76-7.44,5.59-11.05,8.52-14.21,11.86-28.38,24.34-38.62,39.92-4.7,7.34-8.5,15.21-12,23.18-2.04,4.81-3.89,9.7-5.58,14.66l-.1-.03h0Z"/><path class="cls-3" d="M129.91,92.87c2.25-3.18,4.76-6.17,7.51-8.92,1.4-1.35,2.87-2.63,4.3-3.95,2.79-2.62,5.69-5.38,8.71-7.75,4.45-3.75,8.79-7.56,13.22-11.36l.07.07c-3.76,4.47-8.05,8.49-12.69,12.03-3.08,2.35-6.35,4.46-9.08,7.24-1.35,1.35-2.66,2.86-3.92,4.29-1.13,1.27-2.79,2.99-3.96,4.24-1.34,1.4-2.67,2.81-4.08,4.15l-.08-.07h0v.03Z"/><path class="cls-3" d="M98.77,162.62c-.97-10.64,2.23-21.61,7.54-30.78,2.35-4.05,5.32-7.71,8.28-11.33,7.13-8.81,14.41-17.56,22.7-25.32,11.65-10.84,23.11-22.19,33.48-34.28l.08.06c-3.24,4.24-6.67,8.33-10.2,12.34-3.55,3.99-7.2,7.89-11.01,11.64-7.68,7.41-15.75,14.36-23.07,22.12-5.48,5.81-10.58,11.99-15.28,18.45-6.12,8.64-10.46,18.63-11.94,29.14-.36,2.63-.58,5.29-.47,7.94h-.1v.02Z"/><path class="cls-3" d="M126.88,222.51l-.13-.06c-4.37-1.98-8.53-4.4-12.37-7.2-17.6-12.83-25-30.96-27.85-40.63-3.43-11.67-4.07-23.95-1.88-36.49,1.77-10.17,4.98-17.86,6.35-21.15,6.24-14.99,15.36-25.25,27.97-39.47,1.99-2.24,8.03-9.05,17.16-16.43,4.05-3.28,9.09-6.33,19.12-12.41,4.36-2.64,9.31-5.64,14.56-4.66,1.54.29,3.9,1.07,6.03,2,2.37,1.03,4.24,1.85,6.21,3.61.33.29.52.49.73.7.25.25.5.51,1.01.97,1.78,1.59,3.3,2.56,3.94,2.97,1.43.91,2.86,1.86,4.25,2.78,2.55,1.69,5.19,3.43,7.86,5,23.66,13.94,34.99,32.42,35.1,32.61,5.19,8.6,11.18,23.08,10.24,43.19-.88,18.89-8.33,32.19-12.79,40.14-8.1,14.44-19.3,26.74-33.3,36.57l-.11.07-72.13,7.87.03.02ZM167.67,44.84c-3.78,0-7.4,1.99-11.89,4.71-10,6.05-15.01,9.09-19.01,12.33-9.06,7.33-15.07,14.09-17.04,16.32-12.55,14.14-21.62,24.36-27.8,39.19-8.24,19.77-9.73,38.93-4.43,56.96,2.81,9.54,10.11,27.44,27.47,40.1,3.75,2.73,7.81,5.1,12.07,7.04l71.6-7.81c13.82-9.72,24.89-21.89,32.89-36.16,4.41-7.87,11.79-21.04,12.66-39.7.92-19.86-4.98-34.14-10.1-42.62-.11-.18-11.32-18.46-34.75-32.26-2.7-1.59-5.35-3.34-7.91-5.03-1.38-.91-2.81-1.86-4.23-2.76-.67-.43-2.24-1.43-4.08-3.07-.54-.48-.82-.76-1.06-1.01-.21-.21-.38-.39-.69-.66-1.85-1.65-3.65-2.44-5.94-3.44-2.06-.9-4.35-1.66-5.81-1.93-.66-.12-1.32-.18-1.97-.18l.02-.02Z"/><path class="cls-3" d="M180.4,125.89c-.21.22-.38.43-.5.61-.07.11-.14.22-.21.32.05-.12.11-.24.18-.36.14-.23.32-.41.53-.58h0Z"/><path class="cls-3" d="M206.84,138.14c-1.12-.05-1.03-.52-.13-.91-.3-.85-.55-.55-1.28-.77,2.8-1.41.98-1.52.1-2.77-.24-.34-.18-.96-.42-1.14-.13-.1-.54.02-.64-.09-.11-.11-.05-.72-.29-1.12-.15-.25-2.97-2.75-3.23-2.9-.43-.24-1.25-.23-1.35-.33-.11-.12.04-.6-.05-.69-.16-.16-.91.06-1-.03-.04-.03-.04-.88.05-.98.1-.13.81-.04.98-.42l-.77-.25.77-.64c-.28.06-.46.06-.58.02-.08.03-.16.05-.25.07-1.83.35-3.74,0-5.56.37-.32.07-.65.16-.97.25.15.3.25.54.21.57-.63-.07-1.31.11-1.53.77l.76.26c-.52.2-1.43.3-1.86.56-.36.22-1.37,1.4-1.7,1.59-.22.13-.58-.14-.91.12-.26.2-.33.73-.4.78-.05.04-1.19-.2-1.24-.25-.13-.13.1-.87-.02-1-.06-.06-1.42-.02-1.67-.52-.22-.35,1.15-2.24.34-2.77-.24-.16-.79.17-.71-.3,1.62.28,2.74.6,2.56-1.54,1.14,1.28,1.71.35,2.43.34.27,0,.56.38.77.36.26-.02.9-1.13,1.79-.64.16-.04.35-.05.53-.07,1.5-.14,3-.28,4.5-.43.22-.02.45-.04.67-.05,0-.12,0-.25.03-.39s2.42-.69,2.82-.65c-.33.85-.8.64-1.53.51.15.4.91.82,1.27.91.87.22,2.73-.47,2.05.62,1.48-.45,2.64.58,4.09.52-.03.61-1.14.34-1.28.51-.63.77,1.8.47,2.04.51.07.4-1.96.24-1.53.76.19.23,3.28.53,2.81-1.02l-.77-.25.76-.77-4.34-.52c-.15-.31,1.09-.3.51-.76-.12-.1-2.52.07-3.06-.26.06-.58,1.26-.09,1.53-.26.02-.01-.22-.4-.13-.51.67-.84,2.23.53,2.68-.5-2.26-.08-4.53.14-6.76.52-.39-.25.79-.7.84-.71.52-.1.88.12,1.32.08.35-.03,1.49,0,1.54-.4-3.24-.15-6.47-.26-9.71,0-2.31.39-4.9.9-7.15,1.53-.25.16-.67.48-.77.77l1.02-.25c-.04,1.22-1.69.96-1.76,1.05-.06.09.03.47-.11.64-.49.6-1.21.98-1.18,1.99.04,1.55,1.96,1.84,1.25,3.28-.17.34-.74.07-.37.45.58,0,1.98,1.24,2.1,1.27.77.16,1.79-.15,2.63.27-.42.49-.94.81-1.27,1.41-.1.18-.48.26,0,.51,1.01.54,3.94.63,5.11.38-.17-.9-1.24-.5-1.53-1.02,1.09-.12,1.5-1.44,2.81-1.28,0,.68.33,1.3.42,1.96.04.26-.23.74-.17.84.13.19,4.02.99,4.51,1.01,1,.04,2.43-.9,2.13.53-.97-.43-2.18.14-3.22.23-.6.05-1.33-.63-1.63.28.69-.13.39.72.65.79.62.17,1.44-.22,2.03-.21.56,0,2.37.43,2.51.4.59-.11.89-1.22,1.08-1.24,2.09-.16,5.04,3.55,6.6,3.34.52-.07,1.67-2.04,1.67-2.18,0-.77-1.98-.09-2.42-.11v-.03ZM192.82,121.8l1.63-.03c-.12.42-1.39.68-1.72.7-.61.04-1.22-.3-1.85-.2l1.94-.48h0ZM199.34,129.9c-.09-.08.09-.42-.16-.47-.57-.13-.3.35-.43.45-.65.46-1.39-.4-1.82-.39-.85.02-4.65.88-5.74,1.15-.91.22-1.34,1.02-2.61.33,2.32-2.54,6.34-3.72,9.64-2.61.29.1,1.84,1.08,1.85,1.21,0,.1-.48.54-.73.34h0Z"/><path class="cls-3" d="M137.93,129.94c-.05.08-1.6.75-1.7.77-1.44.22-.5-1.22-.15-1.25.29-.03.64.23.95.2.27-.03,1.7-.99.9.29h0Z"/><path class="cls-3" d="M140.27,126.89c-.03.26-1.38.72-1.46.72-.26.02-2.07-1.2-1.37.05h-1.29v-1.03c.98.55.7-.24.93-.28.66-.11,2.27.87,3.19.54Z"/><path class="cls-3" d="M142.33,126.11l-3.09-.26c-.1-.1.47-.74.52-.9.06-.21-.95.04-.26-.52l1.8.14-1.03.51c.48.15.98.31,1.45.5.37.14.75-.25.61.54h0Z"/><path class="cls-3" d="M146.97,123.03c-.26.5-1.44.72-1.94.79-.78.11-1.4.04-2.18-.02.09-.53.79.03.26-.77,1.38.44,2.48.1,3.86,0Z"/><path class="cls-3" d="M150.06,122.51l-1.37.16-2.23-.41c1.01-.32,3.04-.9,3.6.25h0Z"/><path class="cls-3" d="M211.76,137.88c-.05.09-.37.37-.62.79-.17.29-.09.66-.58.22-.2-.18-1.85-3.96-.86-4.27,1.06-.29,1.1.95,1.37.78-.16-.83,1.11-.62,1.26-.8.1-.12,0-.71.11-1.04.08-.27.4-1.19.7-1.24-.09,1.75-.52,4.04-1.38,5.57h0Z"/><path class="cls-3" d="M206.41,138.52c1.02,2.64-2.52-.22-2.53-.42-.05-.72,2.29.4,2.53.42Z"/><path class="cls-3" d="M156.53,125.1s-.23.35-.03.65c.1.14,2.32,2.36,2.47,2.45,2.7,1.63,2.77-1.25,4.77-2.07.22,1.81-.48,4.7-2.57,4.63l.26-.51c-1.34-.35-2.87-.36-3.11-2.05l-.45.2c-1.44-2.61-5.13-2.86-7.82-2.47-1.18.17-4.33,1.08-4.32,2.51-.16.12-.37-.51-.77-.39-.33.1-2.59,2.18-2.32,2.45.57-.27,1.68-.05,2.15-.24.31-.13.05-.62.32-.81.39-.28,1.52-.25,1.97-.49.91-.5.56-.31,1.46-.65.4-.15,1.02-.69,1.32-.76.13-.03,2.3.12,2.66.15.31.03,2.86.67,2.96.78.12.13,0,.52.03.74l.38-.51,2.16,1.45c.23.8.95.48,1.23.69.33.24,1.39,1.62,1.11,1.98-.41.52-.54-.43-.57-.44-.68-.37-1.21-.08-.97.7,1.72-.15,1.55.9-.08.94-.31,0-2.65-.33-2.75-.42-.05-.04.58-1.34-.13-1.28-.43.03-.26,1.12-.54,1.31-.31.22-3.38.79-3.77.7-.99-.23-2.23-1.89-2.27-2.92-.03-.67.57-1.24-.11-1.67-.94-.04-1.25,1.13-1.68,1.4-.63.4-1.56.13-2.14,1.17-.15.26.04.74-.22.97-.44.38-2.12.76-2.77.84,1,.3,2.23.58,3.64.72,1.94.19,3.62.06,4.91-.13-1.59.43-2.92.57-3.9.6-1.54.06-3.05-.09-3.35.59-.09.19-.05.39,0,.54-2.85-1.54-5.01-.49-7.72.77-.35-1.16,1.27-1.89,1.54-2.71.19-.56-.3-.33-.58-.38l-.19-.52c.61.04,1.21-.04,1.49-.64-.5-.7-.47-1.14-.2-1.93l-1.29.25.77-.92c1.13.71,2.4-.03,3.63-.24v-.61c1.51-.02,1.01-.61,1.29-1.02.04-.05.85.17,1.19-.38.14-.23.02-.63.07-.69.02-.03.43.24.77.15,1.27-.34,3.55-1.65,5.21-2.22.2-.07.18-.46.31-.46,2.08,0,3.39.11,5.45.41.33.05.92-.29,1.12-.18v-.03Z"/><path class="cls-3" d="M141.6,121.23c.14,1.6-1.34,1.8-2.57,1.55l.51,1.03c-1.06-.29-1.7-.16-2.57.52-.32-.39,1.95-2.68,2.83-1.8l-.26-.77,2.06-.52h0Z"/><path class="cls-3" d="M154.91,121.57c.06.02.25.55.59.43l-.77.26.26.51c-1.41-.67-2.69,1.2-3.86-.39,1.66-.2,1.99-1.3,3.78-.82h0Z"/><path class="cls-3" d="M162.65,123.11c.39.57-.54.91,1.34.44l-.47.28c.6,1.06-1.56.29-1.07-.54l-.9.52-.16-.46c-.72.27-1.04.18-1.5-.45.4-.8,2.49-.21,2.77.2h0Z"/><path class="cls-3" d="M159.62,122.01l-1.01,1.11-.53.18c.1-.7-.46-1.03-.78-1.54l2.32.26h0Z"/><path class="cls-4" d="M384.13,93.13c-.76.45-1.14,1.17-1.14,2.16s.34,1.71,1.02,2.16c.68.45,1.55.68,2.63.68h2.78c3.58,0,6.6.87,9.06,2.6,2.45,1.73,3.68,4.47,3.68,8.22,0,3.38-1.22,6.06-3.65,8.04-2.43,1.98-5.85,2.97-10.26,2.97s-8.38-1.05-11.28-3.15c-2.91-2.1-4.44-5.03-4.61-8.78h9.64c.04,1.48.62,2.63,1.73,3.43,1.11.8,2.51,1.21,4.2,1.21s2.85-.34,3.74-1.02c.89-.68,1.33-1.6,1.33-2.75,0-1.32-.48-2.3-1.45-2.94-.97-.64-2.28-.96-3.93-.96h-2.23c-3.17,0-6-.73-8.47-2.19-2.47-1.46-3.71-4.07-3.71-7.82,0-3.09,1.06-5.42,3.18-6.98,2.12-1.57,4.83-2.35,8.13-2.35h4.39v-4.57h-20.77v-8.1h37.03v8.1h-6.86v11.37h-11.31c-1.15,0-2.11.23-2.87.68Z"/><path class="cls-4" d="M425.2,65.04c-2.47,2.37-6.18,3.55-11.13,3.55s-8.64-1.18-11.09-3.55c-2.45-2.37-3.68-5.53-3.68-9.49h8.34c0,1.73.53,3.14,1.58,4.23,1.05,1.09,2.67,1.64,4.85,1.64s3.81-.55,4.88-1.64c1.07-1.09,1.61-2.5,1.61-4.23h8.34c0,3.96-1.24,7.12-3.71,9.49ZM409.25,118.72v-37.64h-6.06v-8.1h21.82v8.1h-6.06v37.64h-9.7Z"/><path class="cls-4" d="M428.2,117.58c-1.17-1.09-1.76-2.44-1.76-4.05s.59-3.03,1.76-4.14,2.69-1.67,4.54-1.67,3.31.56,4.48,1.67,1.76,2.49,1.76,4.14-.59,2.96-1.76,4.05c-1.17,1.09-2.67,1.64-4.48,1.64s-3.37-.55-4.54-1.64Z"/><path class="cls-4" d="M507.66,81.08h-6.06v37.64h-9.77v-20.77h-7.97v2.91c0,4.41-1.14,7.86-3.43,10.35-2.29,2.49-5.59,3.74-9.92,3.74-2.68,0-5.05-.52-7.11-1.55-2.06-1.03-3.65-2.49-4.76-4.39-1.11-1.9-1.67-4.1-1.67-6.61,0-4.04,1.31-7.11,3.93-9.21,2.62-2.1,5.94-3.15,9.98-3.15h3.96v-8.96h-21.39v-8.1h54.21v8.1ZM474.84,97.95h-3.71c-1.53,0-2.76.39-3.71,1.17-.95.78-1.42,1.88-1.42,3.28s.4,2.42,1.21,3.18c.8.76,1.84,1.14,3.12,1.14,1.44,0,2.55-.48,3.34-1.45.78-.97,1.17-2.28,1.17-3.93v-3.4ZM491.83,81.08h-7.97v8.96h7.97v-8.96Z"/><path class="cls-4" d="M558.53,81.08h-6.06v37.64h-9.77v-22.56h-7.79c1.07,1.94,1.61,4.06,1.61,6.37,0,2.51-.59,4.68-1.76,6.49-1.17,1.81-2.74,3.17-4.7,4.08-1.96.91-4.13,1.36-6.52,1.36s-4.77-.53-6.89-1.58c-2.12-1.05-3.82-2.57-5.1-4.57-1.28-2-1.92-4.34-1.92-7.02,0-2.84.66-5.26,1.98-7.26,1.32-2,3.09-3.49,5.32-4.48,2.23-.99,4.7-1.48,7.42-1.48h18.36v-6.98h-37.15v-8.1h52.97v8.1ZM527.38,104.84c.95-.93,1.42-2.13,1.42-3.62s-.47-2.7-1.42-3.65c-.95-.95-2.18-1.42-3.71-1.42s-2.78.47-3.77,1.42c-.99.95-1.48,2.16-1.48,3.65s.48,2.69,1.45,3.62c.97.93,2.23,1.39,3.8,1.39s2.76-.46,3.71-1.39Z"/><path class="cls-4" d="M610.64,81.08h-6.06v37.64h-9.77v-20.77h-7.97v2.91c0,4.41-1.14,7.86-3.43,10.35-2.29,2.49-5.59,3.74-9.92,3.74-2.68,0-5.05-.52-7.11-1.55-2.06-1.03-3.65-2.49-4.76-4.39-1.11-1.9-1.67-4.1-1.67-6.61,0-4.04,1.31-7.11,3.93-9.21,2.62-2.1,5.94-3.15,9.98-3.15h3.96v-8.96h-21.39v-8.1h54.21v8.1ZM577.82,97.95h-3.71c-1.53,0-2.76.39-3.71,1.17-.95.78-1.42,1.88-1.42,3.28s.4,2.42,1.21,3.18c.8.76,1.84,1.14,3.12,1.14,1.44,0,2.55-.48,3.34-1.45.78-.97,1.17-2.28,1.17-3.93v-3.4ZM594.81,81.08h-7.97v8.96h7.97v-8.96Z"/><path class="cls-4" d="M630.36,72.98v8.1h-6.06v37.64h-9.7v-37.64h-6.06v-8.1h6.43c-1.65-2.51-2.98-4.33-3.99-5.44-1.01-1.11-2.06-1.86-3.15-2.26-1.09-.39-2.59-.59-4.48-.59h-3.21v-7.79h3.03c3.46.04,6.19.41,8.19,1.11,2,.7,3.95,2.16,5.84,4.39,1.89,2.23,4.18,5.75,6.86,10.57h6.31Z"/><path class="cls-4" d="M645.16,92.98c-.72.47-1.08,1.23-1.08,2.26,0,1.2.56,2.08,1.67,2.66.87-.12,1.77-.19,2.72-.19,4.37,0,7.76,1.05,10.17,3.15s3.82,4.88,4.23,8.34h-9.27c-.25-1.03-.85-1.93-1.79-2.69-.95-.76-2.14-1.14-3.59-1.14-1.65,0-3.01.56-4.08,1.67-1.07,1.11-1.61,2.6-1.61,4.45s.53,3.4,1.58,4.51c1.05,1.11,2.42,1.67,4.11,1.67,1.36,0,2.52-.36,3.49-1.08.97-.72,1.6-1.6,1.89-2.63h9.27c-.33,3.54-1.82,6.38-4.48,8.5-2.66,2.12-6.05,3.18-10.17,3.18-3.09,0-5.78-.59-8.07-1.76s-4.05-2.84-5.29-5.01c-1.24-2.16-1.85-4.69-1.85-7.57,0-2.39.48-4.51,1.45-6.37.97-1.85,2.34-3.36,4.11-4.51-2.76-1.69-4.14-4.06-4.14-7.11,0-2.43.9-4.36,2.69-5.78,1.79-1.42,4.23-2.13,7.32-2.13h4.94v-4.33h-21.08v-8.1h38.26v8.1h-7.91v11.19h-10.76c-1.11,0-2.03.24-2.75.71Z"/><path class="cls-4" d="M717.45,81.08h-6.06v37.64h-9.77v-22.56h-7.79c1.07,1.94,1.61,4.06,1.61,6.37,0,2.51-.59,4.68-1.76,6.49-1.17,1.81-2.74,3.17-4.7,4.08-1.96.91-4.13,1.36-6.52,1.36s-4.77-.53-6.89-1.58c-2.12-1.05-3.82-2.57-5.1-4.57-1.28-2-1.92-4.34-1.92-7.02,0-2.84.66-5.26,1.98-7.26,1.32-2,3.09-3.49,5.32-4.48,2.23-.99,4.7-1.48,7.42-1.48h18.36v-6.98h-37.15v-8.1h52.97v8.1ZM686.3,104.84c.95-.93,1.42-2.13,1.42-3.62s-.47-2.7-1.42-3.65c-.95-.95-2.18-1.42-3.71-1.42s-2.78.47-3.77,1.42c-.99.95-1.48,2.16-1.48,3.65s.48,2.69,1.45,3.62c.97.93,2.23,1.39,3.8,1.39s2.76-.46,3.71-1.39Z"/><path class="cls-4" d="M787.89,59.94c5.01,3.5,7.51,8.37,7.51,14.59v1.05h-9.52v-.8c0-4.12-1.75-7.18-5.25-9.18-3.5-2-8.88-3-16.13-3-6.84,0-11.87.83-15.08,2.5s-4.94,4.3-5.19,7.88h6.06v8.1h-6.06v37.64h-9.7v-37.64h-6.06v-8.1h6.06c.58-12.2,10.63-18.3,30.16-18.3,10.47,0,18.2,1.75,23.21,5.25Z"/><path class="cls-4" d="M801.45,81.08h-6.06v37.64h-9.7v-18.54h-22.99v6.06c0,1.4.34,2.55,1.02,3.43.68.89,1.68,1.33,3,1.33,1.24,0,2.19-.41,2.87-1.24.68-.82,1.02-1.87,1.02-3.15v-.8h9.33c.04.37.06.82.06,1.36,0,3.71-1.16,6.66-3.49,8.84-2.33,2.19-5.53,3.28-9.61,3.28-2.93,0-5.43-.59-7.51-1.76-2.08-1.17-3.65-2.78-4.7-4.82-1.05-2.04-1.58-4.36-1.58-6.95v-12.49h4.57c3.17,0,5.43-.71,6.77-2.13,1.34-1.42,2.01-3.41,2.01-5.96v-4.08h-18.3v-8.1h53.28v8.1ZM785.69,81.08h-9.52v4.08c0,2.68-.49,5.05-1.48,7.11h11v-11.19Z"/><path class="cls-4" d="M807.63,69.43c-1.11,1.09-2.45,1.64-4.02,1.64s-2.9-.55-3.99-1.64c-1.09-1.09-1.64-2.42-1.64-3.99s.55-2.89,1.64-3.99c1.09-1.09,2.42-1.64,3.99-1.64s2.91.55,4.02,1.64c1.11,1.09,1.67,2.42,1.67,3.99s-.56,2.9-1.67,3.99Z"/><path class="cls-4" d="M816.2,92.98c-.72.47-1.08,1.23-1.08,2.26,0,1.2.56,2.08,1.67,2.66.87-.12,1.77-.19,2.72-.19,4.37,0,7.76,1.05,10.17,3.15s3.82,4.88,4.23,8.34h-9.27c-.25-1.03-.85-1.93-1.79-2.69-.95-.76-2.14-1.14-3.59-1.14-1.65,0-3.01.56-4.08,1.67-1.07,1.11-1.61,2.6-1.61,4.45s.53,3.4,1.58,4.51c1.05,1.11,2.42,1.67,4.11,1.67,1.36,0,2.52-.36,3.49-1.08.97-.72,1.6-1.6,1.89-2.63h9.27c-.33,3.54-1.82,6.38-4.48,8.5-2.66,2.12-6.05,3.18-10.17,3.18-3.09,0-5.78-.59-8.07-1.76s-4.05-2.84-5.29-5.01c-1.24-2.16-1.85-4.69-1.85-7.57,0-2.39.48-4.51,1.45-6.37.97-1.85,2.34-3.36,4.11-4.51-2.76-1.69-4.14-4.06-4.14-7.11,0-2.43.9-4.36,2.69-5.78,1.79-1.42,4.23-2.13,7.32-2.13h4.94v-4.33h-21.08v-8.1h38.26v8.1h-7.91v11.19h-10.76c-1.11,0-2.03.24-2.75.71Z"/><path class="cls-4" d="M404.99,155.58v9.15c.95-1.36,2.23-2.42,3.83-3.18,1.61-.76,3.46-1.14,5.56-1.14,2.55,0,4.77.61,6.64,1.82,1.87,1.22,3.32,2.89,4.33,5.01,1.01,2.12,1.51,4.48,1.51,7.08,0,2.97-.54,5.53-1.61,7.7-1.07,2.16-2.58,3.81-4.51,4.94-1.94,1.13-4.14,1.7-6.61,1.7-1.65,0-3.17-.21-4.57-.62v-7.48c.53.16,1.19.25,1.98.25,1.65,0,2.98-.55,3.99-1.64,1.01-1.09,1.51-2.54,1.51-4.36s-.52-3.23-1.58-4.39c-1.05-1.15-2.44-1.73-4.17-1.73-2.06,0-3.63.72-4.7,2.16-1.07,1.44-1.61,3.32-1.61,5.63v16.75h-9.7v-13.35c-2.06,2.31-4.92,3.46-8.59,3.46-4.24,0-7.52-1.42-9.83-4.27-2.31-2.84-3.46-6.57-3.46-11.19v-12.3h-5.25v-8.1h62.99v8.1h-26.15ZM395.28,155.58h-12.18v12.3c0,2.23.5,4,1.51,5.32,1.01,1.32,2.52,1.98,4.54,1.98s3.44-.64,4.51-1.92c1.07-1.28,1.61-2.88,1.61-4.82v-12.86Z"/><path class="cls-4" d="M395.84,147.79c-1.69-2.64-3.05-4.53-4.08-5.69-1.03-1.15-2.09-1.93-3.18-2.32-1.09-.39-2.61-.59-4.54-.59h-3.21v-7.79h3.03c3.46.04,6.2.42,8.22,1.14,2.02.72,3.99,2.2,5.9,4.45,1.92,2.25,4.23,5.84,6.95,10.79h-9.09Z"/><path class="cls-4" d="M475.58,155.58v6.55c2.35,1.07,4.21,2.76,5.59,5.07,1.38,2.31,2.07,5.15,2.07,8.53,0,3.05-.62,5.75-1.85,8.1s-3.06,4.19-5.47,5.53c-2.41,1.34-5.31,2.01-8.68,2.01-.82,0-1.52-.02-2.1-.06v-8.47l1.67.12c2.02,0,3.63-.64,4.82-1.92,1.19-1.28,1.79-3.01,1.79-5.19,0-1.94-.48-3.5-1.45-4.7-.97-1.19-2.34-1.79-4.11-1.79-1.9,0-3.3.68-4.2,2.04-.91,1.36-1.36,3.11-1.36,5.25v1.48h-8.04v-1.48c0-2.1-.45-3.84-1.36-5.22-.91-1.38-2.27-2.07-4.08-2.07s-3.21.59-4.2,1.76c-.99,1.17-1.48,2.75-1.48,4.73,0,2.19.6,3.92,1.79,5.19,1.19,1.28,2.8,1.92,4.82,1.92l1.67-.12v8.47c-.58.04-1.28.06-2.1.06-3.38,0-6.27-.67-8.68-2.01-2.41-1.34-4.23-3.18-5.47-5.53s-1.85-5.05-1.85-8.1c0-3.25.64-6,1.92-8.22,1.28-2.23,2.98-3.89,5.1-5.01,2.12-1.11,4.48-1.67,7.08-1.67,2.76,0,5.02.65,6.77,1.95,1.75,1.3,3.08,3,3.99,5.1h.19c1.61-3.63,4.18-5.85,7.73-6.68v-5.62h-37.09v-8.1h58.6v8.1h-11.99Z"/><path class="cls-4" d="M507.29,147.48v8.1h-6.06v37.64h-9.7v-37.64h-6.06v-8.1h6.43c-1.65-2.51-2.98-4.33-3.99-5.44-1.01-1.11-2.06-1.86-3.15-2.26-1.09-.39-2.59-.59-4.48-.59h-3.21v-7.79h3.03c3.46.04,6.19.41,8.19,1.11,2,.7,3.95,2.16,5.84,4.39,1.89,2.23,4.18,5.75,6.86,10.57h6.31Z"/><path class="cls-4" d="M560.51,155.58h-6.06v37.64h-9.7v-21.88h-7.11v1.85c0,2.68-.57,5.07-1.7,7.17-1.13,2.1-2.75,3.74-4.85,4.91-2.1,1.17-4.57,1.76-7.42,1.76-4.53,0-8.03-1.27-10.48-3.8-2.45-2.53-3.68-5.88-3.68-10.04v-10.14h9.77v9.89c0,1.77.38,3.15,1.14,4.14.76.99,1.86,1.48,3.31,1.48s2.48-.49,3.24-1.48c.76-.99,1.14-2.37,1.14-4.14v-9.89h16.63v-7.48h-39.5v-8.1h55.26v8.1ZM527.78,200.24c-1.09,1.05-2.44,1.58-4.05,1.58s-2.9-.54-3.99-1.61c-1.09-1.07-1.64-2.37-1.64-3.89,0-1.61.55-2.97,1.64-4.08,1.09-1.11,2.42-1.67,3.99-1.67s2.96.56,4.05,1.67c1.09,1.11,1.64,2.47,1.64,4.08s-.55,2.87-1.64,3.93Z"/><path class="cls-4" d="M615.46,155.58h-6.06v37.64h-9.7v-13.78l-.19.25-12.24,15.14h-10.51l10.82-12.18c-3.5-.62-6.18-2.3-8.04-5.04-1.85-2.74-2.78-6.15-2.78-10.23v-11.81h-5.25v-8.1h43.95v8.1ZM599.7,155.58h-13.23v11.81c0,2.39.55,4.29,1.64,5.69,1.09,1.4,2.75,2.1,4.98,2.1,2.1,0,3.73-.68,4.88-2.04,1.15-1.36,1.73-3.09,1.73-5.19v-12.36Z"/><path class="cls-4" d="M635.18,147.48v8.1h-6.06v37.64h-9.7v-37.64h-6.06v-8.1h6.43c-1.65-2.51-2.98-4.33-3.99-5.44-1.01-1.11-2.06-1.86-3.15-2.26-1.09-.39-2.59-.59-4.48-.59h-3.21v-7.79h3.03c3.46.04,6.19.41,8.19,1.11,2,.7,3.95,2.16,5.84,4.39,1.89,2.23,4.18,5.75,6.86,10.57h6.31Z"/><path class="cls-4" d="M685.55,147.48v8.1h-6v37.64h-9.52v-11.31l-12.49,12.55h-11.19l23.49-22.44v-16.44h-7.79v9.7c0,3.96-1.05,7.15-3.15,9.58-2.1,2.43-5.28,3.65-9.52,3.65s-7.32-1.1-9.58-3.31c-2.27-2.2-3.4-5.35-3.4-9.43,0-.87.02-1.52.06-1.98h9.4v1.98c0,2.97,1.09,4.45,3.28,4.45s3.15-1.5,3.15-4.51v-10.14h-19.16v-8.1h52.42Z"/><path class="cls-4" d="M689.51,193.22v-37.64h-6.06v-8.1h21.82v8.1h-6.06v37.64h-9.7Z"/><path class="cls-4" d="M757.38,155.58h-6.06v37.64h-9.77v-20.77h-7.97v2.91c0,4.41-1.14,7.86-3.43,10.35-2.29,2.49-5.59,3.74-9.92,3.74-2.68,0-5.05-.52-7.11-1.55-2.06-1.03-3.65-2.49-4.76-4.39-1.11-1.9-1.67-4.1-1.67-6.61,0-4.04,1.31-7.11,3.93-9.21,2.62-2.1,5.94-3.15,9.98-3.15h3.96v-8.96h-21.39v-8.1h54.21v8.1ZM724.56,172.46h-3.71c-1.53,0-2.76.39-3.71,1.17-.95.78-1.42,1.88-1.42,3.28s.4,2.42,1.21,3.18c.8.76,1.84,1.14,3.12,1.14,1.44,0,2.55-.48,3.34-1.45.78-.97,1.17-2.28,1.17-3.93v-3.4ZM741.56,155.58h-7.97v8.96h7.97v-8.96Z"/><path class="cls-4" d="M392.14,230.6h-2.69v2.58c0,1.92-.38,3.38-1.14,4.36-.76.98-2.01,1.47-3.75,1.47-.43,0-.88-.03-1.36-.08v-3.22c.13.02.32.03.58.03.76,0,1.31-.22,1.66-.65.35-.43.53-1.1.53-2.01v-2.47h-6.44v10.15c0,1.22.29,2.16.86,2.82.57.66,1.38.99,2.41.99.98,0,1.75-.29,2.3-.86.56-.57.83-1.37.83-2.39h3.5c0,1.98-.59,3.52-1.76,4.63-1.17,1.11-2.77,1.66-4.79,1.66-2.27,0-4-.63-5.17-1.89s-1.76-2.96-1.76-5.1l-.03-10.01h-3.05v-3h19.25v3Z"/><path class="cls-4" d="M393.46,247.67c-.45-.43-.68-.98-.68-1.62s.23-1.19.68-1.62c.45-.43,1.03-.65,1.73-.65s1.25.22,1.69.65c.44.43.67.98.67,1.62s-.22,1.19-.67,1.62c-.44.43-1.01.65-1.69.65s-1.28-.22-1.73-.65Z"/><path class="cls-4" d="M437.69,230.6h-3.08v17.53h-3.58v-17.53h-5.02v17.53h-3.58v-7.96l-3.25-.03c.06.35.08.69.08,1.03,0,1.63-.52,2.93-1.55,3.91-1.04.98-2.41,1.47-4.13,1.47-1.26,0-2.37-.24-3.34-.72-.97-.48-1.72-1.16-2.26-2.04-.54-.88-.8-1.88-.8-3.01h3.36c0,.78.26,1.42.78,1.93.52.51,1.19.76,2.02.76s1.49-.24,1.97-.74c.48-.49.72-1.12.72-1.9s-.26-1.4-.78-1.93-1.29-.79-2.3-.79h-1.19v-2.89h1.19c.89,0,1.58-.23,2.08-.69.5-.46.75-1.03.75-1.69,0-.74-.24-1.34-.71-1.79-.47-.45-1.06-.68-1.76-.68-.76,0-1.39.22-1.89.67-.5.44-.75,1.02-.75,1.72h-3.3c0-1.07.25-2.02.75-2.84s1.2-1.46,2.09-1.9c.9-.44,1.93-.67,3.09-.67,1.7,0,3.07.45,4.11,1.36,1.04.91,1.55,2.12,1.55,3.63,0,1.02-.27,1.9-.8,2.65-.54.75-1.29,1.27-2.27,1.57v.06c.48.09.94.29,1.39.58h5.16v-9.6h15.26v3Z"/><path class="cls-4" d="M453.59,225.24c.02-.7-.13-1.26-.46-1.68-.32-.42-.77-.62-1.35-.62-.65,0-1.13.23-1.44.69-.31.46-.47,1.15-.47,2.05v1.91h3.91v3h-3.86v5.08h-5.02c-.68,0-1.26.13-1.73.39-.47.26-.71.69-.71,1.3,0,.55.2.97.6,1.23.4.27.93.4,1.6.4h1.22c1.63,0,2.99.38,4.08,1.15,1.09.77,1.64,2.01,1.64,3.73,0,1.37-.43,2.49-1.29,3.37-.86.88-2.06,1.32-3.59,1.32-1,0-1.83-.19-2.48-.58-.66-.39-1.15-.81-1.48-1.28v3.66h-3.38v-7.1h3.22c.07.81.38,1.46.93,1.93.55.47,1.27.71,2.18.71.81,0,1.44-.2,1.87-.6.43-.4.65-.9.65-1.51,0-.79-.28-1.37-.83-1.73-.55-.36-1.28-.54-2.16-.54h-1.64c-1.31-.06-2.42-.43-3.33-1.11-.91-.68-1.36-1.71-1.36-3.08,0-1.44.48-2.51,1.44-3.2s2.17-1.04,3.63-1.04h2.52v-2.5h-10.26v-3h10.32v-1.89c0-1.66.41-3.04,1.22-4.13.81-1.09,2.13-1.64,3.94-1.64,1.65,0,2.91.48,3.8,1.43.89.95,1.29,2.24,1.22,3.87h-3.13Z"/><path class="cls-4" d="M454.93,247.67c-.45-.43-.68-.98-.68-1.62s.23-1.19.68-1.62c.45-.43,1.03-.65,1.73-.65s1.25.22,1.69.65c.44.43.67.98.67,1.62s-.22,1.19-.67,1.62c-.44.43-1.01.65-1.69.65s-1.28-.22-1.73-.65Z"/><path class="cls-4" d="M485.96,230.6h-3.08v17.53h-3.55v-6.69c-.98,1.24-2.42,1.86-4.33,1.86s-3.47-.64-4.52-1.93-1.58-2.99-1.58-5.12v-5.66h-2.64v-3h19.7v3ZM479.33,230.6h-6.82v5.66c0,1.26.28,2.24.85,2.95.56.71,1.42,1.07,2.57,1.07,1.07,0,1.91-.35,2.51-1.04.6-.69.9-1.56.9-2.59v-6.05Z"/><path class="cls-4" d="M494.53,227.6v3h-3.08v17.53h-3.58v-17.53h-3.08v-3h3.19v-1.11c0-1-.19-1.84-.56-2.54s-1.04-1.04-2.03-1.04-1.69.35-2.07,1.04-.57,1.54-.57,2.54v1.91h-3.47v-1.72c0-2.09.49-3.75,1.46-4.97.97-1.22,2.52-1.83,4.65-1.83,4.03,0,6.05,2.27,6.05,6.8v.92h3.08Z"/><path class="cls-4" d="M495.85,247.67c-.45-.43-.68-.98-.68-1.62s.23-1.19.68-1.62c.45-.43,1.03-.65,1.73-.65s1.25.22,1.69.65c.44.43.67.98.67,1.62s-.22,1.19-.67,1.62c-.44.43-1.01.65-1.69.65s-1.28-.22-1.73-.65Z"/><path class="cls-4" d="M531.24,230.6h-3.11v17.53h-3.55v-8.85h-11.32v3.22c0,.85.19,1.54.58,2.05s.97.78,1.75.78c.72,0,1.28-.24,1.69-.72.41-.48.61-1.1.61-1.86v-.36h3.44c.02.15.03.32.03.53,0,1.68-.51,3.01-1.53,3.99-1.02.98-2.41,1.47-4.19,1.47-1.89,0-3.35-.56-4.38-1.68-1.04-1.12-1.55-2.58-1.55-4.37v-5.6h2.25c1.48,0,2.56-.36,3.25-1.07.68-.71,1.03-1.7,1.03-2.95v-2.11h-9.04v-3h24.05v3ZM524.58,230.6h-4.8v2.11c0,1.41-.32,2.63-.97,3.66h5.77v-5.77Z"/><path class="cls-4" d="M539.81,227.6v3h-3.08v17.53h-3.58v-17.53h-3.08v-3h3.19v-1.11c0-1-.19-1.84-.56-2.54s-1.04-1.04-2.03-1.04-1.69.35-2.07,1.04-.57,1.54-.57,2.54v1.91h-3.47v-1.72c0-2.09.49-3.75,1.46-4.97.97-1.22,2.52-1.83,4.65-1.83,4.03,0,6.05,2.27,6.05,6.8v.92h3.08Z"/><path class="cls-4" d="M541.12,247.67c-.45-.43-.68-.98-.68-1.62s.23-1.19.68-1.62c.45-.43,1.03-.65,1.73-.65s1.25.22,1.69.65c.44.43.67.98.67,1.62s-.22,1.19-.67,1.62c-.44.43-1.01.65-1.69.65s-1.28-.22-1.73-.65Z"/><path class="cls-4" d="M559.45,236.88c-.67.51-1,1.25-1,2.23,0,.87.27,1.57.82,2.09.55.53,1.29.79,2.23.79.81,0,1.52-.25,2.12-.75.6-.5.9-1.18.9-2.05h3.11v15.62h-3.3v-3.52c-.43.59-.98,1.04-1.65,1.35-.68.31-1.44.46-2.29.46-1.07,0-2.01-.23-2.8-.69-.8-.46-1.41-1.1-1.83-1.9-.43-.8-.64-1.71-.64-2.7s.2-1.82.61-2.58c.41-.76.97-1.36,1.69-1.8-.78-.44-1.39-1.05-1.83-1.83-.44-.78-.67-1.7-.67-2.77,0-1.83.63-3.24,1.9-4.22,1.27-.98,2.97-1.47,5.12-1.47h1.53v-2.52h-11.01v-3h18.03v3h-3.41v5.52h-4.83c-1.2,0-2.14.25-2.8.76ZM561.06,244.77c-.83.07-1.49.37-1.98.87-.49.51-.74,1.16-.74,1.96,0,.85.28,1.54.83,2.05.55.52,1.27.78,2.14.78.94,0,1.68-.29,2.22-.87s.8-1.26.8-2.04v-4.3c-.72.89-1.81,1.41-3.27,1.55Z"/><path class="cls-4" d="M572.4,248.13v-17.53h-3.08v-3h9.74v3h-3.08v17.53h-3.58Z"/><path class="cls-4" d="M583.97,239.42v3.13c0,.83.19,1.5.57,2.01.38.51.94.76,1.68.76.68,0,1.23-.24,1.62-.71.4-.47.6-1.1.6-1.87v-.69h3.44c.02.17.03.36.03.58,0,1.76-.5,3.15-1.5,4.19-1,1.04-2.38,1.55-4.13,1.55-1.89,0-3.33-.55-4.34-1.66-1.01-1.11-1.51-2.55-1.51-4.33v-5.88h2.86c1.48,0,2.56-.34,3.23-1.01s1.01-1.67,1.01-2.98v-1.91h-9.63v-3h15.92v3h-2.72v1.91c0,4.6-2.17,6.91-6.52,6.91h-.61Z"/><path class="cls-4" d="M595.76,248.13v-17.53h-3.08v-3h9.74v3h-3.08v17.53h-3.58Z"/><path class="cls-4" d="M631.91,230.6h-3.11v17.53h-3.55v-8.85h-11.32v3.22c0,.85.19,1.54.58,2.05s.97.78,1.75.78c.72,0,1.28-.24,1.69-.72.41-.48.61-1.1.61-1.86v-.36h3.44c.02.15.03.32.03.53,0,1.68-.51,3.01-1.53,3.99-1.02.98-2.41,1.47-4.19,1.47-1.89,0-3.35-.56-4.38-1.68-1.04-1.12-1.55-2.58-1.55-4.37v-5.6h2.25c1.48,0,2.56-.36,3.25-1.07.68-.71,1.03-1.7,1.03-2.95v-2.11h-9.04v-3h24.05v3ZM625.25,230.6h-4.8v2.11c0,1.41-.32,2.63-.97,3.66h5.77v-5.77Z"/><path class="cls-4" d="M628.54,224.7c-.42.42-.93.62-1.54.62s-1.12-.21-1.54-.62c-.42-.42-.62-.92-.62-1.51s.21-1.12.62-1.54.93-.62,1.54-.62,1.12.21,1.54.62.62.93.62,1.54-.21,1.1-.62,1.51Z"/><path class="cls-4" d="M652.6,230.6h-3.08v17.53h-3.58v-4.88c-.54.76-1.24,1.35-2.11,1.78-.87.43-1.84.64-2.91.64s-2.07-.21-2.94-.64c-.87-.43-1.56-1.04-2.07-1.86-.51-.81-.76-1.78-.76-2.88,0-.76.15-1.46.44-2.09.3-.64.72-1.17,1.28-1.6h-4.16v-2.83h10.18v2.83h-1.08c-.98,0-1.77.29-2.37.86-.6.57-.9,1.31-.9,2.22s.33,1.68.99,2.22c.66.54,1.47.8,2.45.8,1.2-.02,2.16-.45,2.89-1.3.72-.85,1.08-1.94,1.08-3.27v-7.52h-15.2v-3h21.86v3Z"/><path class="cls-4" d="M654.52,248.13v-17.53h-3.08v-3h9.74v3h-3.08v17.53h-3.58Z"/><path class="cls-4" d="M684.84,221.96c2.11,1.45,3.16,3.49,3.16,6.12v.47h-3.52v-.39c0-3.62-3.03-5.44-9.1-5.44-2.88,0-5.04.38-6.48,1.14-1.43.76-2.19,2.01-2.26,3.75h3.11v3h-3.08v17.53h-3.58v-17.53h-3.08v-3h3.08c.2-5.22,4.32-7.82,12.34-7.82,4.16,0,7.3.73,9.4,2.18Z"/><path class="cls-4" d="M689.06,230.6v3.19c1.13.43,2.03,1.17,2.7,2.23.67,1.06,1.01,2.37,1.01,3.93,0,1.35-.27,2.55-.8,3.61s-1.33,1.88-2.37,2.47-2.31.89-3.79.89c-.15,0-.46-.02-.94-.06v-3.13l.75.06c1.09,0,1.95-.34,2.58-1.03.63-.68.94-1.6.94-2.75,0-1.02-.25-1.85-.76-2.5-.51-.65-1.23-.97-2.15-.97-.98,0-1.72.37-2.21,1.1-.49.73-.74,1.69-.74,2.87v.58h-3v-.58c0-1.17-.24-2.12-.72-2.86s-1.19-1.11-2.14-1.11-1.7.32-2.22.96c-.52.64-.78,1.48-.78,2.51,0,1.15.31,2.06.94,2.75s1.49,1.03,2.58,1.03l.75-.06v3.13c-.48.04-.8.06-.94.06-1.46,0-2.72-.3-3.77-.9-1.05-.6-1.85-1.42-2.39-2.47-.54-1.04-.8-2.24-.8-3.59s.27-2.6.8-3.58c.54-.98,1.27-1.72,2.21-2.22.93-.5,1.97-.75,3.12-.75,1.28,0,2.31.32,3.09.97.79.65,1.35,1.48,1.71,2.5h.08c.31-.85.77-1.57,1.37-2.16.6-.59,1.38-.99,2.34-1.19v-2.91h-16.95v-3h26.38v3h-5.91Z"/><path class="cls-4" d="M714.47,230.6h-3.05v17.53h-3.61v-10.62h-3.69c-1.37,0-2.45.33-3.25,1-.8.67-1.19,1.62-1.19,2.86s.35,2.18,1.05,2.87,1.73,1.04,3.08,1.04h.55v2.8h-1.11c-2.15,0-3.88-.57-5.22-1.72s-2-2.84-2-5.08.73-4.01,2.19-5.15c1.46-1.14,3.37-1.71,5.71-1.71h3.86v-3.83h-13.98v-3h20.64v3Z"/></svg>